<?xml version="1.0" encoding="UTF-8"?>
<!DOCTYPE svg  PUBLIC '-//W3C//DTD SVG 1.1//EN'  'http://www.w3.org/Graphics/SVG/1.1/DTD/svg11.dtd'>
<svg version="1.1" xmlns="http://www.w3.org/2000/svg">
<defs>
<font id="e-UkraineHead-Regular" horiz-adv-x="360">
<font-face font-family="e-Ukraine Head" font-weight="400" ascent="409" bbox="-272 -110 586 496" cap-height="380" descent="-103" panose-1="0 0 5 0 0 0 0 0 0 0" underline-position="-62" underline-thickness="35" unicode-range="U+0020-2212" units-per-em="512" x-height="300"/>
<missing-glyph/>
<glyph glyph-name="space" horiz-adv-x="160" unicode=" "/>
<glyph d="M55 380h70l-11 -254h-48zM129 78v-78h-78v78h78z" glyph-name="exclam" horiz-adv-x="180" unicode="!"/>
<glyph d="M27 380h63l-7 -136h-50zM135 380h63l-7 -136h-50z" glyph-name="quotedbl" horiz-adv-x="225" unicode='"'/>
<glyph d="M336 231h-62v-82h62v-58h-62v-91h-52v91h-84v-91h-52v91h-62v58h62v82h-62v58h62v91h52v-91h84v91h52v-91h62v-58zM222 149v82h-84v-82h84z" glyph-name="numbersign" unicode="#"/>
<glyph d="M289 31q-34 -30 -94 -35v-40h-39v39q-81 5 -134 55l37 46q39 -38 97 -46v118q-59 18 -90 41.5t-31 67.5q0 45 32.5 73.5t88.5 33.5v36h39v-36q66 -3 119 -44l-35 -47q-37 31 -84 37v-113q67 -17 97.5 -41.5t30.5 -66.5q0 -48 -34 -78zM109 250q14 -12 47 -22v102 q-29 -3 -45 -16t-16 -34q0 -18 14 -30zM244 67q17 14 17 36q0 20 -14 31.5t-52 22.5v-107q32 3 49 17z" glyph-name="dollar" horiz-adv-x="353" unicode="$"/>
<glyph d="M55.5 186.5q-27.5 31.5 -27.5 83.5t27.5 83.5t74.5 31.5t74.5 -31.5t27.5 -83.5t-27.5 -83.5t-74.5 -31.5t-74.5 31.5zM413 380l-241 -380h-47l241 380h47zM169.5 217q14.5 20 14.5 53t-14.5 53t-39.5 20t-39.5 -20t-14.5 -53t14.5 -53t39.5 -20t39.5 20zM333.5 26.5 q-27.5 31.5 -27.5 83.5t27.5 83.5t74.5 31.5t74.5 -31.5t27.5 -83.5t-27.5 -83.5t-74.5 -31.5t-74.5 31.5zM447.5 57q14.5 20 14.5 53t-14.5 53t-39.5 20t-39.5 -20t-14.5 -53t14.5 -53t39.5 -20t39.5 20z" glyph-name="percent" horiz-adv-x="538" unicode="%"/>
<glyph d="M468 80q-3 -41 -24 -63t-56 -22q-40 0 -95 42q-58 -42 -131 -42q-64 0 -101 28.5t-37 77.5q0 38 22.5 63.5t70.5 41.5q-22 27 -31 47.5t-9 40.5q0 40 30.5 65.5t79.5 25.5q52 0 83 -24.5t31 -62.5q0 -35 -25 -63.5t-71 -45.5q44 -45 86 -81q38 44 48 105l56 -12 q-17 -76 -62 -127q38 -27 55 -27q25 0 30 44zM148.5 323.5q-15.5 -14.5 -15.5 -35.5q0 -13 8 -27t30 -37q71 22 71 68q0 21 -15 33.5t-40 12.5q-23 0 -38.5 -14.5zM250 72q-34 31 -99 97q-66 -21 -66 -68q0 -24 22.5 -39t58.5 -15q45 0 84 25z" glyph-name="ampersand" horiz-adv-x="482" unicode="&amp;"/>
<glyph d="M27 380h63l-7 -136h-50z" glyph-name="quotesingle" horiz-adv-x="117" unicode="'"/>
<glyph d="M83 25.5q-37 65.5 -37 144.5q0 80 37 145.5t101 99.5l24 -32q-47 -36 -73.5 -92t-26.5 -121t26.5 -120.5t73.5 -92.5l-24 -31q-64 34 -101 99.5z" glyph-name="parenleft" horiz-adv-x="236" unicode="("/>
<glyph d="M39 -43q47 37 73.5 92.5t26.5 120.5t-26.5 121t-73.5 92l24 32q64 -34 101 -99.5t37 -145.5q0 -79 -37 -144.5t-101 -99.5z" glyph-name="parenright" horiz-adv-x="230" unicode=")"/>
<glyph d="M218 315l-67 -21l41 -57l-30 -21l-41 56l-41 -56l-30 21l41 57l-67 22l11 35l68 -21v70h37v-70l67 21z" glyph-name="asterisk" horiz-adv-x="242" unicode="*"/>
<glyph d="M316 215v-50h-110v-111h-52v111h-110v50h110v111h52v-111h110z" glyph-name="plus" unicode="+"/>
<glyph d="M50 -36q30 0 30 34v2h-39v78h78v-72q0 -39 -18 -58.5t-49 -19.5h-11v36h9z" glyph-name="comma" horiz-adv-x="160" unicode=","/>
<glyph d="M35 199h174v-58h-174v58z" glyph-name="hyphen" horiz-adv-x="244" unicode="-"/>
<glyph d="M41 78h78v-78h-78v78z" glyph-name="period" horiz-adv-x="160" unicode="."/>
<glyph d="M202 400h56l-222 -420h-56z" glyph-name="slash" horiz-adv-x="238" unicode="/"/>
<glyph d="M69 48q-41 53 -41 142t41 142t111 53t111 -53t41 -142t-41 -142t-111 -53t-111 53zM246.5 85.5q24.5 38.5 24.5 104.5t-24.5 104.5t-66.5 38.5t-66.5 -38.5t-24.5 -104.5t24.5 -104.5t66.5 -38.5t66.5 38.5z" glyph-name="zero" unicode="0"/>
<glyph d="M17 267v49h16q49 0 67 13t22 51h43v-380h-60v267h-88z" glyph-name="one" horiz-adv-x="234" unicode="1"/>
<glyph d="M288 54v-54h-272v39l133 118q37 34 53 60.5t16 52.5q0 29 -18 46.5t-48 17.5q-34 0 -55 -21.5t-24 -62.5l-56 11q4 57 42 90.5t97 33.5q55 0 89 -30.5t34 -79.5q0 -39 -24 -74.5t-82 -85.5l-70 -61h185z" glyph-name="two" horiz-adv-x="309" unicode="2"/>
<glyph d="M253 201.5q32 -31.5 32 -80.5q0 -54 -39.5 -90t-100.5 -36q-50 0 -86.5 21.5t-53.5 61.5l46 27q27 -59 90 -59q40 0 62.5 20t22.5 55q0 31 -19 50.5t-50 19.5q-23 0 -42 -11l-29 32l111 114h-176v54h252v-44l-101 -103q49 0 81 -31.5z" glyph-name="three" horiz-adv-x="310" unicode="3"/>
<glyph d="M321 145v-51h-60v-94h-58v94h-187v48l172 238h73v-235h60zM78 145h125v173z" glyph-name="four" horiz-adv-x="328" unicode="4"/>
<glyph d="M254.5 217.5q36.5 -36.5 36.5 -91.5q0 -58 -40 -94.5t-104 -36.5q-44 0 -78.5 18.5t-52.5 51.5l41 32q13 -23 37 -37t53 -14q37 0 61 22.5t24 57.5q0 36 -22 58t-58 22q-50 0 -73 -39l-45 15l17 198h213v-55h-167l-8 -95q29 24 73 24q56 0 92.5 -36.5z" glyph-name="five" horiz-adv-x="317" unicode="5"/>
<glyph d="M282 210q36 -33 36 -88t-40.5 -91t-97.5 -36q-74 0 -112 54t-38 136q0 87 40 143.5t119 56.5q36 0 67 -13.5t51 -39.5l-40 -37q-27 39 -78 39q-55 0 -80 -41t-25 -102v-2q16 26 43.5 40t62.5 14q56 0 92 -33zM237 66q23 21 23 54q0 35 -22 55t-56 20q-35 0 -58.5 -20 t-23.5 -54t22.5 -55t57.5 -21q34 0 57 21z" glyph-name="six" horiz-adv-x="333" unicode="6"/>
<glyph d="M284 380v-45q-63 -58 -99.5 -146.5t-36.5 -188.5h-61q0 92 36.5 180t92.5 145h-208v55h276z" glyph-name="seven" horiz-adv-x="287" unicode="7"/>
<glyph d="M288.5 157q17.5 -24 17.5 -56q0 -48 -38 -77t-102 -29t-102 29t-38 77q0 32 17.5 56t49.5 37q-26 12 -41 34.5t-15 50.5q0 48 35 77t94 29t94 -29t35 -77q0 -28 -15 -50.5t-41 -34.5q32 -13 49.5 -37zM113.5 321q-19.5 -17 -19.5 -45t19.5 -45t52.5 -17t52.5 17t19.5 45 t-19.5 45t-52.5 17t-52.5 -17zM225 59.5q22 17.5 22 46.5q0 28 -22 45t-59 17t-59 -17t-22 -45q0 -29 22 -46.5t59 -17.5t59 17.5z" glyph-name="eight" horiz-adv-x="331" unicode="8"/>
<glyph d="M265 331q38 -54 38 -136q0 -87 -40 -143.5t-119 -56.5q-36 0 -67 13.5t-51 39.5l40 37q27 -39 78 -39q55 0 80 41t25 102v2q-16 -26 -43.5 -40t-62.5 -14q-56 0 -92 33t-36 88t40.5 91t97.5 36q74 0 112 -54zM209.5 205q23.5 20 23.5 54t-22.5 55t-57.5 21q-34 0 -57 -21 t-23 -54q0 -35 22 -55t56 -20q35 0 58.5 20z" glyph-name="nine" horiz-adv-x="333" unicode="9"/>
<glyph d="M40 78h78v-78h-78v78zM40 300h78v-78h-78v78z" glyph-name="colon" horiz-adv-x="158" unicode=":"/>
<glyph d="M49 -36q30 0 30 34v2h-39v78h78v-72q0 -39 -18 -58.5t-49 -19.5h-11v36h9zM40 300h78v-78h-78v78z" glyph-name="semicolon" horiz-adv-x="158" unicode=";"/>
<glyph d="M316 325v-54l-201 -80l201 -79v-57l-272 109v52z" glyph-name="less" unicode="&lt;"/>
<glyph d="M44 147h272v-50h-272v50zM44 283h272v-50h-272v50z" glyph-name="equal" unicode="="/>
<glyph d="M44 325l272 -109v-52l-272 -109v54l201 80l-201 79v57z" glyph-name="greater" unicode="&gt;"/>
<glyph d="M133.5 163q9.5 17 40.5 42q27 22 36 35.5t9 32.5q0 28 -17.5 44.5t-46.5 16.5q-34 0 -55.5 -22t-25.5 -60l-56 11q6 56 43.5 89t94.5 33q55 0 89.5 -30t34.5 -78q0 -30 -15 -53.5t-48 -48.5q-23 -17 -32.5 -28.5t-9.5 -24.5v-4h-50q-1 28 8.5 45zM191 78v-78h-78v78h78z " glyph-name="question" horiz-adv-x="310" unicode="?"/>
<glyph d="M413 52v-52q-13 -3 -21 -2q-29 0 -42.5 11t-15.5 37q-16 -23 -44 -37t-60 -14q-44 0 -71 24.5t-27 64.5q0 47 36 68.5t95 29.5q36 6 47.5 9.5t11.5 12.5q0 22 -26.5 38.5t-69.5 16.5q-67 0 -108 -42.5t-41 -113.5q0 -73 43.5 -115.5t117.5 -42.5q54 0 94 27l22 -41 q-53 -31 -118 -31q-61 0 -108.5 25.5t-73.5 71.5t-26 106q0 58 25.5 104t71 72t103.5 26q70 0 112.5 -35.5t42.5 -93.5v-105q0 -19 18 -19h12zM299 65q26 21 26 49v42q-10 -6 -30 -10.5t-27 -5.5q-40 -6 -59.5 -16.5t-19.5 -36.5q0 -21 13 -32t36 -11q35 0 61 21z" glyph-name="at" horiz-adv-x="432" unicode="@"/>
<glyph d="M323 0l-34 88h-182l-34 -88h-66l153 380h77l153 -380h-67zM129 144h138l-69 178z" glyph-name="A" horiz-adv-x="397" unicode="A"/>
<glyph d="M338.5 158.5q14.5 -23.5 14.5 -54.5q0 -48 -32.5 -76t-88.5 -28h-175v380h170q55 0 87 -27.5t32 -73.5q0 -56 -48 -85q26 -12 40.5 -35.5zM118 326v-105h100q66 0 66 53q0 52 -66 52h-100zM272.5 68q17.5 14 17.5 43q0 57 -71 57h-101v-114h101q36 0 53.5 14z" glyph-name="B" horiz-adv-x="381" unicode="B"/>
<glyph d="M77.5 48.5q-49.5 53.5 -49.5 141.5q0 57 23 101.5t64 69t93 24.5q59 0 101 -29t59 -83l-59 -20q-23 77 -101 77q-52 0 -83.5 -38t-31.5 -102q0 -65 31 -102.5t84 -37.5q78 0 101 77l59 -20q-17 -52 -59 -82t-101 -30q-81 0 -130.5 53.5z" glyph-name="C" horiz-adv-x="387" unicode="C"/>
<glyph d="M334.5 329q49.5 -51 49.5 -139q0 -85 -50.5 -137.5t-137.5 -52.5h-139v380h139q89 0 138.5 -51zM286 91.5q33 36.5 33 98.5t-33 98.5t-91 36.5h-75v-270h75q58 0 91 36.5z" glyph-name="D" horiz-adv-x="412" unicode="D"/>
<glyph d="M120 57h204v-57h-267v380h262v-57h-199v-100h154v-56h-154v-110z" glyph-name="E" horiz-adv-x="344" unicode="E"/>
<glyph d="M320 323h-200v-103h155v-55h-155v-165h-63v380h263v-57z" glyph-name="F" horiz-adv-x="331" unicode="F"/>
<glyph d="M380 193v-193h-48l-5 55q-21 -29 -52 -44.5t-70 -15.5q-80 0 -128.5 53.5t-48.5 141.5q0 57 23.5 101.5t66 69t97.5 24.5q57 0 99 -26.5t61 -75.5l-58 -22q-13 34 -39 51.5t-64 17.5q-55 0 -88 -38t-33 -102q0 -65 31.5 -102.5t84.5 -37.5q42 0 73.5 24t40.5 70h-100v49 h157z" glyph-name="G" horiz-adv-x="418" unicode="G"/>
<glyph d="M310 380h63v-380h-63v166h-190v-166h-63v380h63v-156h190v156z" glyph-name="H" horiz-adv-x="430" unicode="H"/>
<glyph d="M57 380h63v-380h-63v380z" glyph-name="I" horiz-adv-x="177" unicode="I"/>
<glyph d="M38.5 16q-28.5 21 -39.5 59l53 21q5 -22 18.5 -34t36.5 -12q26 0 39.5 16t13.5 46v268h64v-267q0 -54 -32 -86t-86 -32q-39 0 -67.5 21z" glyph-name="J" horiz-adv-x="275" unicode="J"/>
<glyph d="M366 58v-58h-31q-30 0 -46.5 17t-16.5 48v101h-152v-166h-63v380h63v-157h76l96 157h71l-102 -157h74v-146q0 -8 5 -13.5t14 -5.5h12z" glyph-name="K" horiz-adv-x="392" unicode="K"/>
<glyph d="M120 58h201v-58h-264v380h63v-322z" glyph-name="L" horiz-adv-x="336" unicode="L"/>
<glyph d="M481 380v-380h-61v308l-116 -308h-69l-117 309v-309h-61v380h97l116 -306l115 306h96z" glyph-name="M" horiz-adv-x="538" unicode="M"/>
<glyph d="M315 380h60v-380h-61l-197 279v-279h-60v380h62l196 -279v279z" glyph-name="N" horiz-adv-x="432" unicode="N"/>
<glyph d="M78 48.5q-50 53.5 -50 141.5q0 57 23 101.5t65 69t95 24.5q83 0 133 -53t50 -142q0 -57 -23 -101.5t-65 -69t-95 -24.5q-83 0 -133 53.5zM296.5 88.5q32.5 37.5 32.5 101.5t-32.5 101.5t-85.5 37.5q-54 0 -86 -37.5t-32 -101.5t32 -101.5t86 -37.5q53 0 85.5 37.5z" glyph-name="O" horiz-adv-x="422" unicode="O"/>
<glyph d="M314.5 348.5q36.5 -31.5 36.5 -85.5q0 -55 -36.5 -86.5t-98.5 -31.5h-96v-145h-63v380h159q62 0 98.5 -31.5zM287 262q0 63 -79 63h-88v-126h88q79 0 79 63z" glyph-name="P" horiz-adv-x="370" unicode="P"/>
<glyph d="M352.5 60q-41.5 -52 -110.5 -63v-18q0 -30 33 -30q17 0 47 2v-51q-32 -2 -51 -2q-43 0 -65 19.5t-22 64.5v15q-71 8 -113.5 60t-42.5 133q0 57 23 101.5t65 69t95 24.5q83 0 133 -53t50 -142q0 -78 -41.5 -130zM125 88.5q32 -37.5 86 -37.5q53 0 85.5 37.5t32.5 101.5 t-32.5 101.5t-85.5 37.5q-54 0 -86 -37.5t-32 -101.5t32 -101.5z" glyph-name="Q" horiz-adv-x="422" unicode="Q"/>
<glyph d="M369 58v-58h-32q-30 0 -46.5 17t-16.5 48v82h-154v-147h-63v380h159q61 0 97 -29.5t36 -79.5q0 -32 -17 -55.5t-47 -35.5h52v-103q0 -8 5.5 -13.5t13.5 -5.5h13zM120 325v-125h88q79 0 79 63q0 62 -79 62h-88z" glyph-name="R" horiz-adv-x="392" unicode="R"/>
<glyph d="M88.5 9q-39.5 14 -68.5 41l37 48q24 -23 55.5 -35.5t65.5 -12.5q38 0 60.5 14t22.5 39q0 21 -18 32.5t-68 25.5q-46 13 -74.5 25.5t-47.5 34.5t-19 56q0 50 39 79t105 29q79 0 137 -45l-35 -48q-45 37 -106 37q-35 0 -56 -13.5t-21 -35.5q0 -20 20 -33t70 -26 q70 -18 104 -43t34 -69q0 -53 -41 -83.5t-111 -30.5q-45 0 -84.5 14z" glyph-name="S" horiz-adv-x="348" unicode="S"/>
<glyph d="M344 380v-58h-135v-322h-64v322h-135v58h334z" glyph-name="T" horiz-adv-x="354" unicode="T"/>
<glyph d="M95 37q-43 42 -43 113v230h63v-229q0 -46 26 -73t71 -27t70.5 26.5t25.5 73.5v229h64v-230q0 -71 -43 -113t-117 -42t-117 42z" glyph-name="U" horiz-adv-x="424" unicode="U"/>
<glyph d="M310 380h67l-144 -380h-76l-144 380h67l116 -315z" glyph-name="V" horiz-adv-x="390" unicode="V"/>
<glyph d="M481 380h63l-110 -380h-67l-87 298l-86 -298h-66l-110 380h65l81 -291l84 291h66l83 -293z" glyph-name="W" horiz-adv-x="561" unicode="W"/>
<glyph d="M369 0h-74l-107 150l-106 -150h-73l142 194l-133 186h74l98 -139l99 139h71l-132 -184z" glyph-name="X" horiz-adv-x="378" unicode="X"/>
<glyph d="M365 380l-106 -289q-34 -96 -114 -96q-43 0 -69 25.5t-26 66.5q0 24 9.5 44.5t27.5 33.5h41l-119 215h71l113 -215h31l74 215h67zM177.5 59q12.5 11 21.5 35l8 23h-88q-11 -13 -11 -29q0 -19 10.5 -29.5t28.5 -10.5t30.5 11z" glyph-name="Y" horiz-adv-x="382" unicode="Y"/>
<glyph d="M329 380v-50l-223 -272h223v-58h-306v50l223 272h-212v58h295z" glyph-name="Z" horiz-adv-x="353" unicode="Z"/>
<glyph d="M197 350h-83v-360h83v-50h-140v460h140v-50z" glyph-name="bracketleft" horiz-adv-x="236" unicode="["/>
<glyph d="M258 -20h-56l-222 420h56z" glyph-name="backslash" horiz-adv-x="238" unicode="\"/>
<glyph d="M203 400v-460h-140v50h83v360h-83v50h140z" glyph-name="bracketright" horiz-adv-x="240" unicode="]"/>
<glyph d="M307 190h-56l-71 141l-72 -141h-55l98 190h58z" glyph-name="asciicircum" unicode="^"/>
<glyph d="M257 -4v-56h-254v56h254z" glyph-name="underscore" horiz-adv-x="260" unicode="_"/>
<glyph d="M76 328l-59 73h72l30 -73h-43z" glyph-name="grave" horiz-adv-x="160" unicode="`"/>
<glyph d="M302 52v-52q-6 -2 -21 -2q-28 0 -41.5 11t-16.5 36q-16 -23 -44 -36.5t-61 -13.5q-44 0 -71 24.5t-27 64.5q0 49 35 69t94 29q38 5 52.5 11t14.5 22q0 18 -17.5 29t-45.5 11q-25 0 -48.5 -10.5t-41.5 -29.5l-37 39q54 51 130 51q54 0 85 -26.5t31 -72.5v-135 q0 -19 19 -19h11zM188.5 65q25.5 21 25.5 49v39q-7 -5 -22.5 -8.5t-35.5 -6.5q-38 -6 -57.5 -15.5t-19.5 -35.5q0 -21 13 -32t36 -11q35 0 60.5 21z" glyph-name="a" horiz-adv-x="322" unicode="a"/>
<glyph d="M301 262.5q36 -42.5 36 -112.5q0 -69 -36.5 -112t-94.5 -43q-33 0 -59.5 13t-43.5 38l-4 -46h-52v400h60v-142q38 47 99 47q59 0 95 -42.5zM252.5 74.5q23.5 28.5 23.5 75.5t-23.5 75.5t-62.5 28.5q-40 0 -63.5 -28.5t-23.5 -75.5t23.5 -75.5t63.5 -28.5q39 0 62.5 28.5z " glyph-name="b" horiz-adv-x="362" unicode="b"/>
<glyph d="M66.5 38q-41.5 43 -41.5 112t41.5 112t108.5 43q49 0 85 -24t49 -66l-57 -18q-10 27 -30 42t-47 15q-41 0 -65 -28.5t-24 -75.5t24 -75.5t65 -28.5q27 0 47.5 15t29.5 42l57 -18q-13 -42 -49 -66t-85 -24q-67 0 -108.5 43z" glyph-name="c" horiz-adv-x="326" unicode="c"/>
<glyph d="M315 400v-400h-52l-4 48q-18 -26 -44.5 -39.5t-58.5 -13.5q-59 0 -95 42.5t-36 112.5q0 69 36.5 112t94.5 43q31 0 56.5 -11.5t42.5 -33.5v140h60zM235.5 74.5q23.5 28.5 23.5 75.5t-23.5 75.5t-63.5 28.5q-39 0 -62.5 -28.5t-23.5 -75.5t23.5 -75.5t62.5 -28.5 q40 0 63.5 28.5z" glyph-name="d" horiz-adv-x="362" unicode="d"/>
<glyph d="M114.5 68.5q24.5 -22.5 63.5 -22.5q59 0 89 39l41 -36q-45 -54 -129 -54q-73 0 -113.5 43t-40.5 112t41 112t108 43q65 0 104.5 -42.5t39.5 -112.5q0 -12 -2 -19h-231q5 -40 29.5 -62.5zM116 234.5q-23 -20.5 -30 -57.5h171q-6 37 -28 57.5t-55 20.5q-35 0 -58 -20.5z " glyph-name="e" horiz-adv-x="341" unicode="e"/>
<glyph d="M145.5 346.5q-9.5 -9.5 -9.5 -26.5v-20h86v-51h-86v-249h-60v249h-62v51h62v21q0 40 26 63t71 23t82 -25l-28 -45q-27 19 -55 19q-17 0 -26.5 -9.5z" glyph-name="f" horiz-adv-x="234" unicode="f"/>
<glyph d="M315 300l-1 -268q0 -62 -39 -99.5t-107 -37.5q-79 0 -122 43l32 41q18 -18 39 -25.5t50 -7.5q47 0 69 23.5t22 62.5v29q-18 -23 -44.5 -35.5t-57.5 -12.5q-59 0 -95 40t-36 106q0 65 36.5 105.5t94.5 40.5q33 0 59 -12.5t44 -35.5l4 43h52zM235.5 88q23.5 26 23.5 70 t-23.5 70t-63.5 26q-39 0 -62.5 -26t-23.5 -70t23.5 -70t62.5 -26q40 0 63.5 26z" glyph-name="g" horiz-adv-x="362" unicode="g"/>
<glyph d="M287 273.5q30 -31.5 30 -83.5v-190h-60v174q0 38 -17.5 59t-47.5 21q-36 0 -60.5 -23t-24.5 -58v-173h-60v400h60v-142q18 22 44 34.5t57 12.5q49 0 79 -31.5z" glyph-name="h" horiz-adv-x="359" unicode="h"/>
<glyph d="M52 300h60v-300h-60v300zM49 402h66v-60h-66v60z" glyph-name="i" horiz-adv-x="164" unicode="i"/>
<glyph d="M0 -100v54q8 -1 23 -1q30 0 30 30v317h60v-317q0 -85 -83 -85q-12 0 -30 2zM50 402h66v-60h-66v60z" glyph-name="j" horiz-adv-x="160" unicode="j"/>
<glyph d="M308 53v-53h-27q-28 0 -43 14t-15 42v69h-116v-125h-60v400h60v-219h61l71 119h64l-76 -122h55v-110q0 -7 4 -11t11 -4h11z" glyph-name="k" horiz-adv-x="331" unicode="k"/>
<glyph d="M47 400h60v-400h-60v400z" glyph-name="l" horiz-adv-x="154" unicode="l"/>
<glyph d="M483 273.5q29 -31.5 29 -83.5v-190h-60v174q0 39 -16 59.5t-46 20.5q-35 0 -57.5 -23t-22.5 -58v-173h-60v174q0 38 -16 59t-46 21q-35 0 -58 -23t-23 -58v-173h-60v300h52l4 -45q16 23 42.5 36.5t59.5 13.5t57 -15.5t37 -42.5q16 27 44 42.5t63 15.5q48 0 77 -31.5z" glyph-name="m" horiz-adv-x="555" unicode="m"/>
<glyph d="M287.5 273q30.5 -32 30.5 -83v-190h-60v174q0 38 -17.5 59t-48.5 21q-36 0 -60.5 -23t-24.5 -58v-173h-60v300h52l4 -47q18 24 45.5 38t60.5 14q48 0 78.5 -32z" glyph-name="n" unicode="n"/>
<glyph d="M66.5 37.5q-41.5 42.5 -41.5 112.5q0 69 42 112t110 43q69 0 110.5 -42.5t41.5 -112.5q0 -69 -42 -112t-110 -43q-69 0 -110.5 42.5zM243 74.5q25 28.5 25 75.5t-25 75.5t-66 28.5t-66 -28.5t-25 -75.5t25 -75.5t66 -28.5t66 28.5z" glyph-name="o" horiz-adv-x="354" unicode="o"/>
<glyph d="M301 262.5q36 -42.5 36 -112.5q0 -69 -36.5 -112t-94.5 -43q-31 0 -56.5 11.5t-42.5 33.5v-140h-60v400h52l4 -48q18 26 44.5 39.5t58.5 13.5q59 0 95 -42.5zM252.5 74.5q23.5 28.5 23.5 75.5t-23.5 75.5t-62.5 28.5q-40 0 -63.5 -28.5t-23.5 -75.5t23.5 -75.5 t63.5 -28.5q39 0 62.5 28.5z" glyph-name="p" horiz-adv-x="362" unicode="p"/>
<glyph d="M315 300v-400h-60v142q-38 -47 -99 -47q-59 0 -95 42.5t-36 112.5q0 69 36.5 112t94.5 43q33 0 59.5 -13t43.5 -38l4 46h52zM235.5 74.5q23.5 28.5 23.5 75.5t-23.5 75.5t-63.5 28.5q-39 0 -62.5 -28.5t-23.5 -75.5t23.5 -75.5t62.5 -28.5q40 0 63.5 28.5z" glyph-name="q" horiz-adv-x="362" unicode="q"/>
<glyph d="M231 302v-57q-26 2 -40 2q-37 0 -60.5 -21.5t-23.5 -57.5v-168h-60v300h52l4 -48q17 25 44.5 39t60.5 14q11 0 23 -3z" glyph-name="r" horiz-adv-x="241" unicode="r"/>
<glyph d="M16 41l33 43q39 -37 98 -37q29 0 45.5 9t16.5 26q0 15 -15 24t-56 19q-58 14 -83.5 35t-25.5 56q0 40 32.5 64.5t85.5 24.5q63 0 114 -37l-34 -45q-37 31 -83 31q-26 0 -41.5 -9t-15.5 -25q0 -14 14.5 -23t52.5 -19q62 -16 87.5 -37t25.5 -56q0 -41 -33 -65.5t-88 -24.5 q-79 0 -130 46z" glyph-name="s" horiz-adv-x="288" unicode="s"/>
<glyph d="M132 249v-158q0 -22 10 -31t33 -9q25 0 49 6v-55q-29 -7 -61 -7q-44 0 -67.5 21.5t-23.5 62.5v170h-59v51h59l8 80h52v-80h92v-51h-92z" glyph-name="t" horiz-adv-x="248" unicode="t"/>
<glyph d="M313 300v-300h-52l-4 47q-18 -24 -45.5 -38t-60.5 -14q-48 0 -78.5 32t-30.5 83v190h60v-174q0 -38 17.5 -59t48.5 -21q36 0 60.5 23t24.5 58v173h60z" glyph-name="u" unicode="u"/>
<glyph d="M252 300h64l-119 -300h-70l-118 300h66l89 -239z" glyph-name="v" horiz-adv-x="324" unicode="v"/>
<glyph d="M401 300h59l-91 -300h-66l-66 220l-65 -220h-66l-92 300h62l65 -232l68 232h58l68 -232z" glyph-name="w" horiz-adv-x="474" unicode="w"/>
<glyph d="M318 0h-72l-81 112l-81 -112h-71l114 153l-108 147h71l77 -105l78 105h68l-108 -147z" glyph-name="x" horiz-adv-x="331" unicode="x"/>
<glyph d="M321 300l-100 -296q-19 -57 -45 -83t-64 -26t-61.5 23.5t-23.5 62.5q0 41 30 71h43l-97 248h65l88 -248h24l77 248h64zM155 -14l6 18h-74q-7 -10 -7 -24q0 -16 9 -25.5t24 -9.5q28 0 42 41z" glyph-name="y" horiz-adv-x="328" unicode="y"/>
<glyph d="M95 51h181v-51h-256v49l177 200h-168v51h243v-49z" glyph-name="z" horiz-adv-x="296" unicode="z"/>
<glyph d="M98 170q33 -14 33 -64v-97q0 -19 19 -19h46v-50h-58q-31 0 -47.5 16.5t-16.5 47.5v100q0 21 -6.5 31t-21.5 10h-16v50h16q15 0 21.5 10t6.5 31v100q0 31 16.5 47.5t47.5 16.5h58v-50h-46q-19 0 -19 -19v-97q0 -50 -33 -64z" glyph-name="braceleft" horiz-adv-x="236" unicode="{"/>
<glyph d="M57 400h57v-460h-57v460z" glyph-name="bar" horiz-adv-x="171" unicode="|"/>
<glyph d="M190 195v-50h-16q-15 0 -21.5 -10t-6.5 -31v-100q0 -31 -16.5 -47.5t-47.5 -16.5h-58v50h46q19 0 19 19v97q0 50 33 64q-33 14 -33 64v97q0 19 -19 19h-46v50h58q31 0 47.5 -16.5t16.5 -47.5v-100q0 -21 6.5 -31t21.5 -10h16z" glyph-name="braceright" horiz-adv-x="230" unicode="}"/>
<glyph d="M119 236q19 0 34 -6t33 -17q16 -9 28.5 -14t26.5 -5q28 0 51 38l37 -29q-34 -59 -88 -59q-19 0 -34 6t-33 17q-16 9 -28.5 14t-26.5 5q-28 0 -51 -37l-37 29q37 58 88 58z" glyph-name="asciitilde" unicode="~"/>
<glyph d="M51 222v78h78v-78h-78zM66 174h48l11 -254h-70z" glyph-name="exclamdown" horiz-adv-x="180" unicode="¡"/>
<glyph d="M229.5 106.5q16.5 14.5 24.5 36.5l55 -17q-11 -39 -42.5 -62.5t-74.5 -27.5v-36h-40v36q-57 8 -92 49.5t-35 104.5t35 104.5t92 49.5v36h40v-36q43 -4 74.5 -27.5t42.5 -62.5l-55 -18q-8 23 -24.5 37.5t-37.5 18.5v-204q21 4 37.5 18.5zM102 123q18 -27 50 -34v202 q-32 -7 -50 -34t-18 -67t18 -67z" glyph-name="cent" horiz-adv-x="328" unicode="¢"/>
<glyph d="M338 85q-2 -46 -21.5 -68t-57.5 -22q-30 0 -54 12.5t-54 35.5q-13 -22 -33 -35t-43 -13q-30 0 -48.5 17.5t-18.5 45.5q0 30 20 47t52 17q20 0 38 -6q-3 26 -15 55h-72v38h52q-20 38 -20 72q0 48 33.5 76t89.5 28q53 0 86 -27.5t40 -73.5l-55 -15q-5 32 -23.5 49t-48.5 17 q-28 0 -46 -15.5t-18 -41.5q0 -16 5.5 -31.5t16.5 -37.5h99v-38h-83q11 -31 11 -57q0 -9 -2 -25q8 -5 25.5 -17.5t31.5 -18.5t26 -6q16 0 23 11.5t9 34.5zM114 70q-19 11 -36 11q-14 0 -21.5 -6t-7.5 -17q0 -10 8 -15.5t19 -5.5q28 0 38 33z" glyph-name="sterling" unicode="£"/>
<glyph d="M275 127l53 -53l-32 -32l-53 53q-28 -19 -63 -19q-34 0 -63 19l-53 -53l-32 32l53 53q-19 29 -19 63q0 35 19 63l-53 53l32 32l53 -53q29 19 63 19q35 0 63 -19l53 53l32 -32l-53 -53q19 -28 19 -63q0 -34 -19 -63zM134.5 144.5q18.5 -18.5 45.5 -18.5t45.5 18.5 t18.5 45.5t-18.5 45.5t-45.5 18.5t-45.5 -18.5t-18.5 -45.5t18.5 -45.5z" glyph-name="currency" unicode="¤"/>
<glyph d="M367 380l-126 -193h58v-38h-82v-42h82v-38h-82v-69h-63v69h-74v38h74v42h-74v38h50l-126 193h72l110 -171l109 171h72z" glyph-name="yen" horiz-adv-x="378" unicode="¥"/>
<glyph d="M57 400h57v-180h-57v180zM114 -60h-57v180h57v-180z" glyph-name="brokenbar" horiz-adv-x="171" unicode="¦"/>
<glyph d="M272 20q0 -38 -33.5 -61.5t-88.5 -23.5q-38 0 -72 11.5t-60 34.5l32 42q19 -19 45.5 -28t55.5 -9q26 0 45.5 8t19.5 28q0 18 -18.5 27t-60.5 20q-56 15 -85 34.5t-29 58.5q0 26 17.5 44.5t46.5 27.5q-26 10 -39.5 26t-13.5 41q0 39 32 61.5t87 22.5q61 0 112 -37l-31 -45 q-37 31 -85 31q-24 0 -41 -8t-17 -27q0 -17 17 -25.5t55 -18.5q36 -9 59.5 -18t40.5 -27.5t17 -48.5q0 -27 -16.5 -45.5t-42.5 -26.5q51 -21 51 -69zM106.5 129q26.5 -11 55.5 -11q25 0 43.5 9.5t18.5 29.5q0 23 -26.5 34t-55.5 11q-24 0 -43 -9.5t-19 -29.5q0 -23 26.5 -34 z" glyph-name="section" horiz-adv-x="302" unicode="§"/>
<glyph d="M16 402h65v-60h-65v60zM119 402h65v-60h-65v60z" glyph-name="dieresis" horiz-adv-x="160" unicode="¨"/>
<glyph d="M122.5 20q-44.5 25 -69.5 69.5t-25 100.5t25 100.5t69.5 69.5t100.5 25t100.5 -25t69.5 -69.5t25 -100.5t-25 -100.5t-69.5 -69.5t-100.5 -25t-100.5 25zM335 76.5q44 44.5 44 113.5t-44 113.5t-112 44.5t-112.5 -44.5t-44.5 -113.5t44.5 -113.5t112.5 -44.5t112 44.5z M151.5 113.5q-28.5 29.5 -28.5 76.5t28.5 76.5t74.5 29.5q33 0 57.5 -16.5t33.5 -45.5l-47 -17q-13 33 -44 33q-24 0 -37.5 -16t-13.5 -44t13.5 -44t37.5 -16q31 0 44 33l47 -17q-9 -29 -33.5 -45.5t-57.5 -16.5q-46 0 -74.5 29.5z" glyph-name="copyright" horiz-adv-x="446" unicode="©"/>
<glyph d="M158 286v-65l-71 -50l71 -50v-67l-123 86v60zM293 286v-65l-71 -50l71 -50v-67l-123 86v60z" glyph-name="guillemotleft" horiz-adv-x="338" unicode="«"/>
<glyph d="M316 215v-162h-52v112h-220v50h272z" glyph-name="logicalnot" unicode="¬"/>
<glyph d="M210 357q28 -28 28 -72q0 -43 -28 -71.5t-72 -28.5q-43 0 -71.5 28.5t-28.5 71.5q0 44 28.5 72t71.5 28q44 0 72 -28zM191.5 231q21.5 21 21.5 54t-21.5 54t-53.5 21t-53 -21t-21 -54t21 -54t53 -21t53.5 21zM182 260h1v-25h-13q-10 0 -15.5 5.5t-5.5 15.5v5q0 8 -8 8 h-17v-34h-27v102h47q16 0 26.5 -9t10.5 -23q0 -18 -14 -24q10 -3 10 -15v-1q0 -5 5 -5zM124 311v-17h17q12 0 12 9q0 8 -12 8h-17z" glyph-name="registered" horiz-adv-x="276" unicode="®"/>
<glyph d="M18 400h164v-46h-164v46z" glyph-name="macron" horiz-adv-x="160" unicode="¯"/>
<glyph d="M54.5 243.5q-24.5 24.5 -24.5 58.5q0 35 24 59t59 24q36 0 60.5 -24t24.5 -59t-24.5 -59t-60.5 -24q-34 0 -58.5 24.5zM144.5 271q12.5 12 12.5 31q0 18 -12.5 30.5t-31.5 12.5q-17 0 -29.5 -12.5t-12.5 -30.5t12.5 -30.5t29.5 -12.5q19 0 31.5 12z" glyph-name="degree" horiz-adv-x="228" unicode="°"/>
<glyph d="M316 239v-50h-110v-111h-52v111h-110v50h110v111h52v-111h110zM44 47h272v-50h-272v50z" glyph-name="plusminus" unicode="±"/>
<glyph d="M210 278v-42h-181v33l85 63q43 33 43 60q0 14 -10.5 22.5t-28.5 8.5q-20 0 -32 -11t-13 -31l-44 6q2 35 26.5 55.5t64.5 20.5q38 0 61 -18t23 -48q0 -22 -16 -43.5t-56 -51.5l-31 -24h109z" glyph-name="uni00B2" horiz-adv-x="234" unicode="²"/>
<glyph d="M186.5 354q18.5 -18 18.5 -45q0 -32 -26.5 -54t-65.5 -22q-32 0 -57.5 14t-36.5 38l35 22q8 -16 23.5 -25t35.5 -9q21 0 33.5 10t12.5 26q0 17 -11 26t-29 9q-14 0 -26 -6l-20 23l61 57h-103v42h166v-34l-60 -52q31 -2 49.5 -20z" glyph-name="uni00B3" horiz-adv-x="234" unicode="³"/>
<glyph d="M111 401h72l-59 -73h-43z" glyph-name="acute" horiz-adv-x="160" unicode="´"/>
<glyph d="M219 -100h-62v280h-7q-53 0 -84 27t-31 73t31 73t84 27h69v-480zM267 380h62v-480h-62v480z" glyph-name="paragraph" horiz-adv-x="386" unicode="¶"/>
<glyph d="M41 209h78v-78h-78v78z" glyph-name="periodcentered" horiz-adv-x="160" unicode="·"/>
<glyph d="M160 -32.5q14 -11.5 14 -30.5q0 -21 -19 -34t-50 -13q-37 0 -65 20l19 30q23 -17 46 -17q13 0 20 4t7 11q0 6 -6 9.5t-14 3.5q-11 0 -21 -5l-27 15l24 42h40l-15 -25q4 1 11 1q22 0 36 -11.5z" glyph-name="cedilla" horiz-adv-x="160" unicode="¸"/>
<glyph d="M89 236v147h-61v39h15q32 0 44 8t14 30h35v-224h-47z" glyph-name="uni00B9" horiz-adv-x="190" unicode="¹"/>
<glyph d="M45 219v67l123 -86v-60l-123 -86v65l71 50zM180 286l123 -86v-60l-123 -86v65l71 50l-71 50v67z" glyph-name="guillemotright" horiz-adv-x="338" unicode="»"/>
<glyph d="M89 156v147h-61v39h15q32 0 44 8t14 30h35v-224h-47zM313 380h47l-241 -380h-47zM429 91v-40h-37v-51h-44v51h-121v37l109 136h56v-133h37zM276 91h72v90z" glyph-name="onequarter" horiz-adv-x="444" unicode="¼"/>
<glyph d="M89 156v147h-61v39h15q32 0 44 8t14 30h35v-224h-47zM297 380h47l-241 -380h-47zM420 42v-42h-181v33l85 63q43 33 43 60q0 14 -10.5 22.5t-28.5 8.5q-20 0 -32 -11t-13 -31l-44 6q2 35 26.5 55.5t64.5 20.5q38 0 61 -18t23 -48q0 -22 -16 -43.5t-56 -51.5l-31 -24h109z " glyph-name="onehalf" horiz-adv-x="444" unicode="½"/>
<glyph d="M186.5 274q18.5 -18 18.5 -45q0 -32 -26.5 -54t-65.5 -22q-32 0 -57.5 14t-36.5 38l35 22q8 -16 23.5 -25t35.5 -9q21 0 33.5 10t12.5 26q0 17 -11 26t-29 9q-14 0 -26 -6l-20 23l61 57h-103v42h166v-34l-60 -52q31 -2 49.5 -20zM357 380h47l-241 -380h-47zM473 91v-40 h-37v-51h-44v51h-121v37l109 136h56v-133h37zM320 91h72v90z" glyph-name="threequarters" horiz-adv-x="488" unicode="¾"/>
<glyph d="M118 300h78v-78h-78v78zM176.5 137q-9.5 -17 -40.5 -42q-27 -22 -36 -35.5t-9 -32.5q0 -29 17 -45t47 -16q34 0 55 22t25 60l56 -11q-5 -56 -42.5 -89t-95.5 -33q-55 0 -89 30t-34 78q0 30 14.5 53.5t48.5 48.5q22 17 31.5 29t9.5 24v4h50q2 -28 -7.5 -45z" glyph-name="questiondown" horiz-adv-x="310" unicode="¿"/>
<glyph d="M323 0l-34 88h-182l-34 -88h-66l153 380h77l153 -380h-67zM129 144h138l-69 178zM175 408l-59 73h72l30 -73h-43z" glyph-name="Agrave" horiz-adv-x="397" unicode="À"/>
<glyph d="M323 0l-34 88h-182l-34 -88h-66l153 380h77l153 -380h-67zM129 144h138l-69 178zM210 481h72l-59 -73h-43z" glyph-name="Aacute" horiz-adv-x="397" unicode="Á"/>
<glyph d="M323 0l-34 88h-182l-34 -88h-66l153 380h77l153 -380h-67zM129 144h138l-69 178zM291 408h-54l-37 38l-37 -38h-53l59 73h63z" glyph-name="Acircumflex" horiz-adv-x="397" unicode="Â"/>
<glyph d="M323 0l-34 88h-182l-34 -88h-66l153 380h77l153 -380h-67zM129 144h138l-69 178zM269.5 427.5q-15.5 -12.5 -35.5 -12.5q-17 0 -41 15q-16 10 -24 10q-16 0 -26 -24l-36 20q8 23 24 35.5t35 12.5q17 0 41 -15q16 -10 24 -10q16 0 26 24l37 -19q-9 -24 -24.5 -36.5z" glyph-name="Atilde" horiz-adv-x="397" unicode="Ã"/>
<glyph d="M323 0l-34 88h-182l-34 -88h-66l153 380h77l153 -380h-67zM129 144h138l-69 178zM115 482h65v-60h-65v60zM218 482h65v-60h-65v60z" glyph-name="Adieresis" horiz-adv-x="397" unicode="Ä"/>
<glyph d="M289 88h-182l-34 -88h-66l152 377q-27 17 -27 53q0 29 19 47.5t48 18.5t48 -18.5t19 -47.5q0 -34 -27 -54l151 -376h-67zM178 451q-8 -8 -8 -21t8 -21t21 -8t21 8t8 21t-8 21t-21 8t-21 -8zM129 144h138l-69 178z" glyph-name="Aring" horiz-adv-x="397" unicode="Å"/>
<glyph d="M339 57h135v-57h-180l-32 90h-160l-32 -90h-63l141 380h321v-57h-229l38 -101h151v-54h-131zM121 143h121l-60 169z" glyph-name="AE" horiz-adv-x="494" unicode="Æ"/>
<glyph d="M309 127l59 -20q-15 -47 -51.5 -76.5t-88.5 -34.5l-11 -18q4 1 11 1q22 0 36 -11.5t14 -30.5q0 -21 -19 -34t-50 -13q-37 0 -65 20l19 30q23 -17 46 -17q13 0 20 4t7 11q0 6 -6 9.5t-14 3.5q-11 0 -21 -5l-27 15l20 35q-73 7 -116.5 59t-43.5 135q0 57 23 101.5t64 69 t93 24.5q59 0 101 -29t59 -83l-59 -20q-23 77 -101 77q-52 0 -83.5 -38t-31.5 -102q0 -65 31 -102.5t84 -37.5q78 0 101 77z" glyph-name="Ccedilla" horiz-adv-x="387" unicode="Ç"/>
<glyph d="M120 57h204v-57h-267v380h262v-57h-199v-100h154v-56h-154v-110zM164 408l-59 73h72l30 -73h-43z" glyph-name="Egrave" horiz-adv-x="344" unicode="È"/>
<glyph d="M120 57h204v-57h-267v380h262v-57h-199v-100h154v-56h-154v-110zM199 481h72l-59 -73h-43z" glyph-name="Eacute" horiz-adv-x="344" unicode="É"/>
<glyph d="M120 57h204v-57h-267v380h262v-57h-199v-100h154v-56h-154v-110zM280 408h-54l-37 38l-37 -38h-53l59 73h63z" glyph-name="Ecircumflex" horiz-adv-x="344" unicode="Ê"/>
<glyph d="M120 57h204v-57h-267v380h262v-57h-199v-100h154v-56h-154v-110zM104 482h65v-60h-65v60zM207 482h65v-60h-65v60z" glyph-name="Edieresis" horiz-adv-x="344" unicode="Ë"/>
<glyph d="M57 380h63v-380h-63v380zM65 408l-59 73h72l30 -73h-43z" glyph-name="Igrave" horiz-adv-x="177" unicode="Ì"/>
<glyph d="M57 380h63v-380h-63v380zM100 481h72l-59 -73h-43z" glyph-name="Iacute" horiz-adv-x="177" unicode="Í"/>
<glyph d="M57 380h63v-380h-63v380zM181 408h-54l-37 38l-37 -38h-53l59 73h63z" glyph-name="Icircumflex" horiz-adv-x="177" unicode="Î"/>
<glyph d="M57 380h63v-380h-63v380zM5 482h65v-60h-65v60zM108 482h65v-60h-65v60z" glyph-name="Idieresis" horiz-adv-x="177" unicode="Ï"/>
<glyph d="M334.5 329q49.5 -51 49.5 -139q0 -85 -50.5 -137.5t-137.5 -52.5h-139v171h-38v48h38v161h139q89 0 138.5 -51zM286 91.5q33 36.5 33 98.5t-33 98.5t-91 36.5h-75v-106h70v-48h-70v-116h75q58 0 91 36.5z" glyph-name="Eth" horiz-adv-x="412" unicode="Ð"/>
<glyph d="M315 380h60v-380h-61l-197 279v-279h-60v380h62l196 -279v279zM288.5 427.5q-15.5 -12.5 -35.5 -12.5q-17 0 -41 15q-16 10 -24 10q-16 0 -26 -24l-36 20q8 23 24 35.5t35 12.5q17 0 41 -15q16 -10 24 -10q16 0 26 24l37 -19q-9 -24 -24.5 -36.5z" glyph-name="Ntilde" horiz-adv-x="432" unicode="Ñ"/>
<glyph d="M78 48.5q-50 53.5 -50 141.5q0 57 23 101.5t65 69t95 24.5q83 0 133 -53t50 -142q0 -57 -23 -101.5t-65 -69t-95 -24.5q-83 0 -133 53.5zM296.5 88.5q32.5 37.5 32.5 101.5t-32.5 101.5t-85.5 37.5q-54 0 -86 -37.5t-32 -101.5t32 -101.5t86 -37.5q53 0 85.5 37.5z M187 408l-59 73h72l30 -73h-43z" glyph-name="Ograve" horiz-adv-x="422" unicode="Ò"/>
<glyph d="M78 48.5q-50 53.5 -50 141.5q0 57 23 101.5t65 69t95 24.5q83 0 133 -53t50 -142q0 -57 -23 -101.5t-65 -69t-95 -24.5q-83 0 -133 53.5zM296.5 88.5q32.5 37.5 32.5 101.5t-32.5 101.5t-85.5 37.5q-54 0 -86 -37.5t-32 -101.5t32 -101.5t86 -37.5q53 0 85.5 37.5z M222 481h72l-59 -73h-43z" glyph-name="Oacute" horiz-adv-x="422" unicode="Ó"/>
<glyph d="M78 48.5q-50 53.5 -50 141.5q0 57 23 101.5t65 69t95 24.5q83 0 133 -53t50 -142q0 -57 -23 -101.5t-65 -69t-95 -24.5q-83 0 -133 53.5zM296.5 88.5q32.5 37.5 32.5 101.5t-32.5 101.5t-85.5 37.5q-54 0 -86 -37.5t-32 -101.5t32 -101.5t86 -37.5q53 0 85.5 37.5z M303 408h-54l-37 38l-37 -38h-53l59 73h63z" glyph-name="Ocircumflex" horiz-adv-x="422" unicode="Ô"/>
<glyph d="M78 48.5q-50 53.5 -50 141.5q0 57 23 101.5t65 69t95 24.5q83 0 133 -53t50 -142q0 -57 -23 -101.5t-65 -69t-95 -24.5q-83 0 -133 53.5zM296.5 88.5q32.5 37.5 32.5 101.5t-32.5 101.5t-85.5 37.5q-54 0 -86 -37.5t-32 -101.5t32 -101.5t86 -37.5q53 0 85.5 37.5z M281.5 427.5q-15.5 -12.5 -35.5 -12.5q-17 0 -41 15q-16 10 -24 10q-16 0 -26 -24l-36 20q8 23 24 35.5t35 12.5q17 0 41 -15q16 -10 24 -10q16 0 26 24l37 -19q-9 -24 -24.5 -36.5z" glyph-name="Otilde" horiz-adv-x="422" unicode="Õ"/>
<glyph d="M78 48.5q-50 53.5 -50 141.5q0 57 23 101.5t65 69t95 24.5q83 0 133 -53t50 -142q0 -57 -23 -101.5t-65 -69t-95 -24.5q-83 0 -133 53.5zM296.5 88.5q32.5 37.5 32.5 101.5t-32.5 101.5t-85.5 37.5q-54 0 -86 -37.5t-32 -101.5t32 -101.5t86 -37.5q53 0 85.5 37.5z M127 482h65v-60h-65v60zM230 482h65v-60h-65v60z" glyph-name="Odieresis" horiz-adv-x="422" unicode="Ö"/>
<glyph d="M305 279l-89 -89l89 -89l-36 -36l-89 89l-89 -89l-36 36l89 89l-89 89l36 36l89 -89l89 89z" glyph-name="multiply" unicode="×"/>
<glyph d="M394 190q0 -57 -23 -101.5t-65 -69t-95 -24.5q-57 0 -102 28l-21 -28h-59l45 58q-46 54 -46 137q0 57 23 101.5t65 69t95 24.5q59 0 101 -27l21 27h59l-44 -57q46 -54 46 -138zM114 104l161 207q-27 18 -64 18q-54 0 -86 -37.5t-32 -101.5q0 -51 21 -86zM296.5 88.5 q32.5 37.5 32.5 101.5q0 51 -22 86l-161 -206q28 -19 65 -19q53 0 85.5 37.5z" glyph-name="Oslash" horiz-adv-x="422" unicode="Ø"/>
<glyph d="M95 37q-43 42 -43 113v230h63v-229q0 -46 26 -73t71 -27t70.5 26.5t25.5 73.5v229h64v-230q0 -71 -43 -113t-117 -42t-117 42zM188 408l-59 73h72l30 -73h-43z" glyph-name="Ugrave" horiz-adv-x="424" unicode="Ù"/>
<glyph d="M95 37q-43 42 -43 113v230h63v-229q0 -46 26 -73t71 -27t70.5 26.5t25.5 73.5v229h64v-230q0 -71 -43 -113t-117 -42t-117 42zM223 481h72l-59 -73h-43z" glyph-name="Uacute" horiz-adv-x="424" unicode="Ú"/>
<glyph d="M95 37q-43 42 -43 113v230h63v-229q0 -46 26 -73t71 -27t70.5 26.5t25.5 73.5v229h64v-230q0 -71 -43 -113t-117 -42t-117 42zM304 408h-54l-37 38l-37 -38h-53l59 73h63z" glyph-name="Ucircumflex" horiz-adv-x="424" unicode="Û"/>
<glyph d="M95 37q-43 42 -43 113v230h63v-229q0 -46 26 -73t71 -27t70.5 26.5t25.5 73.5v229h64v-230q0 -71 -43 -113t-117 -42t-117 42zM128 482h65v-60h-65v60zM231 482h65v-60h-65v60z" glyph-name="Udieresis" horiz-adv-x="424" unicode="Ü"/>
<glyph d="M365 380l-106 -289q-34 -96 -114 -96q-43 0 -69 25.5t-26 66.5q0 24 9.5 44.5t27.5 33.5h41l-119 215h71l113 -215h31l74 215h67zM177.5 59q12.5 11 21.5 35l8 23h-88q-11 -13 -11 -29q0 -19 10.5 -29.5t28.5 -10.5t30.5 11zM198 481h72l-59 -73h-43z" glyph-name="Yacute" horiz-adv-x="382" unicode="Ý"/>
<glyph d="M314.5 280.5q36.5 -31.5 36.5 -85.5t-36.5 -85.5t-98.5 -31.5h-96v-78h-63v380h63v-68h96q62 0 98.5 -31.5zM287 194q0 31 -19.5 47.5t-58.5 16.5h-89v-128h89q78 0 78 64z" glyph-name="Thorn" horiz-adv-x="374" unicode="Þ"/>
<glyph d="M195 5q-29 10 -51 28l31 42q34 -31 84 -31q24 0 37.5 8t13.5 23q0 12 -13 20t-46 18q-51 16 -70.5 31.5t-19.5 46.5q0 29 17 44.5t47 29.5q23 10 33.5 18t10.5 22q0 23 -20.5 37t-55.5 14q-43 0 -64.5 -18t-21.5 -53v-285h-60v287q0 55 39 87.5t106 32.5q60 0 98.5 -27 t38.5 -68q0 -36 -20.5 -55t-54.5 -32q-20 -8 -29 -14.5t-9 -18.5q0 -9 10.5 -15t39.5 -13q53 -15 77.5 -34t24.5 -53q0 -37 -30.5 -59.5t-80.5 -22.5q-33 0 -62 10z" glyph-name="germandbls" horiz-adv-x="383" unicode="ß"/>
<glyph d="M302 52v-52q-6 -2 -21 -2q-28 0 -41.5 11t-16.5 36q-16 -23 -44 -36.5t-61 -13.5q-44 0 -71 24.5t-27 64.5q0 49 35 69t94 29q38 5 52.5 11t14.5 22q0 18 -17.5 29t-45.5 11q-25 0 -48.5 -10.5t-41.5 -29.5l-37 39q54 51 130 51q54 0 85 -26.5t31 -72.5v-135 q0 -19 19 -19h11zM188.5 65q25.5 21 25.5 49v39q-7 -5 -22.5 -8.5t-35.5 -6.5q-38 -6 -57.5 -15.5t-19.5 -35.5q0 -21 13 -32t36 -11q35 0 60.5 21zM132 328l-59 73h72l30 -73h-43z" glyph-name="agrave" horiz-adv-x="322" unicode="à"/>
<glyph d="M302 52v-52q-6 -2 -21 -2q-28 0 -41.5 11t-16.5 36q-16 -23 -44 -36.5t-61 -13.5q-44 0 -71 24.5t-27 64.5q0 49 35 69t94 29q38 5 52.5 11t14.5 22q0 18 -17.5 29t-45.5 11q-25 0 -48.5 -10.5t-41.5 -29.5l-37 39q54 51 130 51q54 0 85 -26.5t31 -72.5v-135 q0 -19 19 -19h11zM188.5 65q25.5 21 25.5 49v39q-7 -5 -22.5 -8.5t-35.5 -6.5q-38 -6 -57.5 -15.5t-19.5 -35.5q0 -21 13 -32t36 -11q35 0 60.5 21zM167 401h72l-59 -73h-43z" glyph-name="aacute" horiz-adv-x="322" unicode="á"/>
<glyph d="M302 52v-52q-6 -2 -21 -2q-28 0 -41.5 11t-16.5 36q-16 -23 -44 -36.5t-61 -13.5q-44 0 -71 24.5t-27 64.5q0 49 35 69t94 29q38 5 52.5 11t14.5 22q0 18 -17.5 29t-45.5 11q-25 0 -48.5 -10.5t-41.5 -29.5l-37 39q54 51 130 51q54 0 85 -26.5t31 -72.5v-135 q0 -19 19 -19h11zM188.5 65q25.5 21 25.5 49v39q-7 -5 -22.5 -8.5t-35.5 -6.5q-38 -6 -57.5 -15.5t-19.5 -35.5q0 -21 13 -32t36 -11q35 0 60.5 21zM248 328h-54l-37 38l-37 -38h-53l59 73h63z" glyph-name="acircumflex" horiz-adv-x="322" unicode="â"/>
<glyph d="M302 52v-52q-6 -2 -21 -2q-28 0 -41.5 11t-16.5 36q-16 -23 -44 -36.5t-61 -13.5q-44 0 -71 24.5t-27 64.5q0 49 35 69t94 29q38 5 52.5 11t14.5 22q0 18 -17.5 29t-45.5 11q-25 0 -48.5 -10.5t-41.5 -29.5l-37 39q54 51 130 51q54 0 85 -26.5t31 -72.5v-135 q0 -19 19 -19h11zM188.5 65q25.5 21 25.5 49v39q-7 -5 -22.5 -8.5t-35.5 -6.5q-38 -6 -57.5 -15.5t-19.5 -35.5q0 -21 13 -32t36 -11q35 0 60.5 21zM226.5 347.5q-15.5 -12.5 -35.5 -12.5q-17 0 -41 15q-16 10 -24 10q-16 0 -26 -24l-36 20q8 23 24 35.5t35 12.5 q17 0 41 -15q16 -10 24 -10q16 0 26 24l37 -19q-9 -24 -24.5 -36.5z" glyph-name="atilde" horiz-adv-x="322" unicode="ã"/>
<glyph d="M302 52v-52q-6 -2 -21 -2q-28 0 -41.5 11t-16.5 36q-16 -23 -44 -36.5t-61 -13.5q-44 0 -71 24.5t-27 64.5q0 49 35 69t94 29q38 5 52.5 11t14.5 22q0 18 -17.5 29t-45.5 11q-25 0 -48.5 -10.5t-41.5 -29.5l-37 39q54 51 130 51q54 0 85 -26.5t31 -72.5v-135 q0 -19 19 -19h11zM188.5 65q25.5 21 25.5 49v39q-7 -5 -22.5 -8.5t-35.5 -6.5q-38 -6 -57.5 -15.5t-19.5 -35.5q0 -21 13 -32t36 -11q35 0 60.5 21zM72 402h65v-60h-65v60zM175 402h65v-60h-65v60z" glyph-name="adieresis" horiz-adv-x="322" unicode="ä"/>
<glyph d="M302 52v-52q-6 -2 -21 -2q-28 0 -41.5 11t-16.5 36q-16 -23 -44 -36.5t-61 -13.5q-44 0 -71 24.5t-27 64.5q0 49 35 69t94 29q38 5 52.5 11t14.5 22q0 18 -17.5 29t-45.5 11q-25 0 -48.5 -10.5t-41.5 -29.5l-37 39q54 51 130 51q54 0 85 -26.5t31 -72.5v-135 q0 -19 19 -19h11zM188.5 65q25.5 21 25.5 49v39q-7 -5 -22.5 -8.5t-35.5 -6.5q-38 -6 -57.5 -15.5t-19.5 -35.5q0 -21 13 -32t36 -11q35 0 60.5 21zM108 347q-19 19 -19 47q0 29 19 47.5t48 18.5t48 -18.5t19 -47.5q0 -28 -19 -47t-48 -19t-48 19zM177 373q8 8 8 21t-8 21 t-21 8t-21 -8t-8 -21t8 -21t21 -8t21 8z" glyph-name="aring" horiz-adv-x="322" unicode="å"/>
<glyph d="M299 69q23 -23 60 -23q56 0 84 38l39 -36q-19 -24 -50 -38.5t-73 -14.5q-40 0 -69.5 16.5t-46.5 46.5q-16 -27 -44.5 -45t-68.5 -18q-48 0 -77.5 24.5t-29.5 64.5q0 82 124 97q8 1 33.5 4.5t32 9.5t6.5 18q0 17 -17.5 29.5t-44.5 12.5q-53 0 -91 -40l-37 39q53 51 127 51 q36 0 60.5 -13t35.5 -37q39 50 105 50q62 0 99 -42.5t37 -112.5q0 -12 -2 -18h-220q5 -40 28 -63zM299 233.5q-22 -21.5 -27 -58.5h159q-4 37 -24.5 58.5t-52.5 21.5q-33 0 -55 -21.5zM193 65.5q25 21.5 25 59.5v30q-10 -6 -31.5 -9.5t-29.5 -4.5q-41 -6 -59 -19t-18 -35 q0 -21 14 -32t39 -11q35 0 60 21.5z" glyph-name="ae" horiz-adv-x="516" unicode="æ"/>
<glyph d="M222.5 61q20.5 15 29.5 42l57 -18q-11 -38 -41.5 -61t-72.5 -28l-11 -18q4 1 11 1q22 0 36 -11.5t14 -30.5q0 -21 -19 -34t-50 -13q-37 0 -65 20l19 30q23 -17 46 -17q13 0 20 4t7 11q0 6 -6 9.5t-14 3.5q-11 0 -21 -5l-27 15l20 35q-59 7 -94.5 49t-35.5 105 q0 69 41.5 112t108.5 43q49 0 85 -24t49 -66l-57 -18q-10 27 -30 42t-47 15q-41 0 -65 -28.5t-24 -75.5t24 -75.5t65 -28.5q27 0 47.5 15z" glyph-name="ccedilla" horiz-adv-x="326" unicode="ç"/>
<glyph d="M114.5 68.5q24.5 -22.5 63.5 -22.5q59 0 89 39l41 -36q-45 -54 -129 -54q-73 0 -113.5 43t-40.5 112t41 112t108 43q65 0 104.5 -42.5t39.5 -112.5q0 -12 -2 -19h-231q5 -40 29.5 -62.5zM116 234.5q-23 -20.5 -30 -57.5h171q-6 37 -28 57.5t-55 20.5q-35 0 -58 -20.5z M147 328l-59 73h72l30 -73h-43z" glyph-name="egrave" horiz-adv-x="341" unicode="è"/>
<glyph d="M114.5 68.5q24.5 -22.5 63.5 -22.5q59 0 89 39l41 -36q-45 -54 -129 -54q-73 0 -113.5 43t-40.5 112t41 112t108 43q65 0 104.5 -42.5t39.5 -112.5q0 -12 -2 -19h-231q5 -40 29.5 -62.5zM116 234.5q-23 -20.5 -30 -57.5h171q-6 37 -28 57.5t-55 20.5q-35 0 -58 -20.5z M182 401h72l-59 -73h-43z" glyph-name="eacute" horiz-adv-x="341" unicode="é"/>
<glyph d="M114.5 68.5q24.5 -22.5 63.5 -22.5q59 0 89 39l41 -36q-45 -54 -129 -54q-73 0 -113.5 43t-40.5 112t41 112t108 43q65 0 104.5 -42.5t39.5 -112.5q0 -12 -2 -19h-231q5 -40 29.5 -62.5zM116 234.5q-23 -20.5 -30 -57.5h171q-6 37 -28 57.5t-55 20.5q-35 0 -58 -20.5z M263 328h-54l-37 38l-37 -38h-53l59 73h63z" glyph-name="ecircumflex" horiz-adv-x="341" unicode="ê"/>
<glyph d="M114.5 68.5q24.5 -22.5 63.5 -22.5q59 0 89 39l41 -36q-45 -54 -129 -54q-73 0 -113.5 43t-40.5 112t41 112t108 43q65 0 104.5 -42.5t39.5 -112.5q0 -12 -2 -19h-231q5 -40 29.5 -62.5zM116 234.5q-23 -20.5 -30 -57.5h171q-6 37 -28 57.5t-55 20.5q-35 0 -58 -20.5z M87 402h65v-60h-65v60zM190 402h65v-60h-65v60z" glyph-name="edieresis" horiz-adv-x="341" unicode="ë"/>
<glyph d="M52 300h60v-300h-60v300zM58 328l-59 73h72l30 -73h-43z" glyph-name="igrave" horiz-adv-x="164" unicode="ì"/>
<glyph d="M52 300h60v-300h-60v300zM93 401h72l-59 -73h-43z" glyph-name="iacute" horiz-adv-x="164" unicode="í"/>
<glyph d="M52 300h60v-300h-60v300zM174 328h-54l-37 38l-37 -38h-53l59 73h63z" glyph-name="icircumflex" horiz-adv-x="164" unicode="î"/>
<glyph d="M52 300h60v-300h-60v300zM-2 402h65v-60h-65v60zM101 402h65v-60h-65v60z" glyph-name="idieresis" horiz-adv-x="164" unicode="ï"/>
<glyph d="M291.5 269.5q21.5 -49.5 21.5 -111.5q0 -75 -40 -119t-106 -44q-65 0 -103.5 39.5t-38.5 105.5q0 63 37 103.5t94 40.5q23 0 44.5 -8t37.5 -23q-16 44 -55 75l-60 -33l-21 34l43 24q-19 9 -40 17l24 43q36 -12 67 -32l59 32l21 -34l-45 -25q39 -35 60.5 -84.5zM229 71 q23 26 23 68t-23 68t-60 26q-38 0 -60.5 -25.5t-22.5 -68.5q0 -42 22.5 -68t60.5 -26q37 0 60 26z" glyph-name="eth" horiz-adv-x="342" unicode="ð"/>
<glyph d="M287.5 273q30.5 -32 30.5 -83v-190h-60v174q0 38 -17.5 59t-48.5 21q-36 0 -60.5 -23t-24.5 -58v-173h-60v300h52l4 -47q18 24 45.5 38t60.5 14q48 0 78.5 -32zM251.5 347.5q-15.5 -12.5 -35.5 -12.5q-17 0 -41 15q-16 10 -24 10q-16 0 -26 -24l-36 20q8 23 24 35.5 t35 12.5q17 0 41 -15q16 -10 24 -10q16 0 26 24l37 -19q-9 -24 -24.5 -36.5z" glyph-name="ntilde" unicode="ñ"/>
<glyph d="M66.5 37.5q-41.5 42.5 -41.5 112.5q0 69 42 112t110 43q69 0 110.5 -42.5t41.5 -112.5q0 -69 -42 -112t-110 -43q-69 0 -110.5 42.5zM243 74.5q25 28.5 25 75.5t-25 75.5t-66 28.5t-66 -28.5t-25 -75.5t25 -75.5t66 -28.5t66 28.5zM153 328l-59 73h72l30 -73h-43z" glyph-name="ograve" horiz-adv-x="354" unicode="ò"/>
<glyph d="M66.5 37.5q-41.5 42.5 -41.5 112.5q0 69 42 112t110 43q69 0 110.5 -42.5t41.5 -112.5q0 -69 -42 -112t-110 -43q-69 0 -110.5 42.5zM243 74.5q25 28.5 25 75.5t-25 75.5t-66 28.5t-66 -28.5t-25 -75.5t25 -75.5t66 -28.5t66 28.5zM188 401h72l-59 -73h-43z" glyph-name="oacute" horiz-adv-x="354" unicode="ó"/>
<glyph d="M66.5 37.5q-41.5 42.5 -41.5 112.5q0 69 42 112t110 43q69 0 110.5 -42.5t41.5 -112.5q0 -69 -42 -112t-110 -43q-69 0 -110.5 42.5zM243 74.5q25 28.5 25 75.5t-25 75.5t-66 28.5t-66 -28.5t-25 -75.5t25 -75.5t66 -28.5t66 28.5zM269 328h-54l-37 38l-37 -38h-53l59 73 h63z" glyph-name="ocircumflex" horiz-adv-x="354" unicode="ô"/>
<glyph d="M66.5 37.5q-41.5 42.5 -41.5 112.5q0 69 42 112t110 43q69 0 110.5 -42.5t41.5 -112.5q0 -69 -42 -112t-110 -43q-69 0 -110.5 42.5zM243 74.5q25 28.5 25 75.5t-25 75.5t-66 28.5t-66 -28.5t-25 -75.5t25 -75.5t66 -28.5t66 28.5zM247.5 347.5q-15.5 -12.5 -35.5 -12.5 q-17 0 -41 15q-16 10 -24 10q-16 0 -26 -24l-36 20q8 23 24 35.5t35 12.5q17 0 41 -15q16 -10 24 -10q16 0 26 24l37 -19q-9 -24 -24.5 -36.5z" glyph-name="otilde" horiz-adv-x="354" unicode="õ"/>
<glyph d="M66.5 37.5q-41.5 42.5 -41.5 112.5q0 69 42 112t110 43q69 0 110.5 -42.5t41.5 -112.5q0 -69 -42 -112t-110 -43q-69 0 -110.5 42.5zM243 74.5q25 28.5 25 75.5t-25 75.5t-66 28.5t-66 -28.5t-25 -75.5t25 -75.5t66 -28.5t66 28.5zM93 402h65v-60h-65v60zM196 402h65v-60 h-65v60z" glyph-name="odieresis" horiz-adv-x="354" unicode="ö"/>
<glyph d="M44 215h272v-50h-272v50zM147 328h66v-60h-66v60zM147 112h66v-60h-66v60z" glyph-name="divide" unicode="÷"/>
<glyph d="M329 150q0 -69 -42 -112t-110 -43q-45 0 -81 19l-15 -19h-53l36 45q-39 42 -39 110q0 69 42 112t110 43q47 0 82 -20l16 20h53l-37 -46q38 -43 38 -109zM102 87l122 154q-19 13 -47 13q-41 0 -66 -28.5t-25 -75.5q0 -36 16 -63zM243 74.5q25 28.5 25 75.5q0 37 -15 61 l-122 -153q20 -12 46 -12q41 0 66 28.5z" glyph-name="oslash" horiz-adv-x="354" unicode="ø"/>
<glyph d="M313 300v-300h-52l-4 47q-18 -24 -45.5 -38t-60.5 -14q-48 0 -78.5 32t-30.5 83v190h60v-174q0 -38 17.5 -59t48.5 -21q36 0 60.5 23t24.5 58v173h60zM154 328l-59 73h72l30 -73h-43z" glyph-name="ugrave" unicode="ù"/>
<glyph d="M313 300v-300h-52l-4 47q-18 -24 -45.5 -38t-60.5 -14q-48 0 -78.5 32t-30.5 83v190h60v-174q0 -38 17.5 -59t48.5 -21q36 0 60.5 23t24.5 58v173h60zM189 401h72l-59 -73h-43z" glyph-name="uacute" unicode="ú"/>
<glyph d="M313 300v-300h-52l-4 47q-18 -24 -45.5 -38t-60.5 -14q-48 0 -78.5 32t-30.5 83v190h60v-174q0 -38 17.5 -59t48.5 -21q36 0 60.5 23t24.5 58v173h60zM270 328h-54l-37 38l-37 -38h-53l59 73h63z" glyph-name="ucircumflex" unicode="û"/>
<glyph d="M313 300v-300h-52l-4 47q-18 -24 -45.5 -38t-60.5 -14q-48 0 -78.5 32t-30.5 83v190h60v-174q0 -38 17.5 -59t48.5 -21q36 0 60.5 23t24.5 58v173h60zM94 402h65v-60h-65v60zM197 402h65v-60h-65v60z" glyph-name="udieresis" unicode="ü"/>
<glyph d="M321 300l-100 -296q-19 -57 -45 -83t-64 -26t-61.5 23.5t-23.5 62.5q0 41 30 71h43l-97 248h65l88 -248h24l77 248h64zM155 -14l6 18h-74q-7 -10 -7 -24q0 -16 9 -25.5t24 -9.5q28 0 42 41zM176 401h72l-59 -73h-43z" glyph-name="yacute" horiz-adv-x="328" unicode="ý"/>
<glyph d="M301 262.5q36 -42.5 36 -112.5q0 -69 -36.5 -112t-94.5 -43q-31 0 -56.5 11.5t-42.5 33.5v-140h-60v500h60v-142q38 47 99 47q59 0 95 -42.5zM252.5 74.5q23.5 28.5 23.5 75.5t-23.5 75.5t-62.5 28.5q-40 0 -63.5 -28.5t-23.5 -75.5t23.5 -75.5t63.5 -28.5 q39 0 62.5 28.5z" glyph-name="thorn" horiz-adv-x="362" unicode="þ"/>
<glyph d="M52 300h60v-300h-60v300z" glyph-name="dotlessi" horiz-adv-x="164" unicode="ı"/>
<glyph d="M0 -100v54q8 -1 23 -1q30 0 30 30v317h60v-317q0 -85 -83 -85q-12 0 -30 2z" glyph-name="uni0237" horiz-adv-x="160" unicode="ȷ"/>
<glyph d="M-204 328l-59 73h72l30 -73h-43z" glyph-name="gravecomb" horiz-adv-x="0" unicode="̀"/>
<glyph d="M-169 401h72l-59 -73h-43z" glyph-name="acutecomb" horiz-adv-x="0" unicode="́"/>
<glyph d="M-88 328h-54l-37 38l-37 -38h-53l59 73h63z" glyph-name="uni0302" horiz-adv-x="0" unicode="̂"/>
<glyph d="M-109.5 347.5q-15.5 -12.5 -35.5 -12.5q-17 0 -41 15q-16 10 -24 10q-16 0 -26 -24l-36 20q8 23 24 35.5t35 12.5q17 0 41 -15q16 -10 24 -10q16 0 26 24l37 -19q-9 -24 -24.5 -36.5z" glyph-name="tildecomb" horiz-adv-x="0" unicode="̃"/>
<glyph d="M-262 400h164v-46h-164v46z" glyph-name="uni0304" horiz-adv-x="0" unicode="̄"/>
<glyph d="M-213 402h66v-60h-66v60z" glyph-name="uni0307" horiz-adv-x="0" unicode="̇"/>
<glyph d="M-264 402h65v-60h-65v60zM-161 402h65v-60h-65v60z" glyph-name="uni0308" horiz-adv-x="0" unicode="̈"/>
<glyph d="M-228 347q-19 19 -19 47q0 29 19 47.5t48 18.5t48 -18.5t19 -47.5q0 -28 -19 -47t-48 -19t-48 19zM-159 373q8 8 8 21t-8 21t-21 8t-21 -8t-8 -21t8 -21t21 -8t21 8z" glyph-name="uni030A" horiz-adv-x="0" unicode="̊"/>
<glyph d="M-120 -32.5q14 -11.5 14 -30.5q0 -21 -19 -34t-50 -13q-37 0 -65 20l19 30q23 -17 46 -17q13 0 20 4t7 11q0 6 -6 9.5t-14 3.5q-11 0 -21 -5l-27 15l24 42h40l-15 -25q4 1 11 1q22 0 36 -11.5z" glyph-name="uni0327" horiz-adv-x="0" unicode="̧"/>
<glyph d="M236 415l-58 -73h-43l29 73h72zM64 402h64v-60h-64v60zM232 402h64v-60h-64v60z" glyph-name="dieresistonos" unicode="΅"/>
<glyph d="M120 57h204v-57h-267v380h262v-57h-199v-100h154v-56h-154v-110zM104 482h65v-60h-65v60zM207 482h65v-60h-65v60z" glyph-name="uni0401" horiz-adv-x="344" unicode="Ё"/>
<glyph d="M311 127l58 -21q-17 -52 -59.5 -81.5t-101.5 -29.5q-82 0 -131 53t-49 142q0 57 22.5 101.5t63.5 69t94 24.5q60 0 102 -28.5t59 -82.5l-58 -21q-25 77 -103 77q-46 0 -76.5 -29t-38.5 -79h153v-54h-154q5 -56 36 -87t80 -31q78 0 103 77z" glyph-name="uni0404" horiz-adv-x="387" unicode="Є"/>
<glyph d="M57 380h63v-380h-63v380z" glyph-name="uni0406" horiz-adv-x="177" unicode="І"/>
<glyph d="M57 380h63v-380h-63v380zM5 482h65v-60h-65v60zM108 482h65v-60h-65v60z" glyph-name="uni0407" horiz-adv-x="177" unicode="Ї"/>
<glyph d="M365 380l-106 -289q-34 -96 -114 -96q-43 0 -69 25.5t-26 66.5q0 24 9.5 44.5t27.5 33.5h41l-119 215h71l113 -215h31l74 215h67zM177.5 59q12.5 11 21.5 35l8 23h-88q-11 -13 -11 -29q0 -19 10.5 -29.5t28.5 -10.5t30.5 11zM124 427q-24 19 -28 52l47 8q2 -19 13.5 -29 t30.5 -10t30.5 10t13.5 29l47 -8q-4 -33 -28 -52t-63 -19t-63 19z" glyph-name="uni040E" horiz-adv-x="382" unicode="Ў"/>
<glyph d="M323 0l-34 88h-182l-34 -88h-66l153 380h77l153 -380h-67zM129 144h138l-69 178z" glyph-name="uni0410" horiz-adv-x="397" unicode="А"/>
<glyph d="M317 200q36 -31 36 -84t-36 -84.5t-98 -31.5h-162v380h265v-56h-202v-93h99q62 0 98 -31zM288 116q0 63 -77 63h-91v-125h91q77 0 77 62z" glyph-name="uni0411" horiz-adv-x="377" unicode="Б"/>
<glyph d="M338.5 158.5q14.5 -23.5 14.5 -54.5q0 -48 -32.5 -76t-88.5 -28h-175v380h170q55 0 87 -27.5t32 -73.5q0 -56 -48 -85q26 -12 40.5 -35.5zM118 326v-105h100q66 0 66 53q0 52 -66 52h-100zM272.5 68q17.5 14 17.5 43q0 57 -71 57h-101v-114h101q36 0 53.5 14z" glyph-name="uni0412" horiz-adv-x="381" unicode="В"/>
<glyph d="M311 380v-58h-191v-322h-63v380h254z" glyph-name="uni0413" horiz-adv-x="322" unicode="Г"/>
<glyph d="M407 -80h-61v80h-268v-80h-62v138h40q12 47 12 153v169h295v-322h44v-138zM300 58v264h-170v-111q0 -84 -12 -153h182z" glyph-name="uni0414" horiz-adv-x="426" unicode="Д"/>
<glyph d="M120 57h204v-57h-267v380h262v-57h-199v-100h154v-56h-154v-110z" glyph-name="uni0415" horiz-adv-x="344" unicode="Е"/>
<glyph d="M527 58v-58h-32q-30 0 -46.5 17t-16.5 48v101h-124v-166h-63v166h-125v-101q0 -31 -16.5 -48t-46.5 -17h-31v58h12q9 0 14 5.5t5 13.5v146h72l-100 157h69l96 -157h51v157h63v-157h51l95 157h69l-99 -157h72v-146q0 -8 5 -13.5t13 -5.5h13z" glyph-name="uni0416" horiz-adv-x="552" unicode="Ж"/>
<glyph d="M307.5 161.5q16.5 -22.5 16.5 -54.5q0 -51 -41 -81.5t-109 -30.5q-56 0 -97.5 25.5t-59.5 68.5l54 28q12 -31 39.5 -48.5t64.5 -17.5q40 0 63.5 16.5t23.5 45.5q0 26 -20.5 40.5t-56.5 14.5h-50v53h51q28 0 45 13.5t17 36.5q0 27 -19.5 43t-54.5 16t-60 -17t-37 -48 l-57 22q18 45 59.5 71.5t95.5 26.5q63 0 100 -29t37 -78q0 -58 -52 -83q31 -11 47.5 -33.5z" glyph-name="uni0417" horiz-adv-x="348" unicode="З"/>
<glyph d="M313 380h62v-380h-62v285l-195 -285h-61v380h63v-282z" glyph-name="uni0418" horiz-adv-x="432" unicode="И"/>
<glyph d="M313 380h62v-380h-62v285l-195 -285h-61v380h63v-282zM153 427q-24 19 -28 52l47 8q2 -19 13.5 -29t30.5 -10t30.5 10t13.5 29l47 -8q-4 -33 -28 -52t-63 -19t-63 19z" glyph-name="uni0419" horiz-adv-x="432" unicode="Й"/>
<glyph d="M366 58v-58h-31q-30 0 -46.5 17t-16.5 48v101h-152v-166h-63v380h63v-157h76l96 157h71l-102 -157h74v-146q0 -8 5 -13.5t14 -5.5h12z" glyph-name="uni041A" horiz-adv-x="392" unicode="К"/>
<glyph d="M372 0h-64v322h-161v-118q0 -81 -6.5 -124t-25 -62t-55.5 -19q-21 0 -37 1v60h18q20 0 28.5 8t12 38t3.5 101v173h287v-380z" glyph-name="uni041B" horiz-adv-x="429" unicode="Л"/>
<glyph d="M481 380v-380h-61v308l-116 -308h-69l-117 309v-309h-61v380h97l116 -306l115 306h96z" glyph-name="uni041C" horiz-adv-x="538" unicode="М"/>
<glyph d="M310 380h63v-380h-63v166h-190v-166h-63v380h63v-156h190v156z" glyph-name="uni041D" horiz-adv-x="430" unicode="Н"/>
<glyph d="M78 48.5q-50 53.5 -50 141.5q0 57 23 101.5t65 69t95 24.5q83 0 133 -53t50 -142q0 -57 -23 -101.5t-65 -69t-95 -24.5q-83 0 -133 53.5zM296.5 88.5q32.5 37.5 32.5 101.5t-32.5 101.5t-85.5 37.5q-54 0 -86 -37.5t-32 -101.5t32 -101.5t86 -37.5q53 0 85.5 37.5z" glyph-name="uni041E" horiz-adv-x="422" unicode="О"/>
<glyph d="M373 380v-380h-63v322h-190v-322h-63v380h316z" glyph-name="uni041F" horiz-adv-x="430" unicode="П"/>
<glyph d="M314.5 348.5q36.5 -31.5 36.5 -85.5q0 -55 -36.5 -86.5t-98.5 -31.5h-96v-145h-63v380h159q62 0 98.5 -31.5zM287 262q0 63 -79 63h-88v-126h88q79 0 79 63z" glyph-name="uni0420" horiz-adv-x="370" unicode="Р"/>
<glyph d="M77.5 48.5q-49.5 53.5 -49.5 141.5q0 57 23 101.5t64 69t93 24.5q59 0 101 -29t59 -83l-59 -20q-23 77 -101 77q-52 0 -83.5 -38t-31.5 -102q0 -65 31 -102.5t84 -37.5q78 0 101 77l59 -20q-17 -52 -59 -82t-101 -30q-81 0 -130.5 53.5z" glyph-name="uni0421" horiz-adv-x="387" unicode="С"/>
<glyph d="M344 380v-58h-135v-322h-64v322h-135v58h334z" glyph-name="uni0422" horiz-adv-x="354" unicode="Т"/>
<glyph d="M365 380l-106 -289q-34 -96 -114 -96q-43 0 -69 25.5t-26 66.5q0 24 9.5 44.5t27.5 33.5h41l-119 215h71l113 -215h31l74 215h67zM177.5 59q12.5 11 21.5 35l8 23h-88q-11 -13 -11 -29q0 -19 10.5 -29.5t28.5 -10.5t30.5 11z" glyph-name="uni0423" horiz-adv-x="382" unicode="У"/>
<glyph d="M423 304.5q44 -40.5 44 -109.5q0 -67 -44.5 -108.5t-123.5 -41.5h-22v-51h-63v51h-23q-79 0 -123 40.5t-44 109.5q0 67 44.5 108.5t122.5 41.5h23v41h63v-41h22q80 0 124 -40.5zM214 99v192h-21q-50 0 -77.5 -25t-27.5 -71q0 -96 105 -96h21zM376.5 124q27.5 25 27.5 71 q0 96 -106 96h-21v-192h21q51 0 78.5 25z" glyph-name="uni0424" horiz-adv-x="491" unicode="Ф"/>
<glyph d="M369 0h-74l-107 150l-106 -150h-73l142 194l-133 186h74l98 -139l99 139h71l-132 -184z" glyph-name="uni0425" horiz-adv-x="378" unicode="Х"/>
<glyph d="M365 58h44v-138h-60v80h-292v380h63v-322h182v322h63v-322z" glyph-name="uni0426" horiz-adv-x="429" unicode="Ц"/>
<glyph d="M339 380v-380h-64v150h-106q-65 0 -99 30t-34 88v112h63v-109q0 -33 18.5 -48.5t56.5 -15.5h101v173h64z" glyph-name="uni0427" horiz-adv-x="396" unicode="Ч"/>
<glyph d="M479 380h62v-380h-484v380h63v-322h147v322h64v-322h148v322z" glyph-name="uni0428" horiz-adv-x="599" unicode="Ш"/>
<glyph d="M586 58v-138h-61v80h-468v380h63v-322h147v322h64v-322h148v322h62v-322h45z" glyph-name="uni0429" horiz-adv-x="605" unicode="Щ"/>
<glyph d="M368.5 203.5q36.5 -31.5 36.5 -86.5q0 -54 -36.5 -85.5t-99.5 -31.5h-160v322h-99v58h162v-145h97q63 0 99.5 -31.5zM341 118q0 63 -78 63h-91v-126h91q78 0 78 63z" glyph-name="uni042A" horiz-adv-x="428" unicode="Ъ"/>
<glyph d="M316.5 203.5q36.5 -31.5 36.5 -86.5q0 -54 -36.5 -85.5t-99.5 -31.5h-160v380h63v-145h97q63 0 99.5 -31.5zM289 118q0 63 -78 63h-91v-126h91q78 0 78 63zM414 380h63v-380h-63v380z" glyph-name="uni042B" horiz-adv-x="534" unicode="Ы"/>
<glyph d="M316.5 203.5q36.5 -31.5 36.5 -86.5q0 -54 -36.5 -85.5t-99.5 -31.5h-160v380h63v-145h97q63 0 99.5 -31.5zM289 118q0 63 -78 63h-91v-126h91q78 0 78 63z" glyph-name="uni042C" horiz-adv-x="376" unicode="Ь"/>
<glyph d="M306 332q49 -53 49 -142q0 -57 -22.5 -101.5t-63.5 -69t-94 -24.5q-58 0 -101 30t-60 81l58 21q11 -37 37.5 -57t64.5 -20q49 0 80.5 31.5t36.5 86.5h-154v54h153q-7 51 -38 79.5t-78 28.5q-38 0 -64.5 -20t-37.5 -57l-58 21q18 53 61 82t100 29q82 0 131 -53z" glyph-name="uni042D" horiz-adv-x="383" unicode="Э"/>
<glyph d="M498.5 331.5q48.5 -53.5 48.5 -141.5q0 -57 -22.5 -101.5t-62.5 -69t-92 -24.5q-75 0 -122 46.5t-54 124.5h-74v-166h-63v380h63v-156h75q10 73 57.5 117t117.5 44q80 0 128.5 -53.5zM452 88q30 38 30 102t-30 102t-82 38t-82 -38t-30 -102t30 -102t82 -38t82 38z" glyph-name="uni042E" horiz-adv-x="575" unicode="Ю"/>
<glyph d="M334 0h-63v147h-154v-82q0 -31 -16.5 -48t-46.5 -17h-32v58h13q8 0 13.5 5.5t5.5 13.5v103h52q-30 12 -47 35.5t-17 55.5q0 50 36 79.5t97 29.5h159v-380zM104 263q0 -63 79 -63h88v125h-88q-79 0 -79 -62z" glyph-name="uni042F" horiz-adv-x="391" unicode="Я"/>
<glyph d="M302 52v-52q-6 -2 -21 -2q-28 0 -41.5 11t-16.5 36q-16 -23 -44 -36.5t-61 -13.5q-44 0 -71 24.5t-27 64.5q0 49 35 69t94 29q38 5 52.5 11t14.5 22q0 18 -17.5 29t-45.5 11q-25 0 -48.5 -10.5t-41.5 -29.5l-37 39q54 51 130 51q54 0 85 -26.5t31 -72.5v-135 q0 -19 19 -19h11zM188.5 65q25.5 21 25.5 49v39q-7 -5 -22.5 -8.5t-35.5 -6.5q-38 -6 -57.5 -15.5t-19.5 -35.5q0 -21 13 -32t36 -11q35 0 60.5 21z" glyph-name="uni0430" horiz-adv-x="322" unicode="а"/>
<glyph d="M281 34q-41 -39 -105 -39q-67 0 -107 46.5t-40 125.5q0 87 32.5 134t101.5 62l71 15q16 3 19 20l2 9l57 -11l-1 -9q-4 -48 -58 -62l-88 -18q-39 -8 -58.5 -29t-23.5 -57q16 23 44.5 35.5t64.5 12.5q56 0 92.5 -38t36.5 -97q1 -61 -40 -100zM236.5 70q22.5 24 22.5 63 q0 41 -22.5 65t-60.5 24t-61 -23t-23 -63t23.5 -65t60.5 -25q38 0 60.5 24z" glyph-name="uni0431" horiz-adv-x="343" unicode="б"/>
<glyph d="M296 81q0 -39 -27.5 -60t-76.5 -21h-145v300h134q51 0 79 -19.5t28 -58.5q0 -49 -43 -68q51 -19 51 -73zM104 176h77q25 0 36.5 9t11.5 30q0 18 -12 28t-33 10h-80v-77zM222.5 59q13.5 11 13.5 30q0 20 -14 31t-39 11h-79v-83h82q23 0 36.5 11z" glyph-name="uni0432" horiz-adv-x="323" unicode="в"/>
<glyph d="M263 300v-56h-156v-244h-60v300h216z" glyph-name="uni0433" horiz-adv-x="273" unicode="г"/>
<glyph d="M347 54v-124h-57v70h-216v-70h-57v124h35q9 36 9 121v125h246v-246h40zM248 53v194h-129v-75q0 -74 -9 -119h138z" glyph-name="uni0434" horiz-adv-x="366" unicode="д"/>
<glyph d="M114.5 68.5q24.5 -22.5 63.5 -22.5q59 0 89 39l41 -36q-45 -54 -129 -54q-73 0 -113.5 43t-40.5 112t41 112t108 43q65 0 104.5 -42.5t39.5 -112.5q0 -12 -2 -19h-231q5 -40 29.5 -62.5zM116 234.5q-23 -20.5 -30 -57.5h171q-6 37 -28 57.5t-55 20.5q-35 0 -58 -20.5z " glyph-name="uni0435" horiz-adv-x="341" unicode="е"/>
<glyph d="M451 53v-53h-28q-27 0 -42 14.5t-15 41.5v69h-99v-125h-60v125h-98v-69q0 -27 -15 -41.5t-42 -14.5h-28v53h11q7 0 11 4t4 11v109h54l-77 123h64l72 -120h44v220h60v-220h44l73 120h64l-77 -123h53v-109q0 -7 4 -11t11 -4h12z" glyph-name="uni0436" horiz-adv-x="475" unicode="ж"/>
<glyph d="M253.5 128.5q13.5 -18.5 13.5 -44.5q0 -40 -35.5 -64.5t-92.5 -24.5q-46 0 -80 21t-49 59l50 22q11 -25 32 -38.5t48 -13.5q30 0 47.5 11.5t17.5 31.5q0 19 -15.5 30t-43.5 11h-38v47h36q24 0 37 10.5t13 28.5q0 20 -14 30.5t-39 10.5q-52 0 -72 -48l-49 26 q16 33 48.5 52t74.5 19q49 0 79 -23.5t31 -62.5q0 -44 -38 -64q25 -8 38.5 -26.5z" glyph-name="uni0437" horiz-adv-x="283" unicode="з"/>
<glyph d="M252 300h62v-300h-59v218l-147 -218h-61v300h59v-216z" glyph-name="uni0438" horiz-adv-x="361" unicode="и"/>
<glyph d="M252 300h62v-300h-59v218l-147 -218h-61v300h59v-216zM117 347q-24 19 -28 52l47 8q2 -19 13.5 -29t30.5 -10t30.5 10t13.5 29l47 -8q-4 -33 -28 -52t-63 -19t-63 19z" glyph-name="uni0439" horiz-adv-x="361" unicode="й"/>
<glyph d="M308 53v-53h-27q-28 0 -43 14t-15 42v69h-116v-125h-60v400h60v-219h61l71 119h64l-76 -122h55v-110q0 -7 4 -11t11 -4h11z" glyph-name="uni043A" horiz-adv-x="331" unicode="к"/>
<glyph d="M306 0h-60v246h-124v-108q0 -79 -18.5 -109.5t-62.5 -30.5q-14 0 -28 2v55h16q14 0 21 5.5t10 24t3 60.5v155h243v-300z" glyph-name="uni043B" horiz-adv-x="353" unicode="л"/>
<glyph d="M401 300v-300h-58v237l-87 -237h-64l-87 237v-237h-58v300h93l85 -233l85 233h91z" glyph-name="uni043C" horiz-adv-x="448" unicode="м"/>
<glyph d="M253 300h60v-300h-60v125h-146v-125h-60v300h60v-119h146v119z" glyph-name="uni043D" unicode="н"/>
<glyph d="M66.5 37.5q-41.5 42.5 -41.5 112.5q0 69 42 112t110 43q69 0 110.5 -42.5t41.5 -112.5q0 -69 -42 -112t-110 -43q-69 0 -110.5 42.5zM243 74.5q25 28.5 25 75.5t-25 75.5t-66 28.5t-66 -28.5t-25 -75.5t25 -75.5t66 -28.5t66 28.5z" glyph-name="uni043E" horiz-adv-x="354" unicode="о"/>
<glyph d="M313 300v-300h-60v246h-146v-246h-60v300h266z" glyph-name="uni043F" unicode="п"/>
<glyph d="M301 262.5q36 -42.5 36 -112.5q0 -69 -36.5 -112t-94.5 -43q-31 0 -56.5 11.5t-42.5 33.5v-140h-60v400h52l4 -48q18 26 44.5 39.5t58.5 13.5q59 0 95 -42.5zM252.5 74.5q23.5 28.5 23.5 75.5t-23.5 75.5t-62.5 28.5q-40 0 -63.5 -28.5t-23.5 -75.5t23.5 -75.5 t63.5 -28.5q39 0 62.5 28.5z" glyph-name="uni0440" horiz-adv-x="362" unicode="р"/>
<glyph d="M66.5 38q-41.5 43 -41.5 112t41.5 112t108.5 43q49 0 85 -24t49 -66l-57 -18q-10 27 -30 42t-47 15q-41 0 -65 -28.5t-24 -75.5t24 -75.5t65 -28.5q27 0 47.5 15t29.5 42l57 -18q-13 -42 -49 -66t-85 -24q-67 0 -108.5 43z" glyph-name="uni0441" horiz-adv-x="326" unicode="с"/>
<glyph d="M286 300v-54h-108v-246h-60v246h-108v54h276z" glyph-name="uni0442" horiz-adv-x="296" unicode="т"/>
<glyph d="M321 300l-100 -296q-19 -57 -45 -83t-64 -26t-61.5 23.5t-23.5 62.5q0 41 30 71h43l-97 248h65l88 -248h24l77 248h64zM155 -14l6 18h-74q-7 -10 -7 -24q0 -16 9 -25.5t24 -9.5q28 0 42 41z" glyph-name="uni0443" horiz-adv-x="328" unicode="у"/>
<glyph d="M459.5 261.5q32.5 -41.5 32.5 -111.5q0 -68 -33.5 -110.5t-85.5 -42.5q-55 0 -85 40v-137h-60v138q-30 -41 -84 -41t-86.5 41.5t-32.5 111.5q0 68 33 110.5t86 42.5q55 0 84 -38v135h60v-138q30 41 85 41q54 0 86.5 -41.5zM211.5 74.5q19.5 28.5 19.5 75.5t-19.5 75.5 t-52.5 28.5q-34 0 -53.5 -28.5t-19.5 -75.5t19.5 -75.5t53.5 -28.5q33 0 52.5 28.5zM411 74.5q20 28.5 20 75.5t-20 75.5t-53 28.5q-34 0 -53.5 -28.5t-19.5 -75.5t19.5 -75.5t53.5 -28.5q33 0 53 28.5z" glyph-name="uni0444" horiz-adv-x="516" unicode="ф"/>
<glyph d="M318 0h-72l-81 112l-81 -112h-71l114 153l-108 147h71l77 -105l78 105h68l-108 -147z" glyph-name="uni0445" horiz-adv-x="331" unicode="х"/>
<glyph d="M349 54v-124h-57v70h-245v300h60v-246h142v246h60v-246h40z" glyph-name="uni0446" horiz-adv-x="367" unicode="ц"/>
<glyph d="M283 300v-300h-60v112h-74q-58 0 -89.5 28t-31.5 77v83h60v-83q0 -26 14 -37.5t47 -11.5h74v132h60z" glyph-name="uni0447" horiz-adv-x="330" unicode="ч"/>
<glyph d="M395 300h60v-300h-408v300h60v-246h114v246h60v-246h114v246z" glyph-name="uni0448" horiz-adv-x="502" unicode="ш"/>
<glyph d="M494 54v-124h-57v70h-390v300h60v-246h114v246h60v-246h114v246h60v-246h39z" glyph-name="uni0449" horiz-adv-x="513" unicode="щ"/>
<glyph d="M313.5 162q29.5 -25 29.5 -68t-29.5 -68.5t-79.5 -25.5h-142v245h-82v55h142v-113h82q50 0 79.5 -25zM268 61.5q14 11.5 14 32.5t-14 32.5t-40 11.5h-76v-88h76q26 0 40 11.5z" glyph-name="uni044A" horiz-adv-x="361" unicode="ъ"/>
<glyph d="M268.5 162q29.5 -25 29.5 -68t-29.5 -68.5t-79.5 -25.5h-142v300h60v-113h82q50 0 79.5 -25zM223 61.5q14 11.5 14 32.5t-14 32.5t-40 11.5h-76v-88h76q26 0 40 11.5zM346 300h60v-300h-60v300z" glyph-name="uni044B" horiz-adv-x="453" unicode="ы"/>
<glyph d="M268.5 162q29.5 -25 29.5 -68t-29.5 -68.5t-79.5 -25.5h-142v300h60v-113h82q50 0 79.5 -25zM223 61.5q14 11.5 14 32.5t-14 32.5t-40 11.5h-76v-88h76q26 0 40 11.5z" glyph-name="uni044C" horiz-adv-x="316" unicode="ь"/>
<glyph d="M259.5 262q41.5 -43 41.5 -112t-41.5 -112t-107.5 -43q-49 0 -85.5 23.5t-49.5 64.5l54 18q10 -26 30.5 -40.5t49.5 -14.5q36 0 60 22.5t30 60.5h-128v48h127q-7 36 -30.5 56.5t-58.5 20.5q-29 0 -49.5 -14.5t-31.5 -40.5l-53 17q14 41 50.5 65t84.5 24q66 0 107.5 -43z " glyph-name="uni044D" horiz-adv-x="326" unicode="э"/>
<glyph d="M421 262.5q40 -42.5 40 -112.5q0 -69 -41 -112t-106 -43q-61 0 -99.5 35t-46.5 95h-61v-125h-60v300h60v-119h62q9 56 48 90t97 34q67 0 107 -42.5zM376 74q23 28 23 76t-23 76t-62 28q-40 0 -63.5 -28.5t-23.5 -75.5t23.5 -75.5t63.5 -28.5q39 0 62 28z" glyph-name="uni044E" horiz-adv-x="486" unicode="ю"/>
<glyph d="M285 0h-60v112h-117v-56q0 -28 -15 -42t-43 -14h-27v53h11q7 0 11 4t4 11v71h48q-26 9 -42.5 29t-16.5 45q0 39 28 63t75 24h144v-300zM113 239.5q-15 -12.5 -15 -33.5t17 -34t45 -13h65v93h-70q-27 0 -42 -12.5z" glyph-name="uni044F" horiz-adv-x="332" unicode="я"/>
<glyph d="M114.5 68.5q24.5 -22.5 63.5 -22.5q59 0 89 39l41 -36q-45 -54 -129 -54q-73 0 -113.5 43t-40.5 112t41 112t108 43q65 0 104.5 -42.5t39.5 -112.5q0 -12 -2 -19h-231q5 -40 29.5 -62.5zM116 234.5q-23 -20.5 -30 -57.5h171q-6 37 -28 57.5t-55 20.5q-35 0 -58 -20.5z M87 402h65v-60h-65v60zM190 402h65v-60h-65v60z" glyph-name="uni0451" horiz-adv-x="341" unicode="ё"/>
<glyph d="M224 61q21 15 31 41l55 -19q-13 -42 -49.5 -65t-85.5 -23q-67 0 -108.5 43t-41.5 112t41.5 112t108.5 43q49 0 85.5 -23t49.5 -65l-55 -19q-11 26 -31.5 41t-48.5 15q-36 0 -59 -20.5t-30 -56.5h127v-48h-128q5 -39 29 -61t61 -22q28 0 49 15z" glyph-name="uni0454" horiz-adv-x="326" unicode="є"/>
<glyph d="M52 300h60v-300h-60v300zM49 402h66v-60h-66v60z" glyph-name="uni0456" horiz-adv-x="164" unicode="і"/>
<glyph d="M52 300h60v-300h-60v300zM-2 402h65v-60h-65v60zM101 402h65v-60h-65v60z" glyph-name="uni0457" horiz-adv-x="164" unicode="ї"/>
<glyph d="M321 300l-100 -296q-19 -57 -45 -83t-64 -26t-61.5 23.5t-23.5 62.5q0 41 30 71h43l-97 248h65l88 -248h24l77 248h64zM155 -14l6 18h-74q-7 -10 -7 -24q0 -16 9 -25.5t24 -9.5q28 0 42 41zM102 347q-24 19 -28 52l47 8q2 -19 13.5 -29t30.5 -10t30.5 10t13.5 29l47 -8 q-4 -33 -28 -52t-63 -19t-63 19z" glyph-name="uni045E" horiz-adv-x="328" unicode="ў"/>
<glyph d="M250 460h61v-138h-191v-322h-63v380h193v80z" glyph-name="uni0490" horiz-adv-x="322" unicode="Ґ"/>
<glyph d="M206 380h57v-136h-156v-244h-60v300h159v80z" glyph-name="uni0491" horiz-adv-x="273" unicode="ґ"/>
<glyph d="M158 286v-65l-71 -50l71 -50v-67l-123 86v60z" glyph-name="guilsinglleft" horiz-adv-x="203" unicode="‹"/>
<glyph d="M107 380h47l-241 -380h-47z" glyph-name="fraction" horiz-adv-x="20" unicode="⁄"/>
<glyph d="M44 215h272v-50h-272v50z" glyph-name="minus" unicode="−"/>
<glyph d="M321 300l-100 -296q-19 -57 -45 -83t-64 -26t-61.5 23.5t-23.5 62.5q0 41 30 71h43l-97 248h65l88 -248h24l77 248h64zM155 -14l6 18h-74q-7 -10 -7 -24q0 -16 9 -25.5t24 -9.5q28 0 42 41z" glyph-name="uni0443.ss03" horiz-adv-x="328"/>
<glyph d="M69 48q-41 53 -41 142t41 142t111 53t111 -53t41 -142t-41 -142t-111 -53t-111 53zM246.5 85.5q24.5 38.5 24.5 104.5t-24.5 104.5t-66.5 38.5t-66.5 -38.5t-24.5 -104.5t24.5 -104.5t66.5 -38.5t66.5 38.5z" glyph-name="zero.tf"/>
<glyph d="M317 54v-54h-272v39l133 118q37 34 53 60.5t16 52.5q0 29 -18 46.5t-48 17.5q-34 0 -55 -21.5t-24 -62.5l-56 11q4 57 42 90.5t97 33.5q55 0 89 -30.5t34 -79.5q0 -39 -24 -74.5t-82 -85.5l-70 -61h185z" glyph-name="two.tf"/>
<glyph d="M281 201.5q32 -31.5 32 -80.5q0 -54 -39.5 -90t-100.5 -36q-50 0 -86.5 21.5t-53.5 61.5l46 27q27 -59 90 -59q40 0 62.5 20t22.5 55q0 31 -19 50.5t-50 19.5q-23 0 -42 -11l-29 32l111 114h-176v54h252v-44l-101 -103q49 0 81 -31.5z" glyph-name="three.tf"/>
<glyph d="M335 145v-51h-60v-94h-58v94h-187v48l172 238h73v-235h60zM92 145h125v173z" glyph-name="four.tf"/>
<glyph d="M275.5 217.5q36.5 -36.5 36.5 -91.5q0 -58 -40 -94.5t-104 -36.5q-44 0 -78.5 18.5t-52.5 51.5l41 32q13 -23 37 -37t53 -14q37 0 61 22.5t24 57.5q0 36 -22 58t-58 22q-50 0 -73 -39l-45 15l17 198h213v-55h-167l-8 -95q29 24 73 24q56 0 92.5 -36.5z" glyph-name="five.tf"/>
<glyph d="M294 210q36 -33 36 -88t-40.5 -91t-97.5 -36q-74 0 -112 54t-38 136q0 87 40 143.5t119 56.5q36 0 67 -13.5t51 -39.5l-40 -37q-27 39 -78 39q-55 0 -80 -41t-25 -102v-2q16 26 43.5 40t62.5 14q56 0 92 -33zM249 66q23 21 23 54q0 35 -22 55t-56 20q-35 0 -58.5 -20 t-23.5 -54t22.5 -55t57.5 -21q34 0 57 21z" glyph-name="six.tf"/>
<glyph d="M302.5 157q17.5 -24 17.5 -56q0 -48 -38 -77t-102 -29t-102 29t-38 77q0 32 17.5 56t49.5 37q-26 12 -41 34.5t-15 50.5q0 48 35 77t94 29t94 -29t35 -77q0 -28 -15 -50.5t-41 -34.5q32 -13 49.5 -37zM127.5 321q-19.5 -17 -19.5 -45t19.5 -45t52.5 -17t52.5 17t19.5 45 t-19.5 45t-52.5 17t-52.5 -17zM239 59.5q22 17.5 22 46.5q0 28 -22 45t-59 17t-59 -17t-22 -45q0 -29 22 -46.5t59 -17.5t59 17.5z" glyph-name="eight.tf"/>
<glyph d="M280 331q38 -54 38 -136q0 -87 -40 -143.5t-119 -56.5q-36 0 -67 13.5t-51 39.5l40 37q27 -39 78 -39q55 0 80 41t25 102v2q-16 -26 -43.5 -40t-62.5 -14q-56 0 -92 33t-36 88t40.5 91t97.5 36q74 0 112 -54zM224.5 205q23.5 20 23.5 54t-22.5 55t-57.5 21q-34 0 -57 -21 t-23 -54q0 -35 22 -55t56 -20q35 0 58.5 20z" glyph-name="nine.tf"/>
<glyph d="M89 0v147h-61v39h15q32 0 44 8t14 30h35v-224h-47z" glyph-name="one.dnom" horiz-adv-x="190"/>
<glyph d="M210 42v-42h-181v33l85 63q43 33 43 60q0 14 -10.5 22.5t-28.5 8.5q-20 0 -32 -11t-13 -31l-44 6q2 35 26.5 55.5t64.5 20.5q38 0 61 -18t23 -48q0 -22 -16 -43.5t-56 -51.5l-31 -24h109z" glyph-name="two.dnom" horiz-adv-x="234"/>
<glyph d="M186.5 118q18.5 -18 18.5 -45q0 -32 -26.5 -54t-65.5 -22q-32 0 -57.5 14t-36.5 38l35 22q8 -16 23.5 -25t35.5 -9q21 0 33.5 10t12.5 26q0 17 -11 26t-29 9q-14 0 -26 -6l-20 23l61 57h-103v42h166v-34l-60 -52q31 -2 49.5 -20z" glyph-name="three.dnom" horiz-adv-x="234"/>
<glyph d="M219 91v-40h-37v-51h-44v51h-121v37l109 136h56v-133h37zM66 91h72v90z" glyph-name="four.dnom" horiz-adv-x="234"/>
<glyph d="M89 156v147h-61v39h15q32 0 44 8t14 30h35v-224h-47z" glyph-name="one.numr" horiz-adv-x="190"/>
<glyph d="M186.5 274q18.5 -18 18.5 -45q0 -32 -26.5 -54t-65.5 -22q-32 0 -57.5 14t-36.5 38l35 22q8 -16 23.5 -25t35.5 -9q21 0 33.5 10t12.5 26q0 17 -11 26t-29 9q-14 0 -26 -6l-20 23l61 57h-103v42h166v-34l-60 -52q31 -2 49.5 -20z" glyph-name="three.numr" horiz-adv-x="234"/>
<glyph d="M-243 347q-24 19 -28 52l47 8q2 -19 13.5 -29t30.5 -10t30.5 10t13.5 29l47 -8q-4 -33 -28 -52t-63 -19t-63 19z" glyph-name="brevecombcy" horiz-adv-x="0"/>
</font>
</defs>
</svg>
