<?xml version="1.0" encoding="UTF-8"?>
<!DOCTYPE svg  PUBLIC '-//W3C//DTD SVG 1.1//EN'  'http://www.w3.org/Graphics/SVG/1.1/DTD/svg11.dtd'>
<svg version="1.1" xmlns="http://www.w3.org/2000/svg">
<defs>
<font id="e-UkraineHead-Medium" horiz-adv-x="360">
<font-face font-family="e-Ukraine Head Medium" font-weight="500" ascent="409" bbox="-20 -110 555 503" cap-height="380" descent="-103" panose-1="0 0 6 0 0 0 0 0 0 0" underline-position="-61" underline-thickness="38" unicode-range="U+0020-00FE" units-per-em="512" x-height="300"/>
<missing-glyph/>
<glyph glyph-name="space" horiz-adv-x="160" unicode=" "/>
<glyph d="M64 133l-11 247h82l-11 -247h-60zM50 0v88h88v-88h-88z" glyph-name="exclam" horiz-adv-x="189" unicode="!"/>
<glyph d="M35 237l-6 143h74l-7 -143h-61zM153 237l-6 143h74l-7 -143h-61z" glyph-name="quotedbl" horiz-adv-x="249" unicode='"'/>
<glyph d="M337 228h-59v-76h59v-68h-59v-84h-60v84h-76v-84h-60v84h-59v68h59v76h-59v68h59v84h60v-84h76v84h60v-84h59v-68zM218 152v76h-76v-76h76z" glyph-name="numbersign" unicode="#"/>
<glyph d="M326 111q0 -76 -77 -104q-24 -8 -52 -11v-40h-40v39q-83 5 -138 55l43 53q40 -35 95 -43v103q-86 26 -110 62q-14 22 -14 50q0 70 71 98q24 9 53 11v36h40v-36q67 -5 120 -46l-39 -54q-39 28 -81 36v-100q98 -26 120 -69q9 -18 9 -40zM103 278q0 -27 41 -42q6 -2 13 -4 v89q-53 -6 -54 -43zM197 60q55 7 56 45q0 24 -33 38q-10 4 -23 8v-91z" glyph-name="dollar" horiz-adv-x="355" unicode="$"/>
<glyph d="M130 155q-71 0 -95 63q-9 24 -9 52q0 79 58 106q21 9 46 9q71 0 95 -63q9 -24 9 -52q0 -79 -58 -106q-21 -9 -46 -9zM125 0l241 380h51l-241 -380h-51zM130 203q38 0 47 45q2 11 2 22q0 55 -36 65q-7 2 -13 2q-38 0 -47 -45q-2 -11 -2 -22q0 -55 36 -65q7 -2 13 -2z M413 -5q-71 0 -95 63q-9 24 -9 52q0 79 58 106q21 9 46 9q71 0 95 -63q9 -24 9 -52q0 -79 -58 -106q-21 -9 -46 -9zM413 43q38 0 47 45q2 11 2 22q0 55 -36 65q-7 2 -13 2q-38 0 -47 -45q-2 -11 -2 -22q0 -55 36 -65q7 -2 13 -2z" glyph-name="percent" horiz-adv-x="543" unicode="%"/>
<glyph d="M416 98l58 -14q-6 -79 -69 -88q-8 -1 -15 -1q-44 1 -98 41q-59 -41 -130 -41q-99 0 -130 62q-10 21 -10 46q2 72 90 105q-38 47 -38 85q0 56 56 81q26 11 58 11q80 0 108 -51q9 -17 9 -37q0 -58 -65 -95q-14 -7 -28 -13q52 -50 77 -71q33 42 42 96l65 -14 q-16 -71 -57 -122q31 -22 48 -22q24 2 29 42zM188 331q-35 0 -46 -30q-2 -8 -2 -15q1 -24 34 -58q62 23 63 62q0 32 -34 39q-7 2 -15 2zM167 55q40 1 76 22q-43 39 -90 88q-57 -20 -58 -62q0 -34 44 -45q14 -3 28 -3z" glyph-name="ampersand" horiz-adv-x="482" unicode="&amp;"/>
<glyph d="M35 237l-6 143h74l-7 -143h-61z" glyph-name="quotesingle" horiz-adv-x="132" unicode="'"/>
<glyph d="M188 -74q-96 47 -130 154q-14 44 -14 91q0 125 83 203q28 26 61 42l30 -40q-93 -78 -97 -205q0 -129 92 -203q3 -2 4 -3z" glyph-name="parenleft" horiz-adv-x="243" unicode="("/>
<glyph d="M59 -74l-29 39q93 78 96 206q0 129 -92 201q-3 2 -5 4l30 40q96 -47 130 -154q14 -44 14 -91q0 -125 -83 -203q-28 -26 -61 -42z" glyph-name="parenright" horiz-adv-x="230" unicode=")"/>
<glyph d="M224 310l-66 -21l41 -56l-35 -24l-40 55l-41 -55l-35 24l41 56l-66 22l13 41l66 -21v69h43v-69l66 21z" glyph-name="asterisk" horiz-adv-x="247" unicode="*"/>
<glyph d="M317 219v-58h-107v-108h-60v108h-107v58h107v108h60v-108h107z" glyph-name="plus" unicode="+"/>
<glyph d="M42 88h88v-75q-9 -81 -75 -87h-13v39h9q32 0 34 33v2h-43v88z" glyph-name="comma" horiz-adv-x="172" unicode=","/>
<glyph d="M35 136v68h179v-68h-179z" glyph-name="hyphen" horiz-adv-x="249" unicode="-"/>
<glyph d="M42 0v88h88v-88h-88z" glyph-name="period" horiz-adv-x="172" unicode="."/>
<glyph d="M-20 -20l222 420h66l-222 -420h-66z" glyph-name="slash" horiz-adv-x="248" unicode="/"/>
<glyph d="M180 -5q-93 0 -133 85q-22 47 -22 110q0 123 75 172q35 23 80 23q93 0 133 -85q22 -47 22 -110q0 -123 -75 -172q-35 -23 -80 -23zM180 55q57 0 75 74q7 27 7 61q0 104 -54 129q-13 6 -28 6q-57 0 -75 -74q-7 -27 -7 -61q0 -104 54 -129q13 -6 28 -6z" glyph-name="zero" unicode="0"/>
<glyph d="M106 0v256h-87v59h17q62 0 78 26q7 14 10 39h54v-380h-72z" glyph-name="one" horiz-adv-x="244" unicode="1"/>
<glyph d="M119 62h177v-62h-279v47l134 117q65 56 65 104q0 42 -38 54q-11 3 -22 3q-55 0 -67 -55q-3 -12 -3 -24l-68 11q5 83 75 115q31 13 68 13q81 -1 114 -57q14 -25 14 -54q0 -55 -55 -111q-21 -21 -56 -51z" glyph-name="two" horiz-adv-x="318" unicode="2"/>
<glyph d="M185 234q68 -4 95 -61q12 -24 12 -53q0 -69 -61 -104q-36 -21 -82 -21q-97 0 -137 72q-4 7 -7 14l54 32q29 -58 87 -59q60 0 73 46q3 11 3 22q0 47 -42 60q-11 3 -23 3q-22 0 -38 -9l-33 37l105 104h-169v63h256v-53z" glyph-name="three" horiz-adv-x="317" unicode="3"/>
<glyph d="M328 152v-62h-58v-90h-67v90h-187v59l167 231h87v-228h58zM88 152h115v158z" glyph-name="four" horiz-adv-x="338" unicode="4"/>
<glyph d="M169 252q71 0 108 -56q20 -32 20 -71q0 -76 -65 -111q-36 -19 -81 -19q-90 0 -132 64l-3 6l47 38q33 -44 86 -48q54 0 72 43q5 14 5 29q0 51 -45 67q-13 4 -28 4q-44 -1 -67 -34l-52 19l17 197h219v-65h-164l-7 -83q28 20 70 20z" glyph-name="five" horiz-adv-x="323" unicode="5"/>
<glyph d="M196 245q80 0 113 -59q15 -28 15 -63q0 -70 -60 -107q-36 -21 -79 -21q-101 0 -138 96q-16 42 -16 95q0 124 73 174q38 25 88 25q80 -1 121 -53l-48 -44q-26 36 -73 37q-73 0 -92 -82q-5 -22 -5 -45q35 46 101 47zM183 53q48 0 66 39q6 14 6 30q0 50 -44 64q-13 4 -26 4 q-52 0 -69 -40q-5 -14 -5 -28q0 -47 42 -63q14 -6 30 -6z" glyph-name="six" horiz-adv-x="341" unicode="6"/>
<glyph d="M12 380h277v-55q-97 -91 -122 -244q-6 -41 -6 -81h-72q0 141 77 259q21 32 45 56h-199v65z" glyph-name="seven" horiz-adv-x="297" unicode="7"/>
<glyph d="M249 195q64 -30 65 -92q0 -67 -69 -95q-33 -13 -75 -13q-97 0 -131 58q-13 23 -13 50q1 63 65 92q-53 28 -54 83q0 70 68 96q29 11 65 11q91 0 122 -59q11 -22 11 -48q-1 -56 -54 -83zM170 330q-53 0 -65 -39q-2 -9 -2 -17q0 -43 45 -53q11 -2 22 -2q54 0 65 39q2 8 2 16 q0 42 -43 53q-12 3 -24 3zM170 50q58 0 70 41q3 9 3 18q0 45 -51 55q-11 2 -22 2q-61 0 -71 -43q-2 -7 -2 -14q0 -45 48 -56q12 -3 25 -3z" glyph-name="eight" horiz-adv-x="340" unicode="8"/>
<glyph d="M156 385q101 0 138 -96q16 -42 16 -95q0 -124 -73 -174q-38 -25 -88 -25q-80 1 -121 53l48 44q26 -36 73 -37q73 0 92 82q5 22 5 45q-35 -46 -101 -47q-80 0 -113 59q-15 28 -15 63q0 70 60 107q36 21 79 21zM156 190q52 0 69 40q5 14 5 28q0 47 -42 63q-14 6 -30 6 q-48 0 -66 -39q-6 -14 -6 -30q0 -50 44 -64q13 -4 26 -4z" glyph-name="nine" horiz-adv-x="341" unicode="9"/>
<glyph d="M40 212v88h88v-88h-88zM40 0v88h88v-88h-88z" glyph-name="colon" horiz-adv-x="168" unicode=":"/>
<glyph d="M40 300h88v-88h-88v88zM40 0v88h88v-75q-9 -81 -75 -87h-13v39h9q32 0 34 33v2h-43z" glyph-name="semicolon" horiz-adv-x="168" unicode=";"/>
<glyph d="M317 328v-62l-189 -75l189 -75v-64l-274 110v56z" glyph-name="less" unicode="&lt;"/>
<glyph d="M43 231v58h274v-58h-274zM43 91v58h274v-58h-274z" glyph-name="equal" unicode="="/>
<glyph d="M43 328l274 -110v-56l-274 -110v62l189 75l-189 75v64z" glyph-name="greater" unicode="&gt;"/>
<glyph d="M123 128q-2 37 24 63q10 10 25 22q37 29 40 49q1 6 1 12q0 41 -41 50q-7 1 -15 1q-53 0 -69 -52q-3 -11 -4 -23l-67 12q7 79 75 110q30 13 66 13q81 0 113 -54q14 -24 14 -52q0 -53 -55 -94q-3 -2 -4 -3q-40 -29 -41 -51v-3h-62zM112 0v88h88v-88h-88z" glyph-name="question" horiz-adv-x="316" unicode="?"/>
<glyph d="M405 62h12v-62q-12 -2 -26 -1q-52 0 -60 43q-1 2 -1 3q-38 -46 -100 -49q-65 0 -90 48q-9 18 -9 39q0 72 99 93l22 4q56 7 62 14q3 4 3 9q0 28 -42 42q-22 7 -48 7q-89 0 -127 -69q-19 -35 -19 -80q0 -98 77 -136q35 -16 79 -16q53 1 92 26l24 -47q-53 -30 -116 -30 q-122 0 -178 85q-33 50 -33 118q0 106 78 163q54 39 127 39q93 0 135 -58q22 -30 22 -67v-100q2 -17 17 -18zM240 52q48 0 70 35q8 14 8 29v32q-14 -6 -54 -13q-58 -9 -65 -34q-2 -6 -2 -12q0 -32 34 -36q5 -1 9 -1z" glyph-name="at" horiz-adv-x="436" unicode="@"/>
<glyph d="M318 0l-30 80h-172l-30 -80h-80l150 380h94l150 -380h-82zM141 147h122l-61 165z" glyph-name="A" horiz-adv-x="406" unicode="A"/>
<glyph d="M301 194q55 -28 56 -90q0 -72 -69 -96q-26 -8 -57 -8h-178v380h175q88 0 114 -60q8 -19 8 -41q-1 -58 -49 -85zM216 317h-89v-92h89q58 2 59 46q-2 45 -59 46zM217 63q63 2 64 50q-2 50 -64 51h-90v-101h90z" glyph-name="B" horiz-adv-x="383" unicode="B"/>
<glyph d="M209 -5q-105 0 -154 82q-29 48 -29 113q0 109 75 162q46 33 108 33q108 0 150 -83q7 -14 12 -28l-72 -25q-23 70 -91 71q-67 0 -93 -65q-11 -29 -11 -65q0 -92 60 -121q20 -9 44 -9q69 2 91 71l72 -25q-24 -80 -106 -104q-27 -7 -56 -7z" glyph-name="C" horiz-adv-x="389" unicode="C"/>
<glyph d="M198 380q125 0 170 -94q20 -42 20 -96q0 -110 -79 -160q-47 -30 -111 -30h-145v380h145zM196 65q84 0 107 76q6 23 6 49q0 95 -70 118q-20 7 -43 7h-66v-250h66z" glyph-name="D" horiz-adv-x="414" unicode="D"/>
<glyph d="M129 68h199v-68h-275v380h270v-68h-194v-84h149v-66h-149v-94z" glyph-name="E" horiz-adv-x="348" unicode="E"/>
<glyph d="M323 312h-193v-90h148v-65h-148v-157h-77v380h270v-68z" glyph-name="F" horiz-adv-x="335" unicode="F"/>
<glyph d="M221 196h163v-196h-57l-5 54q-43 -58 -120 -59q-101 0 -148 81q-28 48 -28 113q0 111 79 164q48 32 112 32q105 0 150 -79q7 -11 11 -22l-71 -26q-24 61 -92 62q-74 0 -100 -68q-11 -28 -11 -62q0 -94 63 -121q20 -9 44 -9q65 0 92 56q6 12 9 25h-91v55z" glyph-name="G" horiz-adv-x="420" unicode="G"/>
<glyph d="M300 380h77v-380h-77v160h-170v-160h-77v380h77v-150h170v150z" glyph-name="H" horiz-adv-x="430" unicode="H"/>
<glyph d="M53 0v380h77v-380h-77z" glyph-name="I" horiz-adv-x="183" unicode="I"/>
<glyph d="M116 -5q-77 0 -109 65q-6 11 -9 22l63 25q11 -45 53 -46q42 0 49 42q1 7 1 14v263h77v-261q0 -82 -65 -112q-27 -12 -60 -12z" glyph-name="J" horiz-adv-x="289" unicode="J"/>
<glyph d="M360 70h13v-70h-39q-65 8 -69 69v90h-135v-159h-77v380h77v-153h65l92 153h85l-99 -153h69v-139q2 -17 18 -18z" glyph-name="K" horiz-adv-x="396" unicode="K"/>
<glyph d="M130 70h192v-70h-269v380h77v-310z" glyph-name="L" horiz-adv-x="337" unicode="L"/>
<glyph d="M494 380v-380h-75v283l-105 -283h-80l-106 286v-286h-75v380h115l106 -288l107 288h113z" glyph-name="M" horiz-adv-x="548" unicode="M"/>
<glyph d="M307 380h74v-380h-72l-182 257v-257h-74v380h74l180 -256v256z" glyph-name="N" horiz-adv-x="434" unicode="N"/>
<glyph d="M212 -5q-107 0 -157 82q-29 48 -29 113q0 109 76 162q47 33 110 33q108 0 158 -82q29 -48 29 -113q0 -109 -77 -162q-47 -33 -110 -33zM212 62q69 0 96 64q12 29 12 64q0 85 -58 116q-23 12 -50 12q-69 0 -96 -64q-12 -29 -12 -64q0 -85 58 -116q23 -12 50 -12z" glyph-name="O" horiz-adv-x="424" unicode="O"/>
<glyph d="M214 380q99 0 130 -68q11 -24 11 -52q0 -83 -76 -110q-29 -10 -65 -10h-84v-140h-77v380h161zM205 202q71 2 72 56q-2 56 -72 57h-75v-113h75z" glyph-name="P" horiz-adv-x="373" unicode="P"/>
<glyph d="M399 190q0 -108 -76 -162q-32 -23 -73 -30v-15q2 -25 29 -26q10 0 26 1h21v-58q-33 -2 -52 -2q-81 0 -91 65q-2 11 -2 23v11q-97 13 -136 99q-19 42 -19 94q0 109 76 162q47 33 110 33q108 0 158 -82q29 -48 29 -113zM104 190q0 -85 58 -116q23 -12 50 -12q69 0 96 64 q12 29 12 64q0 85 -58 116q-23 12 -50 12q-69 0 -96 -64q-12 -29 -12 -64z" glyph-name="Q" horiz-adv-x="424" unicode="Q"/>
<glyph d="M363 70h13v-70h-39q-61 0 -68 56q-1 7 -1 13v74h-138v-143h-77v380h170q99 0 127 -64q9 -20 9 -43q0 -62 -61 -90q-7 -3 -13 -5h60v-90q2 -17 18 -18zM212 316h-82v-112h82q70 2 71 56q-2 55 -71 56z" glyph-name="R" horiz-adv-x="394" unicode="R"/>
<glyph d="M175 -5q-99 1 -160 55l43 58q49 -47 120 -47q69 6 74 44q0 22 -35 36q-14 4 -44 13q-89 25 -118 55q-25 27 -25 65q0 73 75 99q33 12 74 12q79 -1 142 -45l-42 -58q-44 36 -104 36q-58 0 -68 -31q-1 -5 -1 -9q0 -25 47 -41q15 -5 37 -11q96 -25 123 -62q17 -23 17 -53 q0 -80 -84 -106q-32 -10 -71 -10z" glyph-name="S" horiz-adv-x="348" unicode="S"/>
<glyph d="M349 380v-70h-131v-310h-77v310h-131v70h339z" glyph-name="T" horiz-adv-x="359" unicode="T"/>
<glyph d="M214 -5q-105 0 -147 75q-19 36 -19 82v228h77v-226q0 -72 60 -88q14 -3 29 -3q73 0 86 65q3 13 3 26v226h77v-228q0 -99 -79 -139q-38 -18 -87 -18z" glyph-name="U" horiz-adv-x="429" unicode="U"/>
<glyph d="M305 380h81l-139 -380h-97l-139 380h82l106 -306z" glyph-name="V" horiz-adv-x="396" unicode="V"/>
<glyph d="M478 380h77l-110 -380h-81l-80 277l-79 -277h-80l-109 380h78l75 -277l78 277h76l78 -276z" glyph-name="W" horiz-adv-x="570" unicode="W"/>
<glyph d="M378 0h-88l-98 139l-96 -139h-88l140 195l-132 185h88l90 -128l91 128h85l-131 -184z" glyph-name="X" horiz-adv-x="386" unicode="X"/>
<glyph d="M288 380h81l-104 -283q-38 -101 -122 -102q-65 0 -91 51q-10 21 -10 46q1 48 35 80h39l-111 208h85l104 -208h25zM145 56q33 2 48 40l8 21h-83q-8 -12 -8 -24q3 -35 35 -37z" glyph-name="Y" horiz-adv-x="379" unicode="Y"/>
<glyph d="M330 380v-58l-210 -253h210v-69h-309v58l210 253h-199v69h298z" glyph-name="Z" horiz-adv-x="353" unicode="Z"/>
<glyph d="M205 338h-82v-336h82v-62h-152v460h152v-62z" glyph-name="bracketleft" horiz-adv-x="243" unicode="["/>
<glyph d="M268 -20h-66l-222 420h66z" glyph-name="backslash" horiz-adv-x="248" unicode="\"/>
<glyph d="M207 400v-460h-152v62h82v336h-82v62h152z" glyph-name="bracketright" horiz-adv-x="240" unicode="]"/>
<glyph d="M312 190h-64l-68 135l-69 -135h-63l98 190h68z" glyph-name="asciicircum" unicode="^"/>
<glyph d="M7 6h258v-66h-258v66z" glyph-name="underscore" horiz-adv-x="272" unicode="_"/>
<glyph d="M111 326h-50l-60 76h80z" glyph-name="grave" horiz-adv-x="160" unicode="`"/>
<glyph d="M297 62h12v-62q-11 -2 -26 -2q-53 2 -61 46q-37 -48 -105 -49q-66 0 -89 49q-9 18 -9 39q0 75 100 94q13 2 29 4q56 7 63 22q1 4 1 8q0 28 -42 34q-8 1 -16 1q-50 -1 -85 -37l-43 45q55 51 132 51q91 0 114 -62q7 -18 7 -38v-125q0 -18 18 -18zM132 52q48 0 70 35 q8 14 8 29v31q-14 -8 -54 -14q-50 -9 -60 -23q-7 -9 -7 -21q7 -33 43 -37z" glyph-name="a" horiz-adv-x="328" unicode="a"/>
<glyph d="M211 305q79 0 112 -71q17 -37 17 -84q0 -94 -61 -135q-31 -20 -68 -20q-63 1 -100 48l-4 -43h-64v400h72v-140q36 44 96 45zM189 55q55 0 72 55q6 19 6 40q0 70 -49 90q-14 5 -29 5q-56 0 -72 -57q-5 -18 -5 -38q0 -72 49 -90q14 -5 28 -5z" glyph-name="b" horiz-adv-x="362" unicode="b"/>
<glyph d="M175 -5q-90 0 -131 69q-22 38 -22 86q0 91 69 133q37 22 84 22q86 0 123 -60q8 -14 13 -30l-68 -21q-19 50 -69 51q-55 0 -72 -55q-6 -19 -6 -40q0 -70 49 -90q14 -5 29 -5q52 1 70 51l67 -21q-18 -65 -90 -84q-22 -6 -46 -6z" glyph-name="c" horiz-adv-x="325" unicode="c"/>
<glyph d="M247 400h72v-400h-64l-4 45q-37 -49 -100 -50q-79 0 -112 71q-17 37 -17 84q0 94 61 135q31 20 68 20q61 -1 96 -43v138zM173 55q56 0 72 57q5 18 5 38q0 72 -49 90q-14 5 -28 5q-55 0 -72 -55q-6 -19 -6 -40q0 -70 49 -90q14 -5 29 -5z" glyph-name="d" horiz-adv-x="362" unicode="d"/>
<glyph d="M94 127q10 -62 68 -71q8 -1 16 -1q54 1 85 36l45 -43q-49 -53 -130 -53q-105 0 -142 82q-14 33 -14 73q0 91 67 133q37 22 84 22q90 0 128 -71q19 -37 19 -84q0 -13 -2 -23h-224zM173 247q-60 0 -76 -58q-1 -5 -2 -9h152q-21 61 -74 67z" glyph-name="e" horiz-adv-x="341" unicode="e"/>
<glyph d="M177 349q-30 -2 -31 -33v-16h84v-60h-84v-240h-72v240h-61v60h61v15q0 64 56 86q21 8 46 8q51 -1 89 -26l-33 -53q-27 19 -55 19z" glyph-name="f" horiz-adv-x="242" unicode="f"/>
<glyph d="M255 300h64l-1 -263q0 -94 -77 -128q-33 -14 -75 -14q-82 1 -125 41l34 50q36 -31 90 -31q82 5 85 81v24q-38 -44 -98 -45q-81 0 -114 69q-16 34 -16 76q0 89 62 127q31 18 68 18q64 -1 100 -45zM173 71q57 0 73 54q4 16 4 34q0 66 -51 82q-13 4 -26 4q-56 0 -73 -51 q-5 -17 -5 -35q0 -66 50 -83q13 -5 28 -5z" glyph-name="g" horiz-adv-x="362" unicode="g"/>
<glyph d="M213 305q67 0 95 -56q13 -27 13 -59v-190h-72v173q0 63 -47 71q-6 1 -11 1q-47 0 -67 -38q-9 -17 -9 -35v-172h-72v400h72v-139q38 43 98 44z" glyph-name="h" horiz-adv-x="359" unicode="h"/>
<glyph d="M45 340v64h78v-64h-78zM48 0v300h72v-300h-72z" glyph-name="i" horiz-adv-x="169" unicode="i"/>
<glyph d="M48 340v64h78v-64h-78zM32 -102q-13 0 -32 2v64q9 -1 24 -1q26 2 27 27v310h72v-309q-4 -91 -91 -93z" glyph-name="j" horiz-adv-x="166" unicode="j"/>
<glyph d="M302 63h13v-63q-13 -1 -32 -1q-64 2 -65 62v59h-103v-120h-72v400h72v-214h47l73 114h76l-77 -115h53v-107q2 -14 15 -15z" glyph-name="k" horiz-adv-x="334" unicode="k"/>
<glyph d="M43 0v400h72v-400h-72z" glyph-name="l" horiz-adv-x="159" unicode="l"/>
<glyph d="M408 305q67 0 93 -58q12 -26 12 -57v-190h-72v173q-1 71 -55 72q-48 0 -66 -41q-6 -15 -6 -32v-172h-72v173q-1 71 -55 72q-48 0 -66 -41q-6 -15 -6 -32v-172h-72v300h64l4 -42q35 46 99 47q66 -1 92 -57q35 56 106 57z" glyph-name="m" horiz-adv-x="552" unicode="m"/>
<glyph d="M213 305q67 0 96 -56q13 -27 13 -59v-190h-72v173q0 64 -49 71q-5 1 -10 1q-47 0 -67 -38q-9 -17 -9 -35v-172h-72v300h64l4 -44q37 48 102 49z" glyph-name="n" unicode="n"/>
<glyph d="M177 -5q-96 0 -135 73q-20 36 -20 82q0 91 70 133q37 22 85 22q96 0 135 -73q20 -36 20 -82q0 -91 -70 -133q-37 -22 -85 -22zM177 55q60 0 76 58q5 17 5 37q0 72 -52 90q-14 5 -29 5q-60 0 -76 -58q-5 -17 -5 -37q0 -72 52 -90q14 -5 29 -5z" glyph-name="o" horiz-adv-x="354" unicode="o"/>
<glyph d="M211 305q79 0 112 -71q17 -37 17 -84q0 -94 -61 -135q-31 -20 -68 -20q-61 1 -96 43v-138h-72v400h64l4 -45q37 49 100 50zM189 55q55 0 72 55q6 19 6 40q0 70 -49 90q-14 5 -29 5q-56 0 -72 -57q-5 -18 -5 -38q0 -72 49 -90q14 -5 28 -5z" glyph-name="p" horiz-adv-x="362" unicode="p"/>
<glyph d="M255 300h64v-400h-72v140q-36 -44 -96 -45q-79 0 -112 71q-17 37 -17 84q0 94 61 135q31 20 68 20q63 -1 100 -48zM173 55q56 0 72 57q5 18 5 38q0 72 -49 90q-14 5 -28 5q-55 0 -72 -55q-6 -19 -6 -40q0 -70 49 -90q14 -5 29 -5z" glyph-name="q" horiz-adv-x="362" unicode="q"/>
<glyph d="M213 304q9 0 26 -2l-2 -68q-23 3 -44 3q-61 0 -75 -49q-3 -11 -3 -23v-165h-72v300h64l4 -47q36 50 102 51z" glyph-name="r" horiz-adv-x="249" unicode="r"/>
<glyph d="M145 -5q-83 1 -134 46l38 51q40 -36 98 -36q54 1 55 28q0 17 -34 28q-14 4 -32 8q-98 24 -109 76q-2 9 -2 18q0 59 63 82q27 9 60 9q63 -1 118 -37l-39 -53q-38 30 -85 30q-46 -2 -48 -27q0 -18 32 -28q11 -4 27 -8q94 -23 112 -63q6 -14 6 -32q0 -68 -75 -86 q-24 -6 -51 -6z" glyph-name="s" horiz-adv-x="288" unicode="s"/>
<glyph d="M231 240h-88v-142q6 -35 40 -37q27 0 48 5v-64q-29 -8 -64 -8q-88 0 -95 76q-1 6 -1 12v158h-60v60h60l8 80h64v-80h88v-60z" glyph-name="t" horiz-adv-x="253" unicode="t"/>
<glyph d="M245 300h72v-300h-64l-4 44q-37 -48 -102 -49q-67 0 -96 56q-13 27 -13 59v190h72v-173q0 -64 49 -71q5 -1 10 -1q47 0 67 38q9 17 9 35v172z" glyph-name="u" unicode="u"/>
<glyph d="M250 300h77l-116 -300h-88l-115 300h78l83 -229z" glyph-name="v" horiz-adv-x="334" unicode="v"/>
<glyph d="M397 300h72l-89 -300h-80l-60 204l-57 -204h-80l-90 300h74l59 -223l62 223h67l62 -224z" glyph-name="w" horiz-adv-x="482" unicode="w"/>
<glyph d="M326 0h-85l-73 104l-73 -104h-84l111 152l-106 148h83l70 -99l72 99h80l-106 -148z" glyph-name="x" horiz-adv-x="337" unicode="x"/>
<glyph d="M254 300h77l-97 -292q-33 -98 -93 -111q-12 -2 -24 -2q-65 0 -86 53q-8 19 -8 40q1 41 30 74h42l-91 238h77l83 -238h19zM117 -46q28 2 42 40l5 15h-73q-6 -11 -6 -23q0 -27 25 -31q4 -1 7 -1z" glyph-name="y" horiz-adv-x="337" unicode="y"/>
<glyph d="M111 61h167v-61h-259v56l165 184h-156v60h247v-56z" glyph-name="z" horiz-adv-x="298" unicode="z"/>
<glyph d="M142 239q-1 -51 -36 -69q35 -18 36 -69v-81q2 -17 18 -18h43v-62h-61q-65 7 -69 69v91q-1 38 -28 39h-15v62h15q27 2 28 39v91q8 65 69 69h61v-62h-43q-17 -2 -18 -18v-81z" glyph-name="braceleft" horiz-adv-x="243" unicode="{"/>
<glyph d="M53 -60v460h70v-460h-70z" glyph-name="bar" horiz-adv-x="176" unicode="|"/>
<glyph d="M175 201h15v-62h-15q-27 -2 -28 -39v-91q-8 -65 -69 -69h-61v62h43q17 2 18 18v81q1 51 36 69q-35 18 -36 69v81q-2 17 -18 18h-43v62h61q65 -7 69 -69v-91q1 -38 28 -39z" glyph-name="braceright" horiz-adv-x="230" unicode="}"/>
<glyph d="M70 144l-44 32q30 58 83 63q6 1 10 1q30 0 72 -25q31 -17 50 -17q30 2 49 39l44 -32q-26 -52 -74 -62q-10 -2 -19 -2q-30 0 -73 25q-30 16 -49 16q-29 -2 -49 -38z" glyph-name="asciitilde" unicode="~"/>
<glyph d="M50 300h88v-88h-88v88zM64 167h60l11 -247h-82z" glyph-name="exclamdown" horiz-adv-x="189" unicode="¡"/>
<glyph d="M193 97q40 11 55 51l64 -21q-19 -67 -91 -86q-14 -4 -28 -5v-36h-43v37q-82 11 -114 82q-14 33 -14 71q0 90 67 132q28 16 61 21v37h43v-36q81 -7 111 -71q5 -10 8 -20l-65 -21q-17 42 -54 51v-186zM92 190q0 -68 49 -89q5 -2 9 -3v184q-50 -14 -57 -75q-1 -9 -1 -17z " glyph-name="cent" horiz-adv-x="327" unicode="¢"/>
<glyph d="M279 103l64 -9q-6 -98 -84 -99q-50 1 -105 46q-30 -45 -77 -46q-51 0 -66 40q-5 12 -5 25q0 50 48 63q12 3 25 3q18 0 36 -5q-3 26 -14 48h-70v42h48q-19 39 -19 70q0 68 65 93q28 11 62 11q84 0 116 -62q9 -18 12 -38l-65 -18q-7 53 -55 58q-5 1 -9 1q-42 0 -53 -34 q-3 -8 -3 -17q0 -21 20 -64h92v-42h-75q9 -28 9 -51q0 -11 -2 -26q47 -31 67 -34q5 -1 9 -1q25 2 29 46zM76 41q28 2 36 31q-18 11 -34 11q-26 -2 -27 -22q3 -18 25 -20z" glyph-name="sterling" unicode="£"/>
<glyph d="M299 190q-1 -33 -18 -64l52 -52l-37 -37l-52 52q-32 -18 -64 -18q-33 1 -64 18l-52 -52l-37 37l52 52q-18 32 -18 64q1 33 18 64l-52 52l37 37l52 -52q32 18 64 18q33 -1 64 -18l52 52l37 -37l-52 -52q18 -32 18 -64zM121 190q0 -38 34 -54q12 -5 25 -5q38 0 54 34 q5 12 5 25q0 38 -34 54q-12 5 -25 5q-38 0 -54 -34q-5 -12 -5 -25z" glyph-name="currency" unicode="¤"/>
<glyph d="M378 380l-124 -191h53v-42h-78v-38h78v-42h-78v-67h-77v67h-73v42h73v38h-73v42h48l-124 191h87l101 -161l101 161h86z" glyph-name="yen" horiz-adv-x="386" unicode="¥"/>
<glyph d="M53 220v180h70v-180h-70zM123 120v-180h-70v180h70z" glyph-name="brokenbar" horiz-adv-x="176" unicode="¦"/>
<glyph d="M235 90q45 -23 46 -67q0 -59 -67 -80q-28 -8 -61 -8q-82 1 -134 46l36 49q41 -36 100 -36q59 1 60 30q0 22 -48 35l-28 7q-90 23 -109 62q-7 15 -7 33q1 47 59 71q-46 22 -47 67q0 59 67 79q25 7 56 7q62 -1 116 -37l-36 -52q-40 30 -85 30q-51 -1 -52 -30q0 -20 35 -30 q7 -3 33 -9q78 -18 102 -44q19 -21 19 -50q-1 -49 -55 -73zM166 121q52 0 58 30q1 4 1 7q0 32 -57 40q-11 1 -21 1q-50 0 -57 -29q-1 -4 -1 -8q0 -32 57 -40q10 -1 20 -1z" glyph-name="section" horiz-adv-x="311" unicode="§"/>
<glyph d="M-5 340v64h75v-64h-75zM106 340v64h75v-64h-75z" glyph-name="dieresis" horiz-adv-x="160" unicode="¨"/>
<glyph d="M221 -5q-100 0 -156 74q-39 52 -39 121q0 100 74 156q52 39 121 39q100 0 156 -74q39 -52 39 -121q0 -100 -74 -156q-52 -39 -121 -39zM221 35q84 0 127 65q26 40 26 90q0 85 -64 129q-39 26 -89 26q-85 0 -128 -65q-26 -40 -26 -90q0 -85 65 -129q39 -26 89 -26zM224 84 q-68 0 -94 56q-10 23 -10 50q0 69 55 96q22 10 49 10q59 0 85 -46q4 -8 7 -16l-53 -19q-12 30 -39 31q-39 0 -46 -42q-1 -7 -1 -14q0 -49 38 -55q5 -1 9 -1q28 1 39 31l53 -19q-15 -48 -69 -60q-11 -2 -23 -2z" glyph-name="copyright" horiz-adv-x="441" unicode="©"/>
<glyph d="M30 135v70l125 85v-75l-64 -44l64 -45v-76zM296 290v-75l-64 -44l64 -45v-76l-125 85v70z" glyph-name="guillemotleft" horiz-adv-x="336" unicode="«"/>
<glyph d="M317 219v-169h-59v111h-215v58h274z" glyph-name="logicalnot" unicode="¬"/>
<glyph d="M136 385q61 0 88 -50q12 -23 12 -50q0 -61 -50 -88q-23 -12 -50 -12q-61 0 -88 50q-12 23 -12 50q0 61 50 88q23 12 50 12zM136 212q48 0 66 41q7 15 7 32q0 48 -41 67q-16 6 -32 6q-50 0 -67 -42q-6 -15 -6 -31q0 -50 42 -67q15 -6 31 -6zM175 265q2 -4 5 -5h1v-25h-14 q-20 2 -21 21v4q-2 7 -8 8h-15v-33h-29v102h49q30 0 36 -24q1 -4 1 -7q-1 -19 -15 -25q9 -5 10 -15v-1zM139 309h-16v-16h16q10 2 11 9q-2 6 -11 7z" glyph-name="registered" horiz-adv-x="271" unicode="®"/>
<glyph d="M4 347v53h168v-53h-168z" glyph-name="macron" horiz-adv-x="160" unicode="¯"/>
<glyph d="M120 211q-51 0 -76 43q-12 21 -12 44q0 51 44 76q21 11 44 11q52 0 78 -44q11 -20 11 -43q0 -50 -43 -75q-22 -12 -46 -12zM120 255q31 0 40 28q2 8 2 15q0 30 -28 40q-7 2 -14 2q-29 0 -39 -28q-2 -7 -2 -14q0 -31 27 -41q7 -2 14 -2z" glyph-name="degree" horiz-adv-x="241" unicode="°"/>
<glyph d="M210 251h107v-58h-107v-108h-60v108h-107v58h107v108h60v-108zM43 -7v58h274v-58h-274z" glyph-name="plusminus" unicode="±"/>
<glyph d="M110 283h103v-47h-185v38l87 61q38 28 39 55q-4 26 -35 28q-35 0 -40 -31q-1 -4 -1 -8l-50 7q4 55 56 72q18 5 38 5q63 0 81 -42q5 -12 5 -25q0 -36 -53 -79q-10 -8 -22 -17z" glyph-name="uni00B2" horiz-adv-x="234" unicode="²"/>
<glyph d="M143 373q49 -4 61 -45q3 -10 3 -20q0 -46 -47 -66q-22 -9 -47 -9q-68 0 -93 49q-2 3 -3 5l39 24q19 -32 57 -33q38 6 42 33q-5 27 -36 30q-14 0 -26 -6l-22 27l59 51h-100v47h169v-40z" glyph-name="uni00B3" horiz-adv-x="234" unicode="³"/>
<glyph d="M65 326l30 76h80l-60 -76h-50z" glyph-name="acute" horiz-adv-x="160" unicode="´"/>
<glyph d="M232 380v-480h-74v266h-6q-84 0 -112 60q-10 21 -10 47q0 71 63 97q27 10 59 10h80zM280 380h74v-480h-74v480z" glyph-name="paragraph" horiz-adv-x="407" unicode="¶"/>
<glyph d="M42 126v88h88v-88h-88z" glyph-name="periodcentered" horiz-adv-x="172" unicode="·"/>
<glyph d="M113 -19q39 0 50 -29q2 -6 2 -13q0 -34 -42 -45q-14 -4 -29 -4q-37 1 -66 20l20 32q22 -16 44 -16q26 1 27 13q-2 12 -19 13q-12 0 -20 -6l-29 16l26 44h43l-16 -25h9z" glyph-name="cedilla" horiz-adv-x="160" unicode="¸"/>
<glyph d="M141 460v-224h-53v142h-62v43h17q44 0 53 21q3 7 4 18h41z" glyph-name="uni00B9" horiz-adv-x="190" unicode="¹"/>
<glyph d="M40 214v76l125 -85v-70l-125 -85v75l64 44zM181 290l125 -85v-70l-125 -85v75l64 44l-64 45v76z" glyph-name="guillemotright" horiz-adv-x="336" unicode="»"/>
<glyph d="M88 156v142h-62v43h17q44 0 53 21q3 7 4 18h41v-224h-53zM311 380h51l-241 -380h-51zM431 95v-46h-36v-49h-50v49h-120v43l106 132h64v-129h36zM280 95h65v82z" glyph-name="onequarter" horiz-adv-x="444" unicode="¼"/>
<glyph d="M88 156v142h-62v43h17q44 0 53 21q3 7 4 18h41v-224h-53zM295 380h51l-241 -380h-51zM320 47h103v-47h-185v38l87 61q38 28 39 55q-4 26 -35 28q-35 0 -40 -31q-1 -4 -1 -8l-50 7q4 55 56 72q18 5 38 5q63 0 81 -42q5 -12 5 -25q0 -36 -53 -79q-10 -8 -22 -17z" glyph-name="onehalf" horiz-adv-x="444" unicode="½"/>
<glyph d="M207 228q0 -46 -47 -66q-22 -9 -47 -9q-68 0 -93 49q-2 3 -3 5l39 24q19 -32 57 -33q38 6 42 33q-5 27 -36 30q-14 0 -26 -6l-22 27l59 51h-100v47h169v-40l-56 -47q49 -4 61 -45q3 -10 3 -20zM353 380h51l-241 -380h-51zM475 95v-46h-36v-49h-50v49h-120v43l106 132h64 v-129h36zM324 95h65v82z" glyph-name="threequarters" horiz-adv-x="488" unicode="¾"/>
<glyph d="M203 300v-88h-88v88h88zM192 172q2 -37 -24 -63q-10 -10 -25 -22q-37 -29 -40 -49q-1 -6 -1 -12q0 -41 41 -50q7 -1 15 -1q53 0 69 52q3 11 4 23l67 -12q-7 -79 -75 -110q-30 -13 -66 -13q-81 0 -113 54q-14 24 -14 52q0 53 55 94q3 2 4 3q40 29 41 51v3h62z" glyph-name="questiondown" horiz-adv-x="316" unicode="¿"/>
<glyph d="M226 406h-50l-60 76h80zM318 0l-30 80h-172l-30 -80h-80l150 380h94l150 -380h-82zM141 147h122l-61 165z" glyph-name="Agrave" horiz-adv-x="406" unicode="À"/>
<glyph d="M290 482l-60 -76h-50l30 76h80zM318 0l-30 80h-172l-30 -80h-80l150 380h94l150 -380h-82zM141 147h122l-61 165z" glyph-name="Aacute" horiz-adv-x="406" unicode="Á"/>
<glyph d="M205 444l-38 -38h-61l63 76h72l62 -76h-61zM318 0l-30 80h-172l-30 -80h-80l150 380h94l150 -380h-82zM141 147h122l-61 165z" glyph-name="Acircumflex" horiz-adv-x="406" unicode="Â"/>
<glyph d="M174 435q-18 -2 -26 -24l-42 22q22 48 63 52q16 0 46 -18q12 -7 19 -7q19 2 27 24l42 -22q-18 -51 -63 -52q-17 0 -47 18q-12 7 -19 7zM318 0l-30 80h-172l-30 -80h-80l150 380h94l150 -380h-82zM141 147h122l-61 165z" glyph-name="Atilde" horiz-adv-x="406" unicode="Ã"/>
<glyph d="M185 484v-64h-75v64h75zM296 484v-64h-75v64h75zM318 0l-30 80h-172l-30 -80h-80l150 380h94l150 -380h-82zM141 147h122l-61 165z" glyph-name="Adieresis" horiz-adv-x="406" unicode="Ä"/>
<glyph d="M318 0l-30 80h-172l-30 -80h-80l149 378q-24 20 -24 54q0 45 39 64q16 7 33 7q46 0 65 -38q7 -16 7 -33q-1 -35 -24 -54l149 -378h-82zM203 460q-23 0 -27 -21q-1 -4 -1 -7q0 -24 22 -28q3 -1 6 -1q23 0 27 22q1 4 1 7q0 23 -21 27q-4 1 -7 1zM141 147h122l-61 165z" glyph-name="Aring" horiz-adv-x="406" unicode="Å"/>
<glyph d="M346 68h138v-68h-193l-29 83h-150l-29 -83h-77l138 380h335v-68h-221l31 -85h148v-64h-125zM133 145h107l-53 155z" glyph-name="AE" horiz-adv-x="504" unicode="Æ"/>
<glyph d="M208 60q69 2 91 71l72 -25q-25 -82 -108 -104q-16 -4 -32 -6l-10 -15h9q39 0 50 -29q2 -6 2 -13q0 -34 -42 -45q-14 -4 -29 -4q-37 1 -66 20l20 32q22 -16 44 -16q26 1 27 13q-2 12 -19 13q-12 0 -20 -6l-29 16l20 34q-98 9 -140 93q-22 44 -22 101q0 109 75 162 q46 33 108 33q108 0 150 -83q7 -14 12 -28l-72 -25q-23 70 -91 71q-67 0 -93 -65q-11 -29 -11 -65q0 -92 60 -121q20 -9 44 -9z" glyph-name="Ccedilla" horiz-adv-x="389" unicode="Ç"/>
<glyph d="M214 406h-50l-60 76h80zM129 68h199v-68h-275v380h270v-68h-194v-84h149v-66h-149v-94z" glyph-name="Egrave" horiz-adv-x="348" unicode="È"/>
<glyph d="M278 482l-60 -76h-50l30 76h80zM129 68h199v-68h-275v380h270v-68h-194v-84h149v-66h-149v-94z" glyph-name="Eacute" horiz-adv-x="348" unicode="É"/>
<glyph d="M193 444l-38 -38h-61l63 76h72l62 -76h-61zM129 68h199v-68h-275v380h270v-68h-194v-84h149v-66h-149v-94z" glyph-name="Ecircumflex" horiz-adv-x="348" unicode="Ê"/>
<glyph d="M173 484v-64h-75v64h75zM284 484v-64h-75v64h75zM129 68h199v-68h-275v380h270v-68h-194v-84h149v-66h-149v-94z" glyph-name="Edieresis" horiz-adv-x="348" unicode="Ë"/>
<glyph d="M115 406h-50l-60 76h80zM53 0v380h77v-380h-77z" glyph-name="Igrave" horiz-adv-x="183" unicode="Ì"/>
<glyph d="M69 406l30 76h80l-60 -76h-50zM53 0v380h77v-380h-77z" glyph-name="Iacute" horiz-adv-x="183" unicode="Í"/>
<glyph d="M130 482l62 -76h-61l-37 38l-38 -38h-61l63 76h72zM53 0v380h77v-380h-77z" glyph-name="Icircumflex" horiz-adv-x="183" unicode="Î"/>
<glyph d="M-1 420v64h75v-64h-75zM110 420v64h75v-64h-75zM53 0v380h77v-380h-77z" glyph-name="Idieresis" horiz-adv-x="183" unicode="Ï"/>
<glyph d="M198 380q125 0 170 -94q20 -42 20 -96q0 -110 -79 -160q-47 -30 -111 -30h-145v169h-39v52h39v159h145zM196 65q84 0 107 76q6 23 6 49q0 95 -70 118q-20 7 -43 7h-66v-94h68v-52h-68v-104h66z" glyph-name="Eth" horiz-adv-x="414" unicode="Ð"/>
<glyph d="M192 435q-18 -2 -26 -24l-42 22q22 48 63 52q16 0 46 -18q12 -7 19 -7q19 2 27 24l42 -22q-18 -51 -63 -52q-17 0 -47 18q-12 7 -19 7zM307 380h74v-380h-72l-182 257v-257h-74v380h74l180 -256v256z" glyph-name="Ntilde" horiz-adv-x="434" unicode="Ñ"/>
<glyph d="M235 406h-50l-60 76h80zM212 -5q-107 0 -157 82q-29 48 -29 113q0 109 76 162q47 33 110 33q108 0 158 -82q29 -48 29 -113q0 -109 -77 -162q-47 -33 -110 -33zM212 62q69 0 96 64q12 29 12 64q0 85 -58 116q-23 12 -50 12q-69 0 -96 -64q-12 -29 -12 -64q0 -85 58 -116 q23 -12 50 -12z" glyph-name="Ograve" horiz-adv-x="424" unicode="Ò"/>
<glyph d="M189 406l30 76h80l-60 -76h-50zM212 -5q-107 0 -157 82q-29 48 -29 113q0 109 76 162q47 33 110 33q108 0 158 -82q29 -48 29 -113q0 -109 -77 -162q-47 -33 -110 -33zM212 62q69 0 96 64q12 29 12 64q0 85 -58 116q-23 12 -50 12q-69 0 -96 -64q-12 -29 -12 -64 q0 -85 58 -116q23 -12 50 -12z" glyph-name="Oacute" horiz-adv-x="424" unicode="Ó"/>
<glyph d="M214 444l-38 -38h-61l63 76h72l62 -76h-61zM212 385q108 0 158 -82q29 -48 29 -113q0 -109 -77 -162q-47 -33 -110 -33q-107 0 -157 82q-29 48 -29 113q0 109 76 162q47 33 110 33zM212 62q69 0 96 64q12 29 12 64q0 85 -58 116q-23 12 -50 12q-69 0 -96 -64 q-12 -29 -12 -64q0 -85 58 -116q23 -12 50 -12z" glyph-name="Ocircumflex" horiz-adv-x="424" unicode="Ô"/>
<glyph d="M312 462q-18 -51 -63 -52q-17 0 -47 18q-12 7 -19 7q-18 -2 -26 -24l-42 22q22 48 63 52q16 0 46 -18q12 -7 19 -7q19 2 27 24zM212 -5q-107 0 -157 82q-29 48 -29 113q0 109 76 162q47 33 110 33q108 0 158 -82q29 -48 29 -113q0 -109 -77 -162q-47 -33 -110 -33z M212 62q69 0 96 64q12 29 12 64q0 85 -58 116q-23 12 -50 12q-69 0 -96 -64q-12 -29 -12 -64q0 -85 58 -116q23 -12 50 -12z" glyph-name="Otilde" horiz-adv-x="424" unicode="Õ"/>
<glyph d="M119 420v64h75v-64h-75zM230 420v64h75v-64h-75zM212 -5q-107 0 -157 82q-29 48 -29 113q0 109 76 162q47 33 110 33q108 0 158 -82q29 -48 29 -113q0 -109 -77 -162q-47 -33 -110 -33zM212 62q69 0 96 64q12 29 12 64q0 85 -58 116q-23 12 -50 12q-69 0 -96 -64 q-12 -29 -12 -64q0 -85 58 -116q23 -12 50 -12z" glyph-name="Odieresis" horiz-adv-x="424" unicode="Ö"/>
<glyph d="M308 277l-87 -87l87 -87l-41 -41l-87 87l-87 -87l-41 41l87 87l-87 87l41 41l87 -87l87 87z" glyph-name="multiply" unicode="×"/>
<glyph d="M399 385l-46 -59q46 -55 46 -136q0 -109 -77 -162q-47 -33 -110 -33q-57 0 -97 24l-19 -24h-71l46 60q-45 52 -45 135q0 109 76 162q47 33 110 33q56 0 98 -24l18 24h71zM104 190q0 -41 16 -73l145 187q-24 14 -53 14q-69 0 -96 -64q-12 -29 -12 -64zM320 190 q0 41 -16 73l-145 -187q24 -14 53 -14q69 0 96 64q12 29 12 64z" glyph-name="Oslash" horiz-adv-x="424" unicode="Ø"/>
<glyph d="M237 406h-50l-60 76h80zM214 -5q-105 0 -147 75q-19 36 -19 82v228h77v-226q0 -72 60 -88q14 -3 29 -3q73 0 86 65q3 13 3 26v226h77v-228q0 -99 -79 -139q-38 -18 -87 -18z" glyph-name="Ugrave" horiz-adv-x="429" unicode="Ù"/>
<glyph d="M191 406l30 76h80l-60 -76h-50zM214 -5q-105 0 -147 75q-19 36 -19 82v228h77v-226q0 -72 60 -88q14 -3 29 -3q73 0 86 65q3 13 3 26v226h77v-228q0 -99 -79 -139q-38 -18 -87 -18z" glyph-name="Uacute" horiz-adv-x="429" unicode="Ú"/>
<glyph d="M216 444l-38 -38h-61l63 76h72l62 -76h-61zM303 380h77v-228q0 -99 -79 -139q-38 -18 -87 -18q-105 0 -147 75q-19 36 -19 82v228h77v-226q0 -72 60 -88q14 -3 29 -3q73 0 86 65q3 13 3 26v226z" glyph-name="Ucircumflex" horiz-adv-x="429" unicode="Û"/>
<glyph d="M121 420v64h75v-64h-75zM232 420v64h75v-64h-75zM214 -5q-105 0 -147 75q-19 36 -19 82v228h77v-226q0 -72 60 -88q14 -3 29 -3q73 0 86 65q3 13 3 26v226h77v-228q0 -99 -79 -139q-38 -18 -87 -18z" glyph-name="Udieresis" horiz-adv-x="429" unicode="Ü"/>
<glyph d="M276 482l-60 -76h-50l30 76h80zM288 380h81l-104 -283q-38 -101 -122 -102q-65 0 -91 51q-10 21 -10 46q1 48 35 80h39l-111 208h85l104 -208h25zM145 56q33 2 48 40l8 21h-83q-8 -12 -8 -24q3 -35 35 -37z" glyph-name="Yacute" horiz-adv-x="379" unicode="Ý"/>
<glyph d="M214 315q102 0 131 -70q10 -23 10 -50q0 -83 -76 -110q-29 -10 -65 -10h-84v-75h-77v380h77v-65h84zM207 134q70 2 71 58q-4 57 -71 59h-77v-117h77z" glyph-name="Thorn" horiz-adv-x="376" unicode="Þ"/>
<glyph d="M261 -5q-66 1 -113 36l35 50q34 -27 78 -27q46 1 47 24q0 17 -34 28q-9 3 -20 6q-69 22 -82 49q-7 14 -7 32q0 42 52 69q5 2 11 5q35 17 38 31q1 3 1 5q0 35 -46 44q-13 2 -26 2q-76 -6 -80 -63v-286h-72v289q0 78 76 107q35 13 78 13q87 0 126 -49q17 -23 17 -49 q0 -57 -64 -86q-6 -2 -12 -5q-29 -15 -31 -26q0 -13 36 -22l8 -2q76 -21 94 -57q7 -15 7 -33q0 -58 -63 -77q-25 -8 -54 -8z" glyph-name="germandbls" horiz-adv-x="393" unicode="ß"/>
<glyph d="M181 326h-50l-60 76h80zM297 62h12v-62q-11 -2 -26 -2q-53 2 -61 46q-37 -48 -105 -49q-66 0 -89 49q-9 18 -9 39q0 75 100 94q13 2 29 4q56 7 63 22q1 4 1 8q0 28 -42 34q-8 1 -16 1q-50 -1 -85 -37l-43 45q55 51 132 51q91 0 114 -62q7 -18 7 -38v-125q0 -18 18 -18z M132 52q48 0 70 35q8 14 8 29v31q-14 -8 -54 -14q-50 -9 -60 -23q-7 -9 -7 -21q7 -33 43 -37z" glyph-name="agrave" horiz-adv-x="328" unicode="à"/>
<glyph d="M245 402l-60 -76h-50l30 76h80zM297 62h12v-62q-11 -2 -26 -2q-53 2 -61 46q-37 -48 -105 -49q-66 0 -89 49q-9 18 -9 39q0 75 100 94q13 2 29 4q56 7 63 22q1 4 1 8q0 28 -42 34q-8 1 -16 1q-50 -1 -85 -37l-43 45q55 51 132 51q91 0 114 -62q7 -18 7 -38v-125 q0 -18 18 -18zM132 52q48 0 70 35q8 14 8 29v31q-14 -8 -54 -14q-50 -9 -60 -23q-7 -9 -7 -21q7 -33 43 -37z" glyph-name="aacute" horiz-adv-x="328" unicode="á"/>
<glyph d="M160 364l-38 -38h-61l63 76h72l62 -76h-61zM297 62h12v-62q-11 -2 -26 -2q-53 2 -61 46q-37 -48 -105 -49q-66 0 -89 49q-9 18 -9 39q0 75 100 94q13 2 29 4q56 7 63 22q1 4 1 8q0 28 -42 34q-8 1 -16 1q-50 -1 -85 -37l-43 45q55 51 132 51q91 0 114 -62q7 -18 7 -38 v-125q0 -18 18 -18zM132 52q48 0 70 35q8 14 8 29v31q-14 -8 -54 -14q-50 -9 -60 -23q-7 -9 -7 -21q7 -33 43 -37z" glyph-name="acircumflex" horiz-adv-x="328" unicode="â"/>
<glyph d="M129 355q-18 -2 -26 -24l-42 22q22 48 63 52q16 0 46 -18q12 -7 19 -7q19 2 27 24l42 -22q-18 -51 -63 -52q-17 0 -47 18q-12 7 -19 7zM297 62h12v-62q-11 -2 -26 -2q-53 2 -61 46q-37 -48 -105 -49q-66 0 -89 49q-9 18 -9 39q0 75 100 94q13 2 29 4q56 7 63 22q1 4 1 8 q0 28 -42 34q-8 1 -16 1q-50 -1 -85 -37l-43 45q55 51 132 51q91 0 114 -62q7 -18 7 -38v-125q0 -18 18 -18zM132 52q48 0 70 35q8 14 8 29v31q-14 -8 -54 -14q-50 -9 -60 -23q-7 -9 -7 -21q7 -33 43 -37z" glyph-name="atilde" horiz-adv-x="328" unicode="ã"/>
<glyph d="M140 404v-64h-75v64h75zM251 404v-64h-75v64h75zM297 62h12v-62q-11 -2 -26 -2q-53 2 -61 46q-37 -48 -105 -49q-66 0 -89 49q-9 18 -9 39q0 75 100 94q13 2 29 4q56 7 63 22q1 4 1 8q0 28 -42 34q-8 1 -16 1q-50 -1 -85 -37l-43 45q55 51 132 51q91 0 114 -62 q7 -18 7 -38v-125q0 -18 18 -18zM132 52q48 0 70 35q8 14 8 29v31q-14 -8 -54 -14q-50 -9 -60 -23q-7 -9 -7 -21q7 -33 43 -37z" glyph-name="adieresis" horiz-adv-x="328" unicode="ä"/>
<glyph d="M158 326q-47 0 -65 39q-7 15 -7 32q0 45 39 64q16 7 33 7q46 0 65 -38q7 -16 7 -33q0 -47 -41 -65q-15 -6 -31 -6zM158 425q-23 0 -27 -21q-1 -4 -1 -7q0 -24 22 -28q3 -1 6 -1q23 0 27 22q1 4 1 7q0 23 -21 27q-4 1 -7 1zM297 62h12v-62q-11 -2 -26 -2q-53 2 -61 46 q-37 -48 -105 -49q-66 0 -89 49q-9 18 -9 39q0 75 100 94q13 2 29 4q56 7 63 22q1 4 1 8q0 28 -42 34q-8 1 -16 1q-50 -1 -85 -37l-43 45q55 51 132 51q91 0 114 -62q7 -18 7 -38v-125q0 -18 18 -18zM132 52q48 0 70 35q8 14 8 29v31q-14 -8 -54 -14q-50 -9 -60 -23 q-7 -9 -7 -21q7 -33 43 -37z" glyph-name="aring" horiz-adv-x="328" unicode="å"/>
<glyph d="M273 129q10 -67 69 -74q7 -1 13 -1q52 1 81 36l44 -43q-48 -52 -126 -52q-76 1 -114 57q-38 -56 -112 -57q-73 0 -98 49q-9 18 -9 39q2 81 121 96q58 8 65 13q6 6 6 17q0 26 -34 35q-11 2 -22 2q-49 -1 -87 -37l-43 46q52 50 126 50q70 -1 96 -46q40 46 105 46 q83 0 119 -70q19 -38 19 -85q0 -14 -1 -21h-218zM349 247q-57 0 -73 -60l-2 -10h146q-17 66 -71 70zM135 52q49 0 69 38q7 16 7 33v25q-10 -5 -55 -12q-61 -10 -66 -39q-1 -4 -1 -8q0 -31 36 -36q5 -1 10 -1z" glyph-name="ae" horiz-adv-x="513" unicode="æ"/>
<glyph d="M174 55q52 1 70 51l67 -21q-18 -66 -93 -85q-10 -3 -21 -4l-10 -15h9q39 0 50 -29q2 -6 2 -13q0 -34 -42 -45q-14 -4 -29 -4q-37 1 -66 20l20 32q22 -16 44 -16q26 1 27 13q-2 12 -19 13q-12 0 -20 -6l-29 16l20 34q-84 10 -117 81q-15 33 -15 73q0 91 69 133 q37 22 84 22q86 0 123 -60q8 -14 13 -30l-68 -21q-19 50 -69 51q-55 0 -72 -55q-6 -19 -6 -40q0 -70 49 -90q14 -5 29 -5z" glyph-name="ccedilla" horiz-adv-x="325" unicode="ç"/>
<glyph d="M193 326h-50l-60 76h80zM94 127q10 -62 68 -71q8 -1 16 -1q54 1 85 36l45 -43q-49 -53 -130 -53q-105 0 -142 82q-14 33 -14 73q0 91 67 133q37 22 84 22q90 0 128 -71q19 -37 19 -84q0 -13 -2 -23h-224zM173 247q-60 0 -76 -58q-1 -5 -2 -9h152q-21 61 -74 67z" glyph-name="egrave" horiz-adv-x="341" unicode="è"/>
<glyph d="M257 402l-60 -76h-50l30 76h80zM94 127q10 -62 68 -71q8 -1 16 -1q54 1 85 36l45 -43q-49 -53 -130 -53q-105 0 -142 82q-14 33 -14 73q0 91 67 133q37 22 84 22q90 0 128 -71q19 -37 19 -84q0 -13 -2 -23h-224zM173 247q-60 0 -76 -58q-1 -5 -2 -9h152q-21 61 -74 67z " glyph-name="eacute" horiz-adv-x="341" unicode="é"/>
<glyph d="M172 364l-38 -38h-61l63 76h72l62 -76h-61zM94 127q10 -62 68 -71q8 -1 16 -1q54 1 85 36l45 -43q-49 -53 -130 -53q-105 0 -142 82q-14 33 -14 73q0 91 67 133q37 22 84 22q90 0 128 -71q19 -37 19 -84q0 -13 -2 -23h-224zM173 247q-60 0 -76 -58q-1 -5 -2 -9h152 q-21 61 -74 67z" glyph-name="ecircumflex" horiz-adv-x="341" unicode="ê"/>
<glyph d="M152 404v-64h-75v64h75zM263 404v-64h-75v64h75zM94 127q10 -62 68 -71q8 -1 16 -1q54 1 85 36l45 -43q-49 -53 -130 -53q-105 0 -142 82q-14 33 -14 73q0 91 67 133q37 22 84 22q90 0 128 -71q19 -37 19 -84q0 -13 -2 -23h-224zM173 247q-60 0 -76 -58q-1 -5 -2 -9h152 q-21 61 -74 67z" glyph-name="edieresis" horiz-adv-x="341" unicode="ë"/>
<glyph d="M107 326h-50l-60 76h80zM48 0v300h72v-300h-72z" glyph-name="igrave" horiz-adv-x="169" unicode="ì"/>
<glyph d="M61 326l30 76h80l-60 -76h-50zM48 0v300h72v-300h-72z" glyph-name="iacute" horiz-adv-x="169" unicode="í"/>
<glyph d="M122 402l62 -76h-61l-37 38l-38 -38h-61l63 76h72zM48 0v300h72v-300h-72z" glyph-name="icircumflex" horiz-adv-x="169" unicode="î"/>
<glyph d="M-9 340v64h75v-64h-75zM102 340v64h75v-64h-75zM48 0v300h72v-300h-72z" glyph-name="idieresis" horiz-adv-x="169" unicode="ï"/>
<glyph d="M234 355q86 -76 86 -195q0 -109 -77 -148q-33 -17 -75 -17q-92 0 -129 69q-17 33 -17 73q0 80 58 119q32 21 71 21q50 -1 84 -32q-16 46 -59 78l-58 -31l-23 37l37 20q-31 13 -38 15l28 49q39 -12 72 -30l62 33l23 -37zM171 53q53 0 70 49q6 16 6 34q0 58 -45 76 q-15 6 -31 6q-54 0 -71 -49q-5 -16 -5 -33q0 -59 46 -77q14 -6 30 -6z" glyph-name="eth" horiz-adv-x="340" unicode="ð"/>
<glyph d="M152 355q-18 -2 -26 -24l-42 22q22 48 63 52q16 0 46 -18q12 -7 19 -7q19 2 27 24l42 -22q-18 -51 -63 -52q-17 0 -47 18q-12 7 -19 7zM213 305q67 0 96 -56q13 -27 13 -59v-190h-72v173q0 64 -49 71q-5 1 -10 1q-47 0 -67 -38q-9 -17 -9 -35v-172h-72v300h64l4 -44 q37 48 102 49z" glyph-name="ntilde" unicode="ñ"/>
<glyph d="M200 326h-50l-60 76h80zM177 -5q-96 0 -135 73q-20 36 -20 82q0 91 70 133q37 22 85 22q96 0 135 -73q20 -36 20 -82q0 -91 -70 -133q-37 -22 -85 -22zM177 55q60 0 76 58q5 17 5 37q0 72 -52 90q-14 5 -29 5q-60 0 -76 -58q-5 -17 -5 -37q0 -72 52 -90q14 -5 29 -5z" glyph-name="ograve" horiz-adv-x="354" unicode="ò"/>
<glyph d="M154 326l30 76h80l-60 -76h-50zM177 -5q-96 0 -135 73q-20 36 -20 82q0 91 70 133q37 22 85 22q96 0 135 -73q20 -36 20 -82q0 -91 -70 -133q-37 -22 -85 -22zM177 55q60 0 76 58q5 17 5 37q0 72 -52 90q-14 5 -29 5q-60 0 -76 -58q-5 -17 -5 -37q0 -72 52 -90 q14 -5 29 -5z" glyph-name="oacute" horiz-adv-x="354" unicode="ó"/>
<glyph d="M179 364l-38 -38h-61l63 76h72l62 -76h-61zM177 305q96 0 135 -73q20 -36 20 -82q0 -91 -70 -133q-37 -22 -85 -22q-96 0 -135 73q-20 36 -20 82q0 91 70 133q37 22 85 22zM177 55q60 0 76 58q5 17 5 37q0 72 -52 90q-14 5 -29 5q-60 0 -76 -58q-5 -17 -5 -37 q0 -72 52 -90q14 -5 29 -5z" glyph-name="ocircumflex" horiz-adv-x="354" unicode="ô"/>
<glyph d="M277 382q-18 -51 -63 -52q-17 0 -47 18q-12 7 -19 7q-18 -2 -26 -24l-42 22q22 48 63 52q16 0 46 -18q12 -7 19 -7q19 2 27 24zM177 -5q-96 0 -135 73q-20 36 -20 82q0 91 70 133q37 22 85 22q96 0 135 -73q20 -36 20 -82q0 -91 -70 -133q-37 -22 -85 -22zM177 55 q60 0 76 58q5 17 5 37q0 72 -52 90q-14 5 -29 5q-60 0 -76 -58q-5 -17 -5 -37q0 -72 52 -90q14 -5 29 -5z" glyph-name="otilde" horiz-adv-x="354" unicode="õ"/>
<glyph d="M84 340v64h75v-64h-75zM195 340v64h75v-64h-75zM177 -5q-96 0 -135 73q-20 36 -20 82q0 91 70 133q37 22 85 22q96 0 135 -73q20 -36 20 -82q0 -91 -70 -133q-37 -22 -85 -22zM177 55q60 0 76 58q5 17 5 37q0 72 -52 90q-14 5 -29 5q-60 0 -76 -58q-5 -17 -5 -37 q0 -72 52 -90q14 -5 29 -5z" glyph-name="odieresis" horiz-adv-x="354" unicode="ö"/>
<glyph d="M141 267v64h78v-64h-78zM43 161v58h274v-58h-274zM141 49v64h78v-64h-78z" glyph-name="divide" unicode="÷"/>
<glyph d="M294 259q38 -44 38 -109q0 -91 -70 -133q-37 -22 -85 -22q-40 0 -72 14l-11 -14h-65l34 44q-41 43 -41 111q0 91 70 133q37 22 85 22q41 0 76 -16l12 16h64zM96 150q0 -30 11 -53l106 140q-17 8 -36 8q-60 0 -76 -58q-5 -17 -5 -37zM177 55q60 0 76 58q5 17 5 37 q0 28 -9 49l-105 -138q15 -6 33 -6z" glyph-name="oslash" horiz-adv-x="354" unicode="ø"/>
<glyph d="M201 326h-50l-60 76h80zM245 300h72v-300h-64l-4 44q-37 -48 -102 -49q-67 0 -96 56q-13 27 -13 59v190h72v-173q0 -64 49 -71q5 -1 10 -1q47 0 67 38q9 17 9 35v172z" glyph-name="ugrave" unicode="ù"/>
<glyph d="M265 402l-60 -76h-50l30 76h80zM245 300h72v-300h-64l-4 44q-37 -48 -102 -49q-67 0 -96 56q-13 27 -13 59v190h72v-173q0 -64 49 -71q5 -1 10 -1q47 0 67 38q9 17 9 35v172z" glyph-name="uacute" unicode="ú"/>
<glyph d="M180 364l-38 -38h-61l63 76h72l62 -76h-61zM245 300h72v-300h-64l-4 44q-37 -48 -102 -49q-67 0 -96 56q-13 27 -13 59v190h72v-173q0 -64 49 -71q5 -1 10 -1q47 0 67 38q9 17 9 35v172z" glyph-name="ucircumflex" unicode="û"/>
<glyph d="M160 404v-64h-75v64h75zM271 404v-64h-75v64h75zM245 300h72v-300h-64l-4 44q-37 -48 -102 -49q-67 0 -96 56q-13 27 -13 59v190h72v-173q0 -64 49 -71q5 -1 10 -1q47 0 67 38q9 17 9 35v172z" glyph-name="udieresis" unicode="ü"/>
<glyph d="M256 402l-60 -76h-50l30 76h80zM254 300h77l-97 -292q-33 -98 -93 -111q-12 -2 -24 -2q-65 0 -86 53q-8 19 -8 40q1 41 30 74h42l-91 238h77l83 -238h19zM117 -46q28 2 42 40l5 15h-73q-6 -11 -6 -23q0 -27 25 -31q4 -1 7 -1z" glyph-name="yacute" horiz-adv-x="337" unicode="ý"/>
<glyph d="M211 305q79 0 112 -71q17 -37 17 -84q0 -94 -61 -135q-31 -20 -68 -20q-61 1 -96 43v-138h-72v500h72v-140q36 44 96 45zM189 55q55 0 72 55q6 19 6 40q0 70 -49 90q-14 5 -29 5q-56 0 -72 -57q-5 -18 -5 -38q0 -72 49 -90q14 -5 28 -5z" glyph-name="thorn" horiz-adv-x="362" unicode="þ"/>
</font>
</defs>
</svg>
