<svg width="70" height="70" viewBox="0 0 70 70" fill="none" xmlns="http://www.w3.org/2000/svg">
<path d="M54.414 0H15.586C6.9781 0 0 6.9781 0 15.586V54.414C0 63.0219 6.9781 70 15.586 70H54.414C63.0219 70 70 63.0219 70 54.414V15.586C70 6.9781 63.0219 0 54.414 0Z" fill="#67B23C"/>
<path d="M13.7231 21.1816L15.2132 11.0527H17.0048L15.089 23.4699H12.1805L10.2647 11.0527H12.2337L13.7231 21.1816Z" fill="white"/>
<path d="M18.2289 14.0328C18.1729 13.1988 18.4289 12.3737 18.9473 11.7179C19.2263 11.4349 19.5636 11.216 19.9357 11.0766C20.3079 10.9372 20.706 10.8806 21.1022 10.9107C21.4986 10.8807 21.8967 10.9373 22.269 11.0767C22.6412 11.2161 22.9787 11.4349 23.2578 11.7179C23.7759 12.3739 24.0318 13.1988 23.9761 14.0328V14.4231H22.1313V13.9087C22.1645 13.5714 22.0731 13.2337 21.8744 12.9593C21.6768 12.7824 21.4209 12.6845 21.1557 12.6845C20.8905 12.6845 20.6346 12.7824 20.4371 12.9593C20.238 13.2336 20.1466 13.5714 20.1801 13.9087C20.1722 14.3026 20.2703 14.6915 20.4639 15.0347C20.6613 15.3704 20.8996 15.6804 21.1735 15.9574C21.4576 16.2473 21.7621 16.537 22.087 16.8266C22.4151 17.1194 22.7205 17.4367 23.0005 17.7758C23.2913 18.1304 23.5302 18.5245 23.7101 18.9463C23.9092 19.4359 24.0058 19.9611 23.9939 20.4896C24.0497 21.3265 23.7867 22.1536 23.2577 22.8045C22.9744 23.0867 22.6338 23.3048 22.2589 23.4441C21.8841 23.5834 21.4837 23.6405 21.0848 23.6117C20.6859 23.6405 20.2854 23.5834 19.9104 23.4441C19.5354 23.3049 19.1947 23.0867 18.9113 22.8045C18.3823 22.1536 18.1194 21.3265 18.1757 20.4896V19.7268H20.02V20.6137C19.9838 20.9512 20.0829 21.2893 20.2954 21.5539C20.5021 21.7259 20.7625 21.8201 21.0314 21.8201C21.3003 21.8201 21.5607 21.7259 21.7673 21.5539C21.9799 21.2893 22.0789 20.9512 22.0428 20.6137C22.0505 20.2196 21.9524 19.8306 21.7586 19.4872C21.5613 19.1515 21.323 18.8416 21.0491 18.5648C20.7656 18.2749 20.4611 17.985 20.1355 17.6952C19.8074 17.4025 19.5021 17.0854 19.222 16.7464C18.9313 16.3917 18.6924 15.9976 18.5125 15.5757C18.3133 15.0862 18.2168 14.5611 18.2289 14.0328Z" fill="white"/>
<path d="M27.63 16.2852H30.3086V18.0591H27.63V21.6955H31.0004V23.4694H25.6788V11.0522H31.0004V12.8261H27.63V16.2852Z" fill="white"/>
<path d="M13.6524 28.7914C14.0519 28.7592 14.4538 28.8121 14.8314 28.9466C15.209 29.0811 15.5538 29.294 15.8432 29.5715C16.3642 30.2155 16.6211 31.0334 16.5621 31.8598V33.474C16.6213 34.3003 16.3644 35.1183 15.8432 35.7623C15.5539 36.0397 15.209 36.2527 14.8314 36.3872C14.4538 36.5217 14.0519 36.5746 13.6524 36.5424H12.73V41.2081H10.7787V28.7909L13.6524 28.7914ZM12.73 30.5652V34.769H13.6524C13.7813 34.7775 13.9106 34.7598 14.0325 34.7172C14.1544 34.6745 14.2665 34.6077 14.3619 34.5206C14.5584 34.2557 14.6472 33.926 14.6103 33.5982V31.7356C14.6471 31.4078 14.5583 31.0782 14.3619 30.8132C14.2665 30.7262 14.1544 30.6594 14.0325 30.6167C13.9106 30.574 13.7813 30.5564 13.6524 30.5649L12.73 30.5652Z" fill="white"/>
<path d="M22.2025 41.2086C22.1788 41.1259 22.1552 41.049 22.1321 40.9777C22.1043 40.8909 22.0834 40.8021 22.0697 40.7121C22.0493 40.5769 22.0376 40.4405 22.0345 40.3038C22.0281 40.1382 22.025 39.9313 22.0252 39.6829V37.7317C22.0659 37.3013 21.9596 36.8699 21.7237 36.5077C21.5973 36.3803 21.4443 36.2824 21.2756 36.221C21.1069 36.1597 20.9267 36.1364 20.748 36.1529H20.0739V41.2085H18.1227V28.7913H21.067C21.464 28.7547 21.8643 28.7987 22.2438 28.9206C22.6234 29.0425 22.9744 29.2399 23.2757 29.5009C23.7746 30.0999 24.0197 30.8701 23.9589 31.6473V32.6225C23.9589 33.8997 23.5331 34.7395 22.6817 35.1419C22.911 35.2255 23.1202 35.3563 23.2958 35.5258C23.4714 35.6953 23.6096 35.8997 23.7014 36.1258C23.8978 36.6563 23.9911 37.2194 23.9762 37.7848V39.7006C23.9746 39.9699 23.9866 40.2392 24.0121 40.5073C24.0382 40.7481 24.0979 40.9841 24.1895 41.2083L22.2025 41.2086ZM20.0738 30.5654V34.3792H20.8366C21.1491 34.3978 21.4569 34.2962 21.697 34.0954C21.8157 33.9539 21.9044 33.7897 21.9577 33.6128C22.011 33.4359 22.0278 33.2501 22.0071 33.0665V31.8427C22.0357 31.5001 21.9518 31.1576 21.768 30.867C21.6745 30.7615 21.5576 30.6793 21.4266 30.627C21.2957 30.5746 21.1544 30.5536 21.0139 30.5655L20.0738 30.5654Z" fill="white"/>
<path d="M25.6613 31.7717C25.6048 30.9302 25.8784 30.0998 26.4241 29.4567C26.7138 29.1757 27.0594 28.9586 27.4383 28.8195C27.8173 28.6804 28.2213 28.6225 28.6241 28.6495C29.0268 28.6226 29.4307 28.6805 29.8096 28.8195C30.1885 28.9586 30.534 29.1757 30.8237 29.4567C31.3691 30.0999 31.6427 30.9302 31.5865 31.7717V38.2286C31.6427 39.07 31.3691 39.9003 30.8237 40.5435C30.534 40.8246 30.1885 41.0417 29.8096 41.1807C29.4307 41.3198 29.0268 41.3777 28.6241 41.3507C28.2213 41.3777 27.8173 41.3198 27.4383 41.1807C27.0594 41.0417 26.7138 40.8246 26.4241 40.5435C25.8784 39.9004 25.6048 39.0701 25.6613 38.2286V31.7717ZM27.613 38.3528C27.578 38.6927 27.6765 39.0329 27.8879 39.3015C28.0919 39.4791 28.3533 39.5769 28.6238 39.5769C28.8943 39.5769 29.1557 39.4791 29.3597 39.3015C29.5712 39.033 29.67 38.6928 29.6352 38.3528V31.6475C29.6699 31.3073 29.5712 30.9669 29.3597 30.6982C29.1555 30.5209 28.8942 30.4233 28.6238 30.4233C28.3534 30.4233 28.0921 30.5209 27.8879 30.6982C27.6766 30.967 27.5781 31.3074 27.613 31.6475V38.3528Z" fill="white"/>
<path d="M13.7231 56.6591L15.2132 46.5303H17.0048L15.089 58.9474H12.1805L10.2647 46.5303H12.2337L13.7231 56.6591Z" fill="white"/>
<path d="M18.4772 46.5303H20.4285V58.9474H18.4772V46.5303Z" fill="white"/>
<path d="M22.4147 46.5301H25.5013C25.9008 46.498 26.3027 46.5509 26.6803 46.6854C27.0579 46.8198 27.4027 47.0328 27.692 47.3102C28.2126 47.9545 28.4693 48.7723 28.4104 49.5985V55.8781C28.4695 56.7043 28.2128 57.5222 27.692 58.1664C27.4028 58.444 27.058 58.6571 26.6804 58.7917C26.3028 58.9262 25.9009 58.9791 25.5013 58.9469H22.4147V46.5301ZM24.366 48.304V57.1734H25.4658C25.5987 57.1806 25.7317 57.1608 25.8568 57.115C25.9818 57.0693 26.0962 56.9986 26.1931 56.9073C26.3993 56.6398 26.4946 56.3031 26.4592 55.9672V49.5103C26.4946 49.1743 26.3993 48.8376 26.1931 48.5701C26.0963 48.4787 25.9819 48.408 25.8568 48.3622C25.7318 48.3165 25.5987 48.2967 25.4658 48.304H24.366Z" fill="white"/>
<path d="M32.1704 58.9474H30.2191V46.5303H32.1704V51.8519H34.3877V46.5303H36.3745V58.9474H34.3877V53.6258H32.1704V58.9474Z" fill="white"/>
<path d="M38.2014 49.5102C38.1449 48.6688 38.4186 47.8384 38.9642 47.1953C39.5787 46.6742 40.3582 46.3882 41.1638 46.3882C41.9695 46.3882 42.749 46.6742 43.3634 47.1953C43.9089 47.8385 44.1824 48.6688 44.1262 49.5102V55.9672C44.1824 56.8086 43.9089 57.6389 43.3634 58.2821C42.749 58.8032 41.9695 59.0892 41.1638 59.0892C40.3582 59.0892 39.5787 58.8032 38.9642 58.2821C38.4186 57.639 38.1449 56.8086 38.2014 55.9672V49.5102ZM40.1531 56.0913C40.1181 56.4313 40.2167 56.7715 40.428 57.0401C40.6321 57.2177 40.8934 57.3155 41.1639 57.3155C41.4344 57.3155 41.6958 57.2177 41.8999 57.0401C42.1114 56.7716 42.2102 56.4313 42.1753 56.0913V49.3861C42.2101 49.0459 42.1113 48.7055 41.8999 48.4367C41.6957 48.2595 41.4343 48.1619 41.1639 48.1619C40.8935 48.1619 40.6322 48.2595 40.428 48.4367C40.2168 48.7056 40.1182 49.046 40.1531 49.3861V56.0913Z" fill="white"/>
<path d="M45.9533 46.5301H49.0399C49.4394 46.498 49.8413 46.5509 50.2189 46.6853C50.5965 46.8198 50.9413 47.0328 51.2307 47.3102C51.7512 47.9545 52.008 48.7723 51.949 49.5985V55.8781C52.0082 56.7043 51.7514 57.5222 51.2307 58.1664C50.9415 58.444 50.5966 58.6571 50.219 58.7917C49.8414 58.9262 49.4395 58.9791 49.0399 58.9469H45.9533V46.5301ZM47.9046 48.304V57.1734H49.0044C49.1373 57.1806 49.2702 57.1607 49.3952 57.115C49.5201 57.0692 49.6345 56.9986 49.7314 56.9073C49.9376 56.6398 50.0329 56.3031 49.9975 55.9672V49.5103C50.0329 49.1743 49.9376 48.8376 49.7314 48.5701C49.6346 48.4787 49.5202 48.408 49.3953 48.3623C49.2703 48.3165 49.1373 48.2967 49.0044 48.304H47.9046Z" fill="white"/>
<path d="M55.3187 54.832L52.853 46.5303H54.893L56.383 52.1885L57.8731 46.5303H59.7353L57.2696 54.832V58.9474H55.3184L55.3187 54.832Z" fill="white"/>
<path d="M48.5636 29.3477V34.347L43.1984 34.4524C43.1984 34.4524 41.6463 33.677 41.5186 32.5145C41.3899 31.3505 42.877 29.3477 42.877 29.3477H48.5636Z" fill="white"/>
<path d="M40.9358 33.023C40.1957 31.7572 37.8355 27.7331 37.8355 27.7331C37.741 27.3552 37.7244 26.9621 37.7868 26.5776C37.8491 26.1932 37.9892 25.8254 38.1984 25.4969C38.5979 24.954 38.961 24.3853 39.2853 23.7944L37.6356 22.2407L43.2364 22.5002L45.8877 27.3843L44.1685 26.3771C44.1685 26.3771 40.0965 30.7708 40.9358 33.023Z" fill="white"/>
<path d="M52.3312 23.3562L56.161 20.1401L59.6892 24.1815C59.6892 24.1815 60.0927 25.8667 59.2851 26.7147C58.4776 27.5587 55.9848 27.7106 55.9848 27.7106L52.3312 23.3562Z" fill="white"/>
<path d="M60.0474 26.8321C59.556 28.2132 57.9912 32.609 57.9912 32.609C57.7627 32.9245 57.4722 33.19 57.1375 33.3893C56.8028 33.5886 56.4309 33.7174 56.0447 33.768C55.3711 33.811 54.7011 33.8992 54.0393 34.032L53.9151 36.2941L50.5097 31.8341L52.5473 26.6655L52.879 28.6313C52.879 28.6313 58.8608 28.9241 60.0474 26.8321Z" fill="white"/>
<path d="M45.2629 21.8742L40.8904 19.4461L43.4016 14.7059C43.4016 14.7059 44.8331 13.7263 45.9137 14.1791C46.9907 14.6313 48.0221 16.9023 48.0221 16.9023L45.2629 21.8742Z" fill="white"/>
<path d="M45.7527 13.4229C47.2186 13.3904 51.8813 13.2817 51.8813 13.2817C52.2578 13.3821 52.6098 13.5584 52.9158 13.7996C53.2218 14.0409 53.4752 14.3421 53.6607 14.6848C53.9403 15.2991 54.2615 15.8936 54.6221 16.4641L56.7803 15.7738L53.8335 20.5475L48.275 20.4884L49.9907 19.4758C49.9907 19.4758 48.1283 13.7856 45.7527 13.4229Z" fill="white"/>
</svg>
