<?xml version="1.0" encoding="UTF-8"?>
<!DOCTYPE svg  PUBLIC '-//W3C//DTD SVG 1.1//EN'  'http://www.w3.org/Graphics/SVG/1.1/DTD/svg11.dtd'>
<svg version="1.1" xmlns="http://www.w3.org/2000/svg">
<defs>
<font id="e-Ukraine-Regular" horiz-adv-x="360">
<font-face font-family="e-Ukraine" font-weight="400" ascent="409" bbox="-20 -110 543 495" cap-height="380" descent="-103" panose-1="0 0 5 0 0 0 0 0 0 0" underline-position="-62" underline-thickness="35" unicode-range="U+0020-00FE" units-per-em="512" x-height="300"/>
<missing-glyph/>
<glyph glyph-name="space" horiz-adv-x="160" unicode=" "/>
<glyph d="M66 126l-11 254h70l-11 -254h-48zM51 0v78h78v-78h-78z" glyph-name="exclam" horiz-adv-x="180" unicode="!"/>
<glyph d="M33 244l-6 136h63l-7 -136h-50zM141 244l-6 136h63l-7 -136h-50z" glyph-name="quotedbl" horiz-adv-x="225" unicode='"'/>
<glyph d="M336 231h-62v-82h62v-58h-62v-91h-52v91h-84v-91h-52v91h-62v58h62v82h-62v58h62v91h52v-91h84v91h52v-91h62v-58zM222 149v82h-84v-82h84z" glyph-name="numbersign" unicode="#"/>
<glyph d="M323 109q0 -71 -72 -100q-25 -10 -56 -13v-40h-39v39q-84 7 -134 55l37 46q40 -38 97 -46v118q-86 26 -109 63q-12 21 -12 46q0 68 70 95q23 9 51 12v36h39v-36q66 -4 119 -44l-35 -47q-37 31 -84 37v-113q101 -26 121 -72q7 -16 7 -36zM95 280q0 -30 45 -47q8 -3 16 -5 v102q-57 -11 -61 -50zM195 50q64 9 66 53q0 28 -37 44q-12 5 -29 10v-107z" glyph-name="dollar" horiz-adv-x="353" unicode="$"/>
<glyph d="M130 155q-68 0 -93 61q-9 25 -9 54q0 79 57 106q21 9 45 9q68 0 93 -61q9 -25 9 -54q0 -79 -57 -106q-21 -9 -45 -9zM125 0l241 380h47l-241 -380h-47zM130 197q39 0 51 45q3 13 3 28q0 57 -38 70q-8 3 -16 3q-39 0 -51 -45q-3 -13 -3 -28q0 -57 38 -70q8 -3 16 -3z M408 -5q-68 0 -93 61q-9 25 -9 54q0 79 57 106q21 9 45 9q68 0 93 -61q9 -25 9 -54q0 -79 -57 -106q-21 -9 -45 -9zM408 37q39 0 51 45q3 13 3 28q0 57 -38 70q-8 3 -16 3q-39 0 -51 -45q-3 -13 -3 -28q0 -57 38 -70q8 -3 16 -3z" glyph-name="percent" horiz-adv-x="538" unicode="%"/>
<glyph d="M418 91l50 -11q-5 -74 -64 -84q-8 -1 -16 -1q-39 1 -95 42q-58 -42 -131 -42q-99 0 -129 62q-9 20 -9 44q2 75 93 105q-40 50 -40 88q0 57 55 80q25 11 55 11q78 0 105 -50q9 -18 9 -38q0 -62 -75 -99q-11 -5 -21 -9q44 -46 86 -81q37 45 48 105l56 -12q-17 -76 -62 -127 q38 -26 55 -27q25 2 30 44zM187 337q-37 0 -50 -30q-4 -10 -4 -19q1 -25 38 -64q70 24 71 68q0 37 -41 44q-7 1 -14 1zM167 47q44 1 83 25q-46 41 -99 97q-65 -22 -66 -68q0 -37 46 -49q17 -5 36 -5z" glyph-name="ampersand" horiz-adv-x="482" unicode="&amp;"/>
<glyph d="M33 244l-6 136h63l-7 -136h-50z" glyph-name="quotesingle" horiz-adv-x="117" unicode="'"/>
<glyph d="M184 -74q-93 49 -125 157q-13 42 -13 87q0 124 82 204q26 25 56 41l24 -32q-89 -68 -99 -187q-1 -14 -1 -26q0 -123 85 -201q8 -7 15 -12z" glyph-name="parenleft" horiz-adv-x="236" unicode="("/>
<glyph d="M63 -74l-24 31q89 70 99 189q1 12 1 24q0 124 -85 200q-8 7 -15 13l24 32q94 -50 126 -159q12 -42 12 -86q0 -122 -81 -202q-26 -25 -57 -42z" glyph-name="parenright" horiz-adv-x="230" unicode=")"/>
<glyph d="M218 315l-67 -21l41 -57l-30 -22l-41 57l-41 -57l-30 22l41 57l-67 22l11 36l68 -23v71h36v-71l68 23z" glyph-name="asterisk" horiz-adv-x="242" unicode="*"/>
<glyph d="M316 215v-50h-110v-111h-52v111h-110v50h110v111h52v-111h110z" glyph-name="plus" unicode="+"/>
<glyph d="M41 -72v37h10q27 2 28 33v2h-38v78h78v-72q0 -71 -57 -77q-5 -1 -10 -1h-11z" glyph-name="comma" horiz-adv-x="160" unicode=","/>
<glyph d="M35 141v58h174v-58h-174z" glyph-name="hyphen" horiz-adv-x="244" unicode="-"/>
<glyph d="M41 0v78h78v-78h-78z" glyph-name="period" horiz-adv-x="160" unicode="."/>
<glyph d="M-20 -20l222 420h56l-222 -420h-56z" glyph-name="slash" horiz-adv-x="238" unicode="/"/>
<glyph d="M180 -5q-91 0 -130 85q-22 47 -22 110q0 123 73 172q35 23 79 23q91 0 130 -85q22 -47 22 -110q0 -123 -73 -172q-35 -23 -79 -23zM180 47q59 0 81 72q10 31 10 71q0 104 -55 134q-17 9 -36 9q-59 0 -81 -72q-10 -31 -10 -71q0 -104 55 -134q17 -9 36 -9z" glyph-name="zero" unicode="0"/>
<glyph d="M106 0v268h-89v47h16q63 0 78 25q8 14 11 40h44v-380h-60z" glyph-name="one" horiz-adv-x="234" unicode="1"/>
<glyph d="M103 54h185v-54h-272v39l132 118q70 64 70 113q0 45 -40 60q-13 4 -26 4q-63 0 -76 -64q-2 -10 -3 -20l-56 11q6 83 77 113q28 11 61 11q78 0 110 -55q14 -25 14 -55q0 -57 -65 -122q-18 -17 -41 -38z" glyph-name="two" horiz-adv-x="309" unicode="2"/>
<glyph d="M172 233q69 0 99 -55q14 -26 14 -57q0 -69 -59 -105q-36 -21 -81 -21q-95 0 -134 71l-6 12l46 27q28 -58 91 -59q64 0 80 49q4 13 4 26q0 50 -42 65q-13 5 -27 5q-24 -1 -41 -11l-30 32l111 114h-175v54h251v-44z" glyph-name="three" horiz-adv-x="310" unicode="3"/>
<glyph d="M321 145v-51h-61v-94h-58v94h-187v48l173 238h72v-235h61zM77 145h125v172z" glyph-name="four" horiz-adv-x="328" unicode="4"/>
<glyph d="M163 254q72 0 109 -57q20 -32 20 -71q0 -75 -64 -111q-35 -20 -80 -20q-85 0 -125 60l-6 10l40 32q26 -45 80 -51h10q59 0 78 46q7 16 7 34q0 55 -46 74q-16 6 -34 6q-49 -1 -73 -39l-45 15l17 198h213v-55h-166l-8 -95q29 24 73 24z" glyph-name="five" horiz-adv-x="317" unicode="5"/>
<glyph d="M190 243q78 0 112 -56q16 -29 16 -64q0 -71 -61 -107q-35 -21 -77 -21q-100 0 -136 99q-14 41 -14 91q0 120 69 172q38 28 89 28q79 -1 119 -53l-40 -37q-28 38 -78 39q-79 0 -99 -89q-5 -25 -5 -54q36 51 105 52zM180 45q50 0 71 39q9 17 9 36q0 53 -46 70q-15 6 -32 6 q-52 0 -73 -40q-8 -16 -8 -34q0 -54 46 -71q16 -6 33 -6z" glyph-name="six" horiz-adv-x="333" unicode="6"/>
<glyph d="M8 380h275v-45q-99 -92 -126 -245q-8 -45 -8 -90h-62q0 142 81 265q23 34 48 60h-208v55z" glyph-name="seven" horiz-adv-x="287" unicode="7"/>
<glyph d="M238 194q67 -28 68 -93q0 -66 -67 -93q-32 -13 -73 -13q-95 0 -128 58q-12 22 -12 48q1 66 67 93q-55 27 -56 85q0 68 65 94q28 12 64 12q87 0 118 -58q11 -22 11 -48q-1 -59 -57 -85zM166 338q-58 0 -70 -43q-3 -10 -3 -19q0 -47 48 -59q12 -3 25 -3q57 0 69 43 q3 9 3 19q0 47 -47 59q-12 3 -25 3zM166 42q61 0 77 41q4 11 4 23q0 45 -50 58q-15 4 -31 4q-64 0 -79 -43q-3 -9 -3 -19q0 -47 50 -60q15 -4 32 -4z" glyph-name="eight" horiz-adv-x="331" unicode="8"/>
<glyph d="M152 385q100 0 136 -99q14 -41 14 -91q0 -122 -69 -173q-38 -27 -89 -27q-78 1 -119 53l41 37q28 -38 78 -39q77 0 98 86q6 27 6 57v1q-35 -52 -105 -53q-80 0 -113 59q-15 27 -15 61q0 70 60 107q35 21 77 21zM151 184q52 0 73 40q8 16 8 34q0 54 -46 71q-16 6 -33 6 q-50 0 -72 -39q-9 -17 -9 -36q0 -52 46 -70q16 -6 33 -6z" glyph-name="nine" horiz-adv-x="333" unicode="9"/>
<glyph d="M40 222v78h78v-78h-78zM40 0v78h78v-78h-78z" glyph-name="colon" horiz-adv-x="158" unicode=":"/>
<glyph d="M40 222v78h78v-78h-78zM40 -72v37h10q27 2 28 33v2h-38v78h78v-72q0 -71 -57 -77q-5 -1 -10 -1h-11z" glyph-name="semicolon" horiz-adv-x="158" unicode=";"/>
<glyph d="M316 325v-54l-201 -80l201 -79v-57l-272 109v52z" glyph-name="less" unicode="&lt;"/>
<glyph d="M44 233v50h272v-50h-272zM44 97v50h272v-50h-272z" glyph-name="equal" unicode="="/>
<glyph d="M44 325l272 -109v-52l-272 -109v54l201 80l-201 79v57z" glyph-name="greater" unicode="&gt;"/>
<glyph d="M125 118q-2 38 24 64q10 11 25 23q40 33 44 56q1 6 1 12q0 48 -44 59q-10 2 -20 2q-58 0 -76 -56q-4 -13 -5 -26l-55 11q8 80 75 110q28 12 62 12q80 0 111 -56q13 -24 13 -52q0 -53 -55 -96q-5 -3 -8 -6q-41 -31 -42 -53v-4h-50zM113 0v78h78v-78h-78z" glyph-name="question" horiz-adv-x="310" unicode="?"/>
<glyph d="M401 52h12v-52q-13 -3 -21 -2q-48 0 -56 35q-1 6 -2 13q-40 -46 -104 -50q-66 0 -89 49q-9 18 -9 39q0 72 103 93q13 3 29 5q51 8 56 15q2 3 2 6q0 32 -44 47q-24 8 -52 8q-91 0 -129 -71q-20 -37 -20 -84q0 -100 77 -140q37 -18 84 -18q55 1 95 27l21 -41 q-53 -31 -117 -31q-115 0 -173 81q-36 52 -36 122q0 106 76 163q53 39 124 39q96 0 136 -63q18 -29 18 -66v-105q2 -18 19 -19zM238 44q50 0 76 36q11 17 11 34v42q-15 -8 -57 -15q-65 -10 -76 -37q-3 -8 -3 -17q2 -42 49 -43z" glyph-name="at" horiz-adv-x="432" unicode="@"/>
<glyph d="M323 0l-34 88h-182l-34 -88h-66l153 380h77l153 -380h-67zM129 144h138l-69 178z" glyph-name="A" horiz-adv-x="397" unicode="A"/>
<glyph d="M298 194q54 -26 55 -90q0 -72 -67 -96q-25 -8 -55 -8h-174v380h171q82 0 109 -57q9 -20 9 -44q-1 -59 -48 -85zM218 326h-100v-105h100q65 2 66 53q-2 51 -66 52zM219 54q70 2 71 57q-2 56 -71 57h-101v-114h101z" glyph-name="B" horiz-adv-x="381" unicode="B"/>
<glyph d="M209 -5q-105 0 -154 83q-27 48 -27 112q0 109 75 162q45 33 106 33q102 0 145 -79q9 -16 14 -33l-59 -21q-24 77 -101 78q-71 0 -101 -67q-14 -32 -14 -73q0 -99 66 -130q22 -10 49 -10q78 2 101 78l59 -21q-26 -82 -107 -105q-25 -7 -52 -7z" glyph-name="C" horiz-adv-x="387" unicode="C"/>
<glyph d="M196 380q124 0 168 -94q20 -42 20 -96q0 -111 -79 -161q-47 -29 -109 -29h-139v380h139zM196 55q84 0 112 73q11 28 11 62q0 94 -68 124q-25 11 -55 11h-76v-270h76z" glyph-name="D" horiz-adv-x="412" unicode="D"/>
<glyph d="M120 56h204v-56h-267v380h262v-56h-199v-102h154v-54h-154v-112z" glyph-name="E" horiz-adv-x="344" unicode="E"/>
<glyph d="M320 323h-200v-103h155v-55h-155v-165h-63v380h263v-57z" glyph-name="F" horiz-adv-x="331" unicode="F"/>
<glyph d="M223 193h157v-193h-47l-5 57q-44 -61 -123 -62q-101 0 -149 81q-28 48 -28 113q0 110 77 164q47 32 110 32q107 0 152 -84q5 -9 8 -18l-58 -22q-27 68 -103 69q-75 0 -106 -67q-15 -32 -15 -73q0 -97 64 -129q24 -11 52 -11q68 0 100 55q10 18 14 39h-100v49z" glyph-name="G" horiz-adv-x="418" unicode="G"/>
<glyph d="M310 380h63v-380h-63v166h-190v-166h-63v380h63v-156h190v156z" glyph-name="H" horiz-adv-x="430" unicode="H"/>
<glyph d="M57 0v380h63v-380h-63z" glyph-name="I" horiz-adv-x="177" unicode="I"/>
<glyph d="M106 -5q-71 0 -100 61q-4 9 -7 19l53 21q11 -46 55 -47q47 0 52 52q1 6 1 11v268h63v-267q0 -80 -64 -108q-24 -10 -53 -10z" glyph-name="J" horiz-adv-x="275" unicode="J"/>
<glyph d="M309 0l-132 182l-57 -56v-126h-63v380h63v-181l178 181h79l-156 -154l165 -226h-77z" glyph-name="K" horiz-adv-x="395" unicode="K"/>
<glyph d="M120 58h201v-58h-264v380h63v-322z" glyph-name="L" horiz-adv-x="336" unicode="L"/>
<glyph d="M481 380v-380h-61v308l-116 -308h-70l-116 308v-308h-61v380h97l116 -306l115 306h96z" glyph-name="M" horiz-adv-x="538" unicode="M"/>
<glyph d="M315 380h60v-380h-61l-197 281v-281h-60v380h62l196 -279v279z" glyph-name="N" horiz-adv-x="432" unicode="N"/>
<glyph d="M211 -5q-107 0 -155 83q-28 48 -28 112q0 108 75 162q47 33 108 33q107 0 155 -83q28 -48 28 -112q0 -108 -75 -162q-47 -33 -108 -33zM211 50q74 0 104 67q14 33 14 73q0 91 -61 126q-26 14 -57 14q-74 0 -104 -67q-14 -33 -14 -73q0 -91 61 -126q26 -14 57 -14z" glyph-name="O" horiz-adv-x="422" unicode="O"/>
<glyph d="M216 380q93 0 124 -64q11 -24 11 -53q0 -79 -71 -107q-29 -11 -64 -11h-96v-145h-63v380h159zM208 199q78 2 79 63q-2 62 -79 63h-88v-126h88z" glyph-name="P" horiz-adv-x="370" unicode="P"/>
<glyph d="M394 190q0 -109 -76 -163q-34 -23 -76 -30v-18q2 -29 33 -30q18 0 47 2v-51q-33 -2 -51 -2q-86 2 -87 84v15q-98 11 -137 98q-19 42 -19 95q0 108 75 162q47 33 108 33q107 0 155 -83q28 -48 28 -112zM93 190q0 -91 61 -126q26 -14 57 -14q74 0 104 67q14 33 14 73 q0 91 -61 126q-26 14 -57 14q-74 0 -104 -67q-14 -33 -14 -73z" glyph-name="Q" horiz-adv-x="422" unicode="Q"/>
<glyph d="M298 0l-89 148h-90v-148h-62v380h157q92 0 123 -63q12 -24 12 -53q0 -76 -69 -104q-3 -2 -6 -3l96 -157h-72zM119 325v-125h89q75 2 76 63q-2 61 -76 62h-89z" glyph-name="R" horiz-adv-x="388" unicode="R"/>
<glyph d="M173 -5q-93 1 -153 55l37 48q50 -48 121 -48t82 42q1 6 1 11q0 26 -38 42q-17 7 -48 16q-89 26 -116 54q-25 25 -25 62q0 68 69 95q33 13 75 13q79 -1 137 -45l-35 -48q-47 38 -106 38q-61 0 -74 -36q-3 -7 -3 -14q0 -28 45 -45q18 -7 45 -14q103 -26 127 -69 q10 -19 10 -43q0 -75 -76 -102q-33 -12 -75 -12z" glyph-name="S" horiz-adv-x="348" unicode="S"/>
<glyph d="M344 380v-58h-135v-322h-64v322h-135v58h334z" glyph-name="T" horiz-adv-x="354" unicode="T"/>
<glyph d="M212 -5q-100 0 -141 73q-19 36 -19 82v230h63v-229q0 -74 59 -94q18 -6 38 -6q70 0 91 60q6 19 6 40v229h63v-230q0 -95 -74 -135q-38 -20 -86 -20z" glyph-name="U" horiz-adv-x="424" unicode="U"/>
<glyph d="M310 380h67l-144 -380h-77l-143 380h67l116 -315z" glyph-name="V" horiz-adv-x="390" unicode="V"/>
<glyph d="M481 380h62l-110 -380h-66l-87 298l-86 -298h-66l-110 380h65l82 -290l82 290h67l83 -292z" glyph-name="W" horiz-adv-x="561" unicode="W"/>
<glyph d="M369 0h-73l-108 150l-106 -150h-73l143 194l-134 186h74l98 -139l99 139h71l-133 -184z" glyph-name="X" horiz-adv-x="378" unicode="X"/>
<glyph d="M367 380l-150 -230v-150h-63v152l-150 228h73l110 -171l109 171h71z" glyph-name="Y" horiz-adv-x="371" unicode="Y"/>
<glyph d="M329 380v-50l-223 -272h223v-58h-306v50l224 272h-213v58h295z" glyph-name="Z" horiz-adv-x="353" unicode="Z"/>
<glyph d="M197 350h-83v-360h83v-50h-140v460h140v-50z" glyph-name="bracketleft" horiz-adv-x="236" unicode="["/>
<glyph d="M258 -20h-56l-222 420h56z" glyph-name="backslash" horiz-adv-x="238" unicode="\"/>
<glyph d="M203 400v-460h-140v50h83v360h-83v50h140z" glyph-name="bracketright" horiz-adv-x="240" unicode="]"/>
<glyph d="M306 190h-55l-71 141l-72 -141h-54l98 190h56z" glyph-name="asciicircum" unicode="^"/>
<glyph d="M3 -4h254v-56h-254v56z" glyph-name="underscore" horiz-adv-x="260" unicode="_"/>
<glyph d="M119 328h-43l-59 73h72z" glyph-name="grave" horiz-adv-x="160" unicode="`"/>
<glyph d="M291 52h11v-52q-7 -2 -21 -2q-47 0 -56 36l-2 12q-41 -47 -105 -51q-66 0 -90 49q-8 18 -8 39q0 71 93 92q15 4 36 7q55 7 63 19q4 7 4 14q0 29 -40 38q-11 2 -23 2q-52 -1 -90 -40l-37 39q55 51 130 51q86 0 110 -61q6 -18 6 -38v-135q2 -18 19 -19zM128 44q49 0 74 36 q12 16 12 34v39q-12 -7 -58 -15q-56 -9 -69 -26q-8 -11 -8 -25q2 -42 49 -43z" glyph-name="a" horiz-adv-x="322" unicode="a"/>
<glyph d="M206 305q80 0 114 -71q17 -37 17 -84q0 -93 -61 -134q-32 -21 -70 -21q-67 1 -103 51l-4 -46h-52v400h60v-142q38 46 99 47zM190 46q59 0 79 58q7 21 7 46q0 75 -51 97q-17 7 -35 7q-59 0 -79 -57q-8 -22 -8 -47q0 -73 51 -97q17 -7 36 -7z" glyph-name="b" horiz-adv-x="362" unicode="b"/>
<glyph d="M175 -5q-87 0 -128 68q-22 38 -22 87q0 90 66 132q37 23 84 23q84 0 121 -61q8 -14 13 -29l-57 -18q-22 56 -77 57q-62 0 -82 -58q-7 -21 -7 -46q0 -75 53 -97q17 -7 36 -7q53 0 75 53l2 4l57 -18q-19 -65 -89 -84q-22 -6 -45 -6z" glyph-name="c" horiz-adv-x="326" unicode="c"/>
<glyph d="M255 400h60v-400h-52l-4 47q-39 -51 -103 -52q-80 0 -114 71q-17 37 -17 84q0 93 61 134q32 21 70 21q63 -1 99 -45v140zM172 46q59 0 79 57q8 22 8 47q0 73 -51 97q-17 7 -36 7q-59 0 -79 -58q-7 -21 -7 -46q0 -75 51 -97q17 -7 35 -7z" glyph-name="d" horiz-adv-x="362" unicode="d"/>
<glyph d="M85 131q9 -69 69 -82q12 -3 24 -3q59 1 89 39l41 -36q-46 -54 -130 -54q-99 0 -136 77q-17 35 -17 78q0 91 66 133q36 22 82 22q89 0 127 -73q18 -36 18 -82q0 -13 -2 -19h-231zM173 255q-63 0 -83 -62l-4 -16h171q-11 65 -66 76q-9 2 -18 2z" glyph-name="e" horiz-adv-x="341" unicode="e"/>
<glyph d="M171 356q-32 -5 -35 -36v-20h86v-51h-86v-249h-60v249h-62v51h62v21q0 63 58 81q18 5 39 5q45 -1 82 -25l-28 -45q-26 19 -56 19z" glyph-name="f" horiz-adv-x="234" unicode="f"/>
<glyph d="M263 300h52l-1 -269q0 -84 -68 -119q-34 -17 -78 -17q-79 1 -122 43l32 42q34 -34 89 -34q86 8 91 86v29q-39 -47 -102 -48q-80 0 -114 69q-17 34 -17 77q0 87 61 126q31 20 70 20q66 -1 103 -48zM172 62q61 0 80 55q7 19 7 41q0 68 -51 89q-17 7 -36 7q-59 0 -79 -54 q-7 -19 -7 -42q0 -69 52 -90q16 -6 34 -6z" glyph-name="g" horiz-adv-x="362" unicode="g"/>
<glyph d="M208 305q69 0 97 -58q12 -26 12 -57v-190h-60v174q0 68 -50 78q-8 2 -16 2q-50 0 -73 -41q-11 -19 -11 -41v-172h-60v400h60v-142q38 46 101 47z" glyph-name="h" horiz-adv-x="359" unicode="h"/>
<glyph d="M49 342v60h66v-60h-66zM52 0v300h60v-300h-60z" glyph-name="i" horiz-adv-x="164" unicode="i"/>
<glyph d="M50 342v60h66v-60h-66zM30 -102q-13 0 -30 2v54q9 -1 23 -1q29 2 30 31v316h60v-317q-2 -84 -83 -85z" glyph-name="j" horiz-adv-x="160" unicode="j"/>
<glyph d="M251 0l-101 139l-43 -41v-98h-60v400h60v-234l135 134h76l-125 -120l131 -180h-73z" glyph-name="k" horiz-adv-x="325" unicode="k"/>
<glyph d="M47 0v400h60v-400h-60z" glyph-name="l" horiz-adv-x="154" unicode="l"/>
<glyph d="M406 305q69 0 96 -59q11 -25 11 -56v-190h-60v174q-5 77 -63 80q-51 0 -72 -44q-8 -18 -8 -38v-172h-60v174q-2 79 -63 80q-51 0 -72 -44q-8 -18 -8 -38v-172h-60v300h52l4 -45q35 49 101 50q67 -1 95 -58q39 55 107 58z" glyph-name="m" horiz-adv-x="555" unicode="m"/>
<glyph d="M209 305q67 0 96 -56q13 -27 13 -59v-190h-60v174q0 68 -50 78q-8 2 -16 2q-51 0 -74 -41q-11 -19 -11 -41v-172h-60v300h52l4 -47q38 51 106 52z" glyph-name="n" unicode="n"/>
<glyph d="M177 -5q-93 0 -132 71q-20 37 -20 84q0 90 67 132q37 23 85 23q93 0 132 -71q20 -37 20 -84q0 -90 -67 -132q-37 -23 -85 -23zM177 46q60 0 82 55q9 23 9 49q0 72 -52 96q-18 8 -39 8q-60 0 -82 -55q-9 -23 -9 -49q0 -72 52 -96q18 -8 39 -8z" glyph-name="o" horiz-adv-x="354" unicode="o"/>
<glyph d="M206 305q80 0 114 -71q17 -37 17 -84q0 -93 -61 -134q-32 -21 -70 -21q-63 1 -99 45v-140h-60v400h52l4 -47q39 51 103 52zM190 46q59 0 79 58q7 21 7 46q0 75 -51 97q-17 7 -35 7q-59 0 -79 -57q-8 -22 -8 -47q0 -73 51 -97q17 -7 36 -7z" glyph-name="p" horiz-adv-x="362" unicode="p"/>
<glyph d="M263 300h52v-400h-60v142q-38 -46 -99 -47q-80 0 -114 71q-17 37 -17 84q0 93 61 134q32 21 70 21q67 -1 103 -51zM172 46q59 0 79 57q8 22 8 47q0 73 -51 97q-17 7 -36 7q-59 0 -79 -58q-7 -21 -7 -46q0 -75 51 -97q17 -7 35 -7z" glyph-name="q" horiz-adv-x="362" unicode="q"/>
<glyph d="M208 305q12 0 23 -3v-57q-26 2 -40 2q-56 0 -76 -44q-8 -16 -8 -35v-168h-60v300h52l4 -48q37 52 105 53z" glyph-name="r" horiz-adv-x="241" unicode="r"/>
<glyph d="M145 -5q-79 1 -129 46l33 43q39 -37 98 -37q61 1 62 35q0 21 -35 33q-15 5 -36 10q-90 23 -105 66q-4 12 -4 25q0 58 60 80q26 9 58 9q63 -1 114 -37l-34 -45q-38 31 -83 31q-49 0 -56 -28q-1 -3 -1 -6q0 -20 33 -32q14 -5 34 -10q91 -23 108 -64q5 -13 5 -29 q0 -60 -65 -82q-26 -8 -57 -8z" glyph-name="s" horiz-adv-x="288" unicode="s"/>
<glyph d="M224 249h-92v-158q0 -35 30 -39q6 -1 13 -1q26 0 49 6v-55q-29 -7 -61 -7q-89 4 -91 84v170h-59v51h59l8 80h52v-80h92v-51z" glyph-name="t" horiz-adv-x="248" unicode="t"/>
<glyph d="M253 300h60v-300h-52l-4 47q-38 -51 -106 -52q-67 0 -96 56q-13 27 -13 59v190h60v-174q0 -68 50 -78q8 -2 16 -2q51 0 74 41q11 19 11 41v172z" glyph-name="u" unicode="u"/>
<glyph d="M252 300h63l-118 -300h-70l-118 300h66l88 -239z" glyph-name="v" horiz-adv-x="324" unicode="v"/>
<glyph d="M401 300h59l-92 -300h-65l-66 220l-65 -220h-66l-92 300h62l65 -232l67 232h59l68 -232z" glyph-name="w" horiz-adv-x="474" unicode="w"/>
<glyph d="M318 0h-72l-81 112l-82 -112h-70l115 153l-109 147h71l77 -106l78 106h68l-109 -147z" glyph-name="x" horiz-adv-x="331" unicode="x"/>
<glyph d="M260 300h62l-111 -311q-34 -93 -103 -94q-65 0 -82 58q-4 14 -4 30l55 9q0 -42 32 -43q22 2 39 31l-141 320h66l105 -251z" glyph-name="y" horiz-adv-x="328" unicode="y"/>
<glyph d="M95 51h181v-51h-257v49l178 200h-169v51h244v-49z" glyph-name="z" horiz-adv-x="296" unicode="z"/>
<glyph d="M131 234q-1 -50 -34 -64q33 -15 34 -64v-97q2 -18 19 -19h46v-50h-58q-59 9 -64 64v100q-1 40 -28 41h-16v50h16q27 2 28 41v100q9 59 64 64h58v-50h-46q-18 -2 -19 -19v-97z" glyph-name="braceleft" horiz-adv-x="236" unicode="{"/>
<glyph d="M57 -60v460h57v-460h-57z" glyph-name="bar" horiz-adv-x="171" unicode="|"/>
<glyph d="M174 195h16v-50h-16q-27 -2 -28 -41v-100q-9 -59 -64 -64h-58v50h46q18 2 19 19v97q1 50 34 64q-33 15 -34 64v97q-2 18 -19 19h-46v50h58q59 -9 64 -64v-100q1 -40 28 -41z" glyph-name="braceright" horiz-adv-x="230" unicode="}"/>
<glyph d="M68 149l-37 29q35 57 88 58q29 0 71 -25q30 -17 51 -17q28 1 51 38l37 -29q-36 -58 -88 -59q-29 0 -71 25q-30 17 -51 17q-28 -1 -51 -37z" glyph-name="asciitilde" unicode="~"/>
<glyph d="M51 300h78v-78h-78v78zM66 174h48l11 -254h-70z" glyph-name="exclamdown" horiz-adv-x="180" unicode="¡"/>
<glyph d="M192 88q44 9 62 55l55 -17q-19 -67 -90 -85q-14 -4 -27 -5v-36h-40v36q-79 10 -112 81q-15 33 -15 73q0 90 66 132q28 17 61 22v36h40v-36q79 -7 109 -69q5 -11 8 -21l-56 -17q-17 47 -61 55v-204zM84 190q0 -72 50 -95q9 -4 18 -6v202q-52 -11 -65 -71q-3 -15 -3 -30z " glyph-name="cent" horiz-adv-x="328" unicode="¢"/>
<glyph d="M283 93l55 -8q-6 -89 -79 -90q-45 0 -102 44l-6 4q-29 -47 -76 -48q-47 0 -63 39q-4 11 -4 24q0 49 47 61q12 3 25 3q22 0 38 -7q-3 28 -15 56h-72v38h52q-20 39 -20 72q0 68 64 94q26 10 59 10q83 0 115 -63q8 -18 11 -38l-55 -15q-18 60 -72 66q-46 0 -60 -36 q-4 -10 -4 -21q1 -26 22 -69h99v-38h-83q11 -32 11 -57q0 -10 -2 -25q48 -33 62 -38q11 -4 21 -4q29 2 32 46zM76 37q28 2 38 33q-19 11 -36 11q-28 -2 -29 -23q3 -19 27 -21z" glyph-name="sterling" unicode="£"/>
<glyph d="M294 190q-1 -34 -19 -64l52 -52l-31 -31l-52 52q-31 -19 -64 -19q-34 1 -64 19l-52 -52l-31 31l52 52q-19 31 -19 64q1 34 19 64l-52 52l31 31l52 -52q31 19 64 19q34 -1 64 -19l52 52l31 -31l-52 -52q19 -31 19 -64zM116 190q0 -41 36 -58q14 -6 28 -6q41 0 58 36 q6 14 6 28q0 41 -36 58q-14 6 -28 6q-41 0 -58 -36q-6 -14 -6 -28z" glyph-name="currency" unicode="¤"/>
<glyph d="M367 380l-126 -193h58v-38h-82v-42h82v-38h-82v-69h-63v69h-75v38h75v42h-75v38h51l-126 193h73l109 -171l109 171h72z" glyph-name="yen" horiz-adv-x="378" unicode="¥"/>
<glyph d="M57 220v180h57v-180h-57zM114 120v-180h-57v180h57z" glyph-name="brokenbar" horiz-adv-x="171" unicode="¦"/>
<glyph d="M221 89q50 -22 51 -69q0 -53 -60 -75q-28 -10 -62 -10q-80 1 -132 46l32 42q39 -37 101 -37q63 1 64 36q0 24 -46 38q-11 3 -32 9q-82 22 -103 53q-11 18 -11 39q2 52 63 73q-51 24 -52 67q0 57 64 77q25 7 54 7q62 -1 113 -37l-31 -46q-37 32 -85 32q-57 -1 -58 -35 q0 -24 45 -37q10 -3 27 -7q75 -18 98 -44q19 -21 19 -50q-1 -53 -59 -72zM80 163q0 -36 62 -44q11 -1 20 -1q52 0 61 30q1 5 1 9q0 36 -62 44q-11 1 -20 1q-52 0 -61 -30q-1 -5 -1 -9z" glyph-name="section" horiz-adv-x="302" unicode="§"/>
<glyph d="M16 342v60h65v-60h-65zM119 342v60h65v-60h-65z" glyph-name="dieresis" horiz-adv-x="160" unicode="¨"/>
<glyph d="M223 -5q-100 0 -156 74q-39 52 -39 121q0 100 74 156q52 39 121 39q100 0 156 -74q39 -52 39 -121q0 -100 -74 -156q-52 -39 -121 -39zM223 32q86 0 130 67q26 40 26 91q0 87 -66 132q-39 26 -90 26q-86 0 -130 -67q-26 -40 -26 -91q0 -87 66 -132q39 -26 90 -26zM226 84 q-65 0 -91 54q-12 24 -12 52q0 68 54 95q22 11 49 11q61 0 86 -48q3 -7 5 -13l-48 -17q-12 31 -43 32q-42 0 -50 -44q-1 -8 -1 -16q0 -52 40 -59q6 -1 11 -1q32 1 43 32l48 -17q-16 -50 -71 -59q-10 -2 -20 -2z" glyph-name="copyright" horiz-adv-x="446" unicode="©"/>
<glyph d="M36 140v60l122 86v-65l-71 -50l71 -50v-67zM293 286v-65l-71 -50l71 -50v-67l-122 86v60z" glyph-name="guillemotleft" horiz-adv-x="338" unicode="«"/>
<glyph d="M316 215v-162h-52v112h-220v50h272z" glyph-name="logicalnot" unicode="¬"/>
<glyph d="M138 385q61 0 88 -50q12 -23 12 -50q0 -61 -50 -88q-23 -12 -50 -12q-61 0 -88 50q-12 23 -12 50q0 61 50 88q23 12 50 12zM138 210q47 0 67 41q8 16 8 34q0 47 -41 67q-16 8 -34 8q-47 0 -67 -41q-8 -16 -8 -34q0 -47 41 -67q16 -8 34 -8zM177 265q2 -4 5 -5h1v-25h-13 q-20 2 -21 21v4q-2 7 -8 8h-17v-33h-27v102h47q29 0 36 -23q1 -5 1 -9q-1 -18 -14 -24q9 -5 10 -15v-1zM141 311h-17v-17h17q11 1 12 8q0 9 -12 9z" glyph-name="registered" horiz-adv-x="276" unicode="®"/>
<glyph d="M18 354v46h164v-46h-164z" glyph-name="macron" horiz-adv-x="160" unicode="¯"/>
<glyph d="M114 219q-50 0 -73 42q-11 19 -11 41q0 49 43 73q19 10 41 10q50 0 73 -43q10 -19 10 -40q0 -50 -43 -73q-19 -10 -40 -10zM114 259q31 0 41 28q2 8 2 15q0 30 -27 40q-8 3 -16 3q-30 0 -40 -27q-3 -8 -3 -16q0 -31 29 -41q7 -2 14 -2z" glyph-name="degree" horiz-adv-x="228" unicode="°"/>
<glyph d="M206 239h110v-50h-110v-111h-52v111h-110v50h110v111h52v-111zM44 -3v50h272v-50h-272z" glyph-name="plusminus" unicode="±"/>
<glyph d="M102 278h108v-42h-182v32l86 64q42 34 43 60q-7 28 -39 31q-40 0 -45 -37q-1 -3 -1 -5l-44 6q5 57 60 72q15 4 32 4q61 0 79 -41q5 -12 5 -25q0 -39 -57 -84q-7 -6 -14 -11z" glyph-name="uni00B2" horiz-adv-x="234" unicode="²"/>
<glyph d="M137 374q47 -2 63 -40q5 -12 5 -25q0 -46 -46 -66q-21 -10 -46 -10q-62 0 -90 44l-4 8l35 22q18 -33 59 -34q38 0 45 28q1 4 1 8q0 29 -30 34q-5 1 -10 1q-14 0 -26 -6l-20 23l63 58h-105v41h166v-34z" glyph-name="uni00B3" horiz-adv-x="234" unicode="³"/>
<glyph d="M81 328l30 73h72l-59 -73h-43z" glyph-name="acute" horiz-adv-x="160" unicode="´"/>
<glyph d="M219 380v-480h-61v280h-8q-79 0 -106 56q-9 20 -9 44q0 67 61 91q25 9 54 9h69zM268 380h61v-480h-61v480z" glyph-name="paragraph" horiz-adv-x="386" unicode="¶"/>
<glyph d="M41 131v78h78v-78h-78z" glyph-name="periodcentered" horiz-adv-x="160" unicode="·"/>
<glyph d="M124 -21q40 0 48 -30q2 -6 2 -12q0 -33 -41 -44q-14 -3 -28 -3q-38 1 -65 20l19 30q24 -17 46 -17q25 1 26 15q-2 12 -19 13q-12 0 -20 -5l-29 15l26 42h39l-15 -25q5 1 11 1z" glyph-name="cedilla" horiz-adv-x="160" unicode="¸"/>
<glyph d="M135 460v-224h-46v148h-61v38h15q45 0 53 20q3 8 4 18h35z" glyph-name="uni00B9" horiz-adv-x="190" unicode="¹"/>
<glyph d="M46 219v67l122 -86v-60l-122 -86v65l70 50zM181 286l122 -86v-60l-122 -86v65l70 50l-70 50v67z" glyph-name="guillemotright" horiz-adv-x="338" unicode="»"/>
<glyph d="M89 156v148h-61v38h15q45 0 53 20q3 8 4 18h35v-224h-46zM313 380h47l-241 -380h-47zM429 91v-40h-37v-51h-44v51h-121v37l110 136h55v-133h37zM275 91h73v91z" glyph-name="onequarter" horiz-adv-x="444" unicode="¼"/>
<glyph d="M89 156v148h-61v38h15q45 0 53 20q3 8 4 18h35v-224h-46zM297 380h47l-241 -380h-47zM312 42h108v-42h-182v32l86 64q42 34 43 60q-7 28 -39 31q-40 0 -45 -37q-1 -3 -1 -5l-44 6q5 57 60 72q15 4 32 4q61 0 79 -41q5 -12 5 -25q0 -39 -57 -84q-7 -6 -14 -11z" glyph-name="onehalf" horiz-adv-x="444" unicode="½"/>
<glyph d="M205 229q0 -46 -46 -66q-21 -10 -46 -10q-62 0 -90 44l-4 8l35 22q18 -33 59 -34q38 0 45 28q1 4 1 8q0 29 -30 34q-5 1 -10 1q-14 0 -26 -6l-20 23l63 58h-105v41h166v-34l-60 -52q47 -2 63 -40q5 -12 5 -25zM357 380h47l-241 -380h-47zM473 91v-40h-37v-51h-44v51h-121 v37l110 136h55v-133h37zM319 91h73v91z" glyph-name="threequarters" horiz-adv-x="488" unicode="¾"/>
<glyph d="M197 300v-78h-78v78h78zM184 182q2 -38 -22 -64q-10 -10 -26 -23q-40 -32 -44 -56q-1 -6 -1 -12q0 -50 46 -59q9 -2 18 -2q55 0 74 52q5 14 6 30l56 -11q-7 -79 -75 -109q-29 -13 -63 -13q-81 0 -111 57q-12 23 -12 51q0 53 55 96q5 3 8 6q40 32 41 53v4h50z" glyph-name="questiondown" horiz-adv-x="310" unicode="¿"/>
<glyph d="M218 408h-43l-59 73h72zM323 0l-34 88h-182l-34 -88h-66l153 380h77l153 -380h-67zM129 144h138l-69 178z" glyph-name="Agrave" horiz-adv-x="397" unicode="À"/>
<glyph d="M282 481l-59 -73h-43l30 73h72zM323 0l-34 88h-182l-34 -88h-66l153 380h77l153 -380h-67zM129 144h138l-69 178z" glyph-name="Aacute" horiz-adv-x="397" unicode="Á"/>
<glyph d="M200 446l-37 -38h-53l59 73h62l60 -73h-54zM323 0l-34 88h-182l-34 -88h-66l153 380h77l153 -380h-67zM129 144h138l-69 178z" glyph-name="Acircumflex" horiz-adv-x="397" unicode="Â"/>
<glyph d="M170 441q-17 -2 -27 -24l-36 19q19 47 59 48q16 0 46 -18q12 -7 19 -7q16 2 26 24l36 -19q-18 -47 -59 -48q-15 0 -44 18q-13 7 -20 7zM323 0l-34 88h-182l-34 -88h-66l153 380h77l153 -380h-67zM129 144h138l-69 178z" glyph-name="Atilde" horiz-adv-x="397" unicode="Ã"/>
<glyph d="M180 482v-60h-65v60h65zM283 482v-60h-65v60h65zM323 0l-34 88h-182l-34 -88h-66l153 380h77l153 -380h-67zM129 144h138l-69 178z" glyph-name="Adieresis" horiz-adv-x="397" unicode="Ä"/>
<glyph d="M323 0l-34 88h-182l-34 -88h-66l151 376q-25 20 -26 53q0 44 39 60q13 6 28 6q44 0 61 -37q6 -14 6 -29q-1 -35 -27 -54l151 -375h-67zM199 458q-24 0 -28 -22q-1 -4 -1 -7q0 -24 22 -28q4 -1 7 -1q24 0 28 22q1 4 1 7q0 24 -22 28q-4 1 -7 1zM129 144h138l-69 178z" glyph-name="Aring" horiz-adv-x="397" unicode="Å"/>
<glyph d="M339 56h135v-56h-180l-32 89h-159l-32 -89h-64l141 380h321v-56h-229l38 -102h151v-54h-131zM122 143h120l-60 169z" glyph-name="AE" horiz-adv-x="494" unicode="Æ"/>
<glyph d="M208 50q78 2 101 78l59 -21q-25 -79 -101 -103q-19 -6 -39 -8l-11 -18q5 1 11 1q40 0 48 -30q2 -6 2 -12q0 -33 -41 -44q-14 -3 -28 -3q-38 1 -65 20l19 30q24 -17 46 -17q25 1 26 15q-2 12 -19 13q-12 0 -20 -5l-29 15l22 35q-101 9 -141 96q-20 43 -20 98q0 109 75 162 q45 33 106 33q102 0 145 -79q9 -16 14 -33l-59 -21q-24 77 -101 78q-71 0 -101 -67q-14 -32 -14 -73q0 -99 66 -130q22 -10 49 -10z" glyph-name="Ccedilla" horiz-adv-x="387" unicode="Ç"/>
<glyph d="M207 408h-43l-59 73h72zM120 56h204v-56h-267v380h262v-56h-199v-102h154v-54h-154v-112z" glyph-name="Egrave" horiz-adv-x="344" unicode="È"/>
<glyph d="M271 481l-59 -73h-43l30 73h72zM120 56h204v-56h-267v380h262v-56h-199v-102h154v-54h-154v-112z" glyph-name="Eacute" horiz-adv-x="344" unicode="É"/>
<glyph d="M189 446l-37 -38h-53l59 73h62l60 -73h-54zM120 56h204v-56h-267v380h262v-56h-199v-102h154v-54h-154v-112z" glyph-name="Ecircumflex" horiz-adv-x="344" unicode="Ê"/>
<glyph d="M169 482v-60h-65v60h65zM272 482v-60h-65v60h65zM120 56h204v-56h-267v380h262v-56h-199v-102h154v-54h-154v-112z" glyph-name="Edieresis" horiz-adv-x="344" unicode="Ë"/>
<glyph d="M108 408h-43l-59 73h72zM57 0v380h63v-380h-63z" glyph-name="Igrave" horiz-adv-x="177" unicode="Ì"/>
<glyph d="M70 408l30 73h72l-59 -73h-43zM57 0v380h63v-380h-63z" glyph-name="Iacute" horiz-adv-x="177" unicode="Í"/>
<glyph d="M121 481l60 -73h-54l-37 38l-37 -38h-53l59 73h62zM57 0v380h63v-380h-63z" glyph-name="Icircumflex" horiz-adv-x="177" unicode="Î"/>
<glyph d="M5 422v60h65v-60h-65zM108 422v60h65v-60h-65zM57 0v380h63v-380h-63z" glyph-name="Idieresis" horiz-adv-x="177" unicode="Ï"/>
<glyph d="M196 380q124 0 168 -94q20 -42 20 -96q0 -111 -79 -161q-47 -29 -109 -29h-139v171h-39v48h39v161h139zM196 55q84 0 112 73q11 28 11 62q0 94 -68 124q-25 11 -55 11h-76v-106h70v-48h-70v-116h76z" glyph-name="Eth" horiz-adv-x="412" unicode="Ð"/>
<glyph d="M189 441q-17 -2 -27 -24l-36 19q19 47 59 48q16 0 46 -18q12 -7 19 -7q16 2 26 24l36 -19q-18 -47 -59 -48q-15 0 -44 18q-13 7 -20 7zM315 380h60v-380h-61l-197 281v-281h-60v380h62l196 -279v279z" glyph-name="Ntilde" horiz-adv-x="432" unicode="Ñ"/>
<glyph d="M230 408h-43l-59 73h72zM211 -5q-107 0 -155 83q-28 48 -28 112q0 108 75 162q47 33 108 33q107 0 155 -83q28 -48 28 -112q0 -108 -75 -162q-47 -33 -108 -33zM211 50q74 0 104 67q14 33 14 73q0 91 -61 126q-26 14 -57 14q-74 0 -104 -67q-14 -33 -14 -73 q0 -91 61 -126q26 -14 57 -14z" glyph-name="Ograve" horiz-adv-x="422" unicode="Ò"/>
<glyph d="M192 408l30 73h72l-59 -73h-43zM211 -5q-107 0 -155 83q-28 48 -28 112q0 108 75 162q47 33 108 33q107 0 155 -83q28 -48 28 -112q0 -108 -75 -162q-47 -33 -108 -33zM211 50q74 0 104 67q14 33 14 73q0 91 -61 126q-26 14 -57 14q-74 0 -104 -67q-14 -33 -14 -73 q0 -91 61 -126q26 -14 57 -14z" glyph-name="Oacute" horiz-adv-x="422" unicode="Ó"/>
<glyph d="M212 446l-37 -38h-53l59 73h62l60 -73h-54zM211 385q107 0 155 -83q28 -48 28 -112q0 -108 -75 -162q-47 -33 -108 -33q-107 0 -155 83q-28 48 -28 112q0 108 75 162q47 33 108 33zM211 50q74 0 104 67q14 33 14 73q0 91 -61 126q-26 14 -57 14q-74 0 -104 -67 q-14 -33 -14 -73q0 -91 61 -126q26 -14 57 -14z" glyph-name="Ocircumflex" horiz-adv-x="422" unicode="Ô"/>
<glyph d="M305 464q-18 -47 -59 -48q-15 0 -44 18q-13 7 -20 7q-17 -2 -27 -24l-36 19q19 47 59 48q16 0 46 -18q12 -7 19 -7q16 2 26 24zM211 -5q-107 0 -155 83q-28 48 -28 112q0 108 75 162q47 33 108 33q107 0 155 -83q28 -48 28 -112q0 -108 -75 -162q-47 -33 -108 -33z M211 50q74 0 104 67q14 33 14 73q0 91 -61 126q-26 14 -57 14q-74 0 -104 -67q-14 -33 -14 -73q0 -91 61 -126q26 -14 57 -14z" glyph-name="Otilde" horiz-adv-x="422" unicode="Õ"/>
<glyph d="M127 422v60h65v-60h-65zM230 422v60h65v-60h-65zM211 -5q-107 0 -155 83q-28 48 -28 112q0 108 75 162q47 33 108 33q107 0 155 -83q28 -48 28 -112q0 -108 -75 -162q-47 -33 -108 -33zM211 50q74 0 104 67q14 33 14 73q0 91 -61 126q-26 14 -57 14q-74 0 -104 -67 q-14 -33 -14 -73q0 -91 61 -126q26 -14 57 -14z" glyph-name="Odieresis" horiz-adv-x="422" unicode="Ö"/>
<glyph d="M305 279l-89 -89l89 -89l-36 -36l-89 89l-89 -89l-36 36l89 89l-89 89l36 36l89 -89l89 89z" glyph-name="multiply" unicode="×"/>
<glyph d="M348 327q46 -53 46 -137q0 -108 -75 -162q-47 -33 -108 -33q-58 0 -102 27l-21 -27h-59l45 58q-46 53 -46 137q0 108 75 162q47 33 108 33q58 0 102 -27l21 27h59zM93 190q0 -52 21 -86l162 207q-29 19 -65 19q-74 0 -104 -67q-14 -33 -14 -73zM211 50q74 0 104 67 q14 33 14 73q0 52 -21 86l-162 -207q29 -19 65 -19z" glyph-name="Oslash" horiz-adv-x="422" unicode="Ø"/>
<glyph d="M231 408h-43l-59 73h72zM212 -5q-100 0 -141 73q-19 36 -19 82v230h63v-229q0 -74 59 -94q18 -6 38 -6q70 0 91 60q6 19 6 40v229h63v-230q0 -95 -74 -135q-38 -20 -86 -20z" glyph-name="Ugrave" horiz-adv-x="424" unicode="Ù"/>
<glyph d="M193 408l30 73h72l-59 -73h-43zM212 -5q-100 0 -141 73q-19 36 -19 82v230h63v-229q0 -74 59 -94q18 -6 38 -6q70 0 91 60q6 19 6 40v229h63v-230q0 -95 -74 -135q-38 -20 -86 -20z" glyph-name="Uacute" horiz-adv-x="424" unicode="Ú"/>
<glyph d="M213 446l-37 -38h-53l59 73h62l60 -73h-54zM309 380h63v-230q0 -95 -74 -135q-38 -20 -86 -20q-100 0 -141 73q-19 36 -19 82v230h63v-229q0 -74 59 -94q18 -6 38 -6q70 0 91 60q6 19 6 40v229z" glyph-name="Ucircumflex" horiz-adv-x="424" unicode="Û"/>
<glyph d="M128 422v60h65v-60h-65zM231 422v60h65v-60h-65zM212 -5q-100 0 -141 73q-19 36 -19 82v230h63v-229q0 -74 59 -94q18 -6 38 -6q70 0 91 60q6 19 6 40v229h63v-230q0 -95 -74 -135q-38 -20 -86 -20z" glyph-name="Udieresis" horiz-adv-x="424" unicode="Ü"/>
<glyph d="M269 481l-59 -73h-43l30 73h72zM367 380l-150 -230v-150h-63v152l-150 228h73l110 -171l109 171h71z" glyph-name="Yacute" horiz-adv-x="371" unicode="Ý"/>
<glyph d="M216 312q93 0 124 -64q11 -24 11 -53q0 -78 -70 -106q-29 -11 -65 -11h-96v-78h-63v380h63v-68h96zM209 130q77 2 78 64q0 63 -78 63h-89v-127h89z" glyph-name="Thorn" horiz-adv-x="374" unicode="Þ"/>
<glyph d="M257 -5q-67 1 -113 38l31 42q35 -31 84 -31q46 4 51 31q0 18 -37 31q-10 3 -22 6q-68 22 -82 46q-8 14 -8 33q0 42 48 66l16 8q37 16 42 31q2 5 2 9q0 36 -46 47q-14 3 -30 3q-85 -2 -86 -70v-285h-60v287q0 79 74 108q31 12 71 12q85 0 121 -48q16 -22 16 -47 q0 -55 -62 -82q-6 -2 -13 -5q-34 -14 -38 -26q-1 -4 -1 -7q0 -14 34 -23q7 -3 17 -5q81 -22 96 -58q6 -14 6 -29q0 -55 -59 -74q-24 -8 -52 -8z" glyph-name="germandbls" horiz-adv-x="383" unicode="ß"/>
<glyph d="M175 328h-43l-59 73h72zM291 52h11v-52q-7 -2 -21 -2q-47 0 -56 36l-2 12q-41 -47 -105 -51q-66 0 -90 49q-8 18 -8 39q0 71 93 92q15 4 36 7q55 7 63 19q4 7 4 14q0 29 -40 38q-11 2 -23 2q-52 -1 -90 -40l-37 39q55 51 130 51q86 0 110 -61q6 -18 6 -38v-135 q2 -18 19 -19zM128 44q49 0 74 36q12 16 12 34v39q-12 -7 -58 -15q-56 -9 -69 -26q-8 -11 -8 -25q2 -42 49 -43z" glyph-name="agrave" horiz-adv-x="322" unicode="à"/>
<glyph d="M239 401l-59 -73h-43l30 73h72zM291 52h11v-52q-7 -2 -21 -2q-47 0 -56 36l-2 12q-41 -47 -105 -51q-66 0 -90 49q-8 18 -8 39q0 71 93 92q15 4 36 7q55 7 63 19q4 7 4 14q0 29 -40 38q-11 2 -23 2q-52 -1 -90 -40l-37 39q55 51 130 51q86 0 110 -61q6 -18 6 -38v-135 q2 -18 19 -19zM128 44q49 0 74 36q12 16 12 34v39q-12 -7 -58 -15q-56 -9 -69 -26q-8 -11 -8 -25q2 -42 49 -43z" glyph-name="aacute" horiz-adv-x="322" unicode="á"/>
<glyph d="M157 366l-37 -38h-53l59 73h62l60 -73h-54zM291 52h11v-52q-7 -2 -21 -2q-47 0 -56 36l-2 12q-41 -47 -105 -51q-66 0 -90 49q-8 18 -8 39q0 71 93 92q15 4 36 7q55 7 63 19q4 7 4 14q0 29 -40 38q-11 2 -23 2q-52 -1 -90 -40l-37 39q55 51 130 51q86 0 110 -61 q6 -18 6 -38v-135q2 -18 19 -19zM128 44q49 0 74 36q12 16 12 34v39q-12 -7 -58 -15q-56 -9 -69 -26q-8 -11 -8 -25q2 -42 49 -43z" glyph-name="acircumflex" horiz-adv-x="322" unicode="â"/>
<glyph d="M127 361q-17 -2 -27 -24l-36 19q19 47 59 48q16 0 46 -18q12 -7 19 -7q16 2 26 24l36 -19q-18 -47 -59 -48q-15 0 -44 18q-13 7 -20 7zM291 52h11v-52q-7 -2 -21 -2q-47 0 -56 36l-2 12q-41 -47 -105 -51q-66 0 -90 49q-8 18 -8 39q0 71 93 92q15 4 36 7q55 7 63 19 q4 7 4 14q0 29 -40 38q-11 2 -23 2q-52 -1 -90 -40l-37 39q55 51 130 51q86 0 110 -61q6 -18 6 -38v-135q2 -18 19 -19zM128 44q49 0 74 36q12 16 12 34v39q-12 -7 -58 -15q-56 -9 -69 -26q-8 -11 -8 -25q2 -42 49 -43z" glyph-name="atilde" horiz-adv-x="322" unicode="ã"/>
<glyph d="M137 402v-60h-65v60h65zM240 402v-60h-65v60h65zM291 52h11v-52q-7 -2 -21 -2q-47 0 -56 36l-2 12q-41 -47 -105 -51q-66 0 -90 49q-8 18 -8 39q0 71 93 92q15 4 36 7q55 7 63 19q4 7 4 14q0 29 -40 38q-11 2 -23 2q-52 -1 -90 -40l-37 39q55 51 130 51q86 0 110 -61 q6 -18 6 -38v-135q2 -18 19 -19zM128 44q49 0 74 36q12 16 12 34v39q-12 -7 -58 -15q-56 -9 -69 -26q-8 -11 -8 -25q2 -42 49 -43z" glyph-name="adieresis" horiz-adv-x="322" unicode="ä"/>
<glyph d="M156 328q-43 0 -60 36q-7 15 -7 30q0 44 39 60q13 6 28 6q44 0 61 -37q6 -14 6 -29q0 -42 -37 -60q-15 -6 -30 -6zM156 423q-24 0 -28 -22q-1 -4 -1 -7q0 -24 22 -28q4 -1 7 -1q24 0 28 22q1 4 1 7q0 24 -22 28q-4 1 -7 1zM291 52h11v-52q-7 -2 -21 -2q-47 0 -56 36 l-2 12q-41 -47 -105 -51q-66 0 -90 49q-8 18 -8 39q0 71 93 92q15 4 36 7q55 7 63 19q4 7 4 14q0 29 -40 38q-11 2 -23 2q-52 -1 -90 -40l-37 39q55 51 130 51q86 0 110 -61q6 -18 6 -38v-135q2 -18 19 -19zM128 44q49 0 74 36q12 16 12 34v39q-12 -7 -58 -15 q-56 -9 -69 -26q-8 -11 -8 -25q2 -42 49 -43z" glyph-name="aring" horiz-adv-x="322" unicode="å"/>
<glyph d="M271 132q8 -69 64 -83q12 -3 24 -3q58 1 84 38l39 -36q-43 -52 -122 -53q-79 1 -117 62q-38 -61 -113 -62q-71 0 -97 49q-10 19 -10 40q2 81 124 97q58 8 65 13q7 7 7 19q0 26 -33 37q-14 5 -29 5q-53 -1 -91 -40l-37 39q53 51 127 51q70 -1 95 -50q41 49 106 50 q83 0 118 -71q18 -37 18 -84q0 -12 -2 -18h-220zM272 175h160q-9 65 -58 78q-10 2 -19 2q-57 0 -77 -55q-4 -12 -6 -25zM133 44q51 0 74 39q11 19 11 42v30q-10 -5 -62 -14q-73 -16 -76 -54q4 -41 53 -43z" glyph-name="ae" horiz-adv-x="516" unicode="æ"/>
<glyph d="M175 46q53 0 75 53l2 4l57 -18q-19 -64 -87 -84q-14 -3 -27 -5l-11 -18q5 1 11 1q40 0 48 -30q2 -6 2 -12q0 -33 -41 -44q-14 -3 -28 -3q-38 1 -65 20l19 30q24 -17 46 -17q25 1 26 15q-2 12 -19 13q-12 0 -20 -5l-29 15l22 35q-83 9 -116 81q-15 34 -15 73q0 90 66 132 q37 23 84 23q84 0 121 -61q8 -14 13 -29l-57 -18q-22 56 -77 57q-62 0 -82 -58q-7 -21 -7 -46q0 -75 53 -97q17 -7 36 -7z" glyph-name="ccedilla" horiz-adv-x="326" unicode="ç"/>
<glyph d="M190 328h-43l-59 73h72zM85 131q9 -69 69 -82q12 -3 24 -3q59 1 89 39l41 -36q-46 -54 -130 -54q-99 0 -136 77q-17 35 -17 78q0 91 66 133q36 22 82 22q89 0 127 -73q18 -36 18 -82q0 -13 -2 -19h-231zM173 255q-63 0 -83 -62l-4 -16h171q-11 65 -66 76q-9 2 -18 2z" glyph-name="egrave" horiz-adv-x="341" unicode="è"/>
<glyph d="M254 401l-59 -73h-43l30 73h72zM85 131q9 -69 69 -82q12 -3 24 -3q59 1 89 39l41 -36q-46 -54 -130 -54q-99 0 -136 77q-17 35 -17 78q0 91 66 133q36 22 82 22q89 0 127 -73q18 -36 18 -82q0 -13 -2 -19h-231zM173 255q-63 0 -83 -62l-4 -16h171q-11 65 -66 76 q-9 2 -18 2z" glyph-name="eacute" horiz-adv-x="341" unicode="é"/>
<glyph d="M172 366l-37 -38h-53l59 73h62l60 -73h-54zM85 131q9 -69 69 -82q12 -3 24 -3q59 1 89 39l41 -36q-46 -54 -130 -54q-99 0 -136 77q-17 35 -17 78q0 91 66 133q36 22 82 22q89 0 127 -73q18 -36 18 -82q0 -13 -2 -19h-231zM173 255q-63 0 -83 -62l-4 -16h171 q-11 65 -66 76q-9 2 -18 2z" glyph-name="ecircumflex" horiz-adv-x="341" unicode="ê"/>
<glyph d="M152 402v-60h-65v60h65zM255 402v-60h-65v60h65zM85 131q9 -69 69 -82q12 -3 24 -3q59 1 89 39l41 -36q-46 -54 -130 -54q-99 0 -136 77q-17 35 -17 78q0 91 66 133q36 22 82 22q89 0 127 -73q18 -36 18 -82q0 -13 -2 -19h-231zM173 255q-63 0 -83 -62l-4 -16h171 q-11 65 -66 76q-9 2 -18 2z" glyph-name="edieresis" horiz-adv-x="341" unicode="ë"/>
<glyph d="M101 328h-43l-59 73h72zM52 0v300h60v-300h-60z" glyph-name="igrave" horiz-adv-x="164" unicode="ì"/>
<glyph d="M63 328l30 73h72l-59 -73h-43zM52 0v300h60v-300h-60z" glyph-name="iacute" horiz-adv-x="164" unicode="í"/>
<glyph d="M114 401l60 -73h-54l-37 38l-37 -38h-53l59 73h62zM52 0v300h60v-300h-60z" glyph-name="icircumflex" horiz-adv-x="164" unicode="î"/>
<glyph d="M-2 342v60h65v-60h-65zM101 342v60h65v-60h-65zM52 0v300h60v-300h-60z" glyph-name="idieresis" horiz-adv-x="164" unicode="ï"/>
<glyph d="M231 354q83 -76 83 -196q0 -103 -71 -144q-33 -19 -75 -19q-90 0 -126 70q-17 33 -17 75q0 83 60 122q32 21 72 21q47 -1 81 -31q-17 45 -55 76l-60 -33l-22 34l44 24q-13 7 -40 17l24 43q37 -13 67 -32l60 32l21 -34zM169 45q56 0 76 52q7 20 7 42q0 64 -47 86 q-17 8 -36 8q-57 0 -76 -53q-7 -19 -7 -41q0 -64 47 -86q17 -8 36 -8z" glyph-name="eth" horiz-adv-x="342" unicode="ð"/>
<glyph d="M152 361q-17 -2 -27 -24l-36 19q19 47 59 48q16 0 46 -18q12 -7 19 -7q16 2 26 24l36 -19q-18 -47 -59 -48q-15 0 -44 18q-13 7 -20 7zM209 305q67 0 96 -56q13 -27 13 -59v-190h-60v174q0 68 -50 78q-8 2 -16 2q-51 0 -74 -41q-11 -19 -11 -41v-172h-60v300h52l4 -47 q38 51 106 52z" glyph-name="ntilde" unicode="ñ"/>
<glyph d="M196 328h-43l-59 73h72zM177 -5q-93 0 -132 71q-20 37 -20 84q0 90 67 132q37 23 85 23q93 0 132 -71q20 -37 20 -84q0 -90 -67 -132q-37 -23 -85 -23zM177 46q60 0 82 55q9 23 9 49q0 72 -52 96q-18 8 -39 8q-60 0 -82 -55q-9 -23 -9 -49q0 -72 52 -96q18 -8 39 -8z" glyph-name="ograve" horiz-adv-x="354" unicode="ò"/>
<glyph d="M158 328l30 73h72l-59 -73h-43zM177 -5q-93 0 -132 71q-20 37 -20 84q0 90 67 132q37 23 85 23q93 0 132 -71q20 -37 20 -84q0 -90 -67 -132q-37 -23 -85 -23zM177 46q60 0 82 55q9 23 9 49q0 72 -52 96q-18 8 -39 8q-60 0 -82 -55q-9 -23 -9 -49q0 -72 52 -96 q18 -8 39 -8z" glyph-name="oacute" horiz-adv-x="354" unicode="ó"/>
<glyph d="M178 366l-37 -38h-53l59 73h62l60 -73h-54zM177 305q93 0 132 -71q20 -37 20 -84q0 -90 -67 -132q-37 -23 -85 -23q-93 0 -132 71q-20 37 -20 84q0 90 67 132q37 23 85 23zM177 46q60 0 82 55q9 23 9 49q0 72 -52 96q-18 8 -39 8q-60 0 -82 -55q-9 -23 -9 -49 q0 -72 52 -96q18 -8 39 -8z" glyph-name="ocircumflex" horiz-adv-x="354" unicode="ô"/>
<glyph d="M271 384q-18 -47 -59 -48q-15 0 -44 18q-13 7 -20 7q-17 -2 -27 -24l-36 19q19 47 59 48q16 0 46 -18q12 -7 19 -7q16 2 26 24zM177 -5q-93 0 -132 71q-20 37 -20 84q0 90 67 132q37 23 85 23q93 0 132 -71q20 -37 20 -84q0 -90 -67 -132q-37 -23 -85 -23zM177 46 q60 0 82 55q9 23 9 49q0 72 -52 96q-18 8 -39 8q-60 0 -82 -55q-9 -23 -9 -49q0 -72 52 -96q18 -8 39 -8z" glyph-name="otilde" horiz-adv-x="354" unicode="õ"/>
<glyph d="M93 342v60h65v-60h-65zM196 342v60h65v-60h-65zM177 -5q-93 0 -132 71q-20 37 -20 84q0 90 67 132q37 23 85 23q93 0 132 -71q20 -37 20 -84q0 -90 -67 -132q-37 -23 -85 -23zM177 46q60 0 82 55q9 23 9 49q0 72 -52 96q-18 8 -39 8q-60 0 -82 -55q-9 -23 -9 -49 q0 -72 52 -96q18 -8 39 -8z" glyph-name="odieresis" horiz-adv-x="354" unicode="ö"/>
<glyph d="M147 268v60h66v-60h-66zM44 165v50h272v-50h-272zM147 52v60h66v-60h-66z" glyph-name="divide" unicode="÷"/>
<glyph d="M329 305l-37 -47q37 -41 37 -108q0 -90 -67 -132q-37 -23 -85 -23q-45 0 -80 19l-16 -19h-53l36 45q-39 43 -39 110q0 90 67 132q37 23 85 23q47 0 82 -20l16 20h54zM86 150q0 -36 16 -63l122 154q-20 13 -47 13q-60 0 -82 -55q-9 -23 -9 -49zM268 150q0 35 -14 61 l-123 -153q20 -12 46 -12q60 0 82 55q9 23 9 49z" glyph-name="oslash" horiz-adv-x="354" unicode="ø"/>
<glyph d="M197 328h-43l-59 73h72zM253 300h60v-300h-52l-4 47q-38 -51 -106 -52q-67 0 -96 56q-13 27 -13 59v190h60v-174q0 -68 50 -78q8 -2 16 -2q51 0 74 41q11 19 11 41v172z" glyph-name="ugrave" unicode="ù"/>
<glyph d="M261 401l-59 -73h-43l30 73h72zM253 300h60v-300h-52l-4 47q-38 -51 -106 -52q-67 0 -96 56q-13 27 -13 59v190h60v-174q0 -68 50 -78q8 -2 16 -2q51 0 74 41q11 19 11 41v172z" glyph-name="uacute" unicode="ú"/>
<glyph d="M179 366l-37 -38h-53l59 73h62l60 -73h-54zM253 300h60v-300h-52l-4 47q-38 -51 -106 -52q-67 0 -96 56q-13 27 -13 59v190h60v-174q0 -68 50 -78q8 -2 16 -2q51 0 74 41q11 19 11 41v172z" glyph-name="ucircumflex" unicode="û"/>
<glyph d="M159 402v-60h-65v60h65zM262 402v-60h-65v60h65zM253 300h60v-300h-52l-4 47q-38 -51 -106 -52q-67 0 -96 56q-13 27 -13 59v190h60v-174q0 -68 50 -78q8 -2 16 -2q51 0 74 41q11 19 11 41v172z" glyph-name="udieresis" unicode="ü"/>
<glyph d="M248 401l-59 -73h-43l30 73h72zM260 300h62l-111 -311q-34 -93 -103 -94q-65 0 -82 58q-4 14 -4 30l55 9q0 -42 32 -43q22 2 39 31l-141 320h66l105 -251z" glyph-name="yacute" horiz-adv-x="328" unicode="ý"/>
<glyph d="M206 305q80 0 114 -71q17 -37 17 -84q0 -93 -61 -134q-32 -21 -70 -21q-63 1 -99 45v-140h-60v500h60v-142q38 46 99 47zM190 46q59 0 79 58q7 21 7 46q0 75 -51 97q-17 7 -35 7q-59 0 -79 -57q-8 -22 -8 -47q0 -73 51 -97q17 -7 36 -7z" glyph-name="thorn" horiz-adv-x="362" unicode="þ"/>
</font>
</defs>
</svg>
